<svg width="138" height="109" viewBox="0 0 138 109" fill="none" xmlns="http://www.w3.org/2000/svg">
<path d="M136.925 67.0617L128.139 61.9834V62.4402L136.71 67.3841C137.274 67.7065 137.57 68.1096 137.57 68.5395C137.57 68.9694 137.274 69.3724 136.737 69.6948L71.4182 107.688C70.2091 108.386 68.2208 108.386 67.0117 107.688L1.29026 69.7217C0.726011 69.3993 0.430453 68.9962 0.430453 68.5663C0.430453 68.1364 0.726011 67.7334 1.26339 67.411L12.8976 60.6669C12.7633 60.5863 12.629 60.5057 12.4946 60.425L1.04844 67.0617C0.376715 67.4647 0.000549316 68.0021 0.000549316 68.5663C0.000549316 69.1575 0.376715 69.6948 1.07531 70.071L66.8236 108.01C68.1671 108.789 70.2628 108.789 71.6332 108.01L136.952 70.0441C137.623 69.6411 137.999 69.1037 137.999 68.5395C137.973 68.0021 137.623 67.4647 136.925 67.0617Z" fill="#325FEC"/>
<path d="M34.2563 78.2122L24.1804 71.7367L34.0413 66.0674L44.6277 72.2204L34.2563 78.2122Z" fill="white"/>
<path d="M109.895 39.2788C109.922 43.6047 106.859 48.8979 103.097 51.0474L53.4972 79.6897L4.43452 51.0474L63.4656 16.9507C67.2273 14.7743 60.8324 14.9624 60.8056 10.6365C60.8056 8.48696 60.0264 6.9823 58.8173 6.25684L107.907 34.8991C109.116 35.6246 109.868 37.1561 109.895 39.2788Z" fill="white"/>
<path d="M53.5241 84.2845L4.43452 55.6422V51.0476L53.4972 79.6899L53.5241 84.2845Z" fill="white"/>
<path d="M21.549 65.3151L4.70219 55.4811V51.5314L21.5759 61.3654V60.7474L4.56784 50.8328C4.48724 50.779 4.37976 50.779 4.29915 50.8328C4.21855 50.8865 4.16481 50.9671 4.16481 51.0746V55.6692C4.16481 55.7767 4.21855 55.8573 4.29915 55.911L21.549 65.9869V65.3151Z" fill="#325FEC"/>
<path d="M34.2859 73.0533L31.9752 71.7098L4.43452 55.6422V51.0476L31.9752 67.1421L34.2591 68.4587L34.2859 72.0054V73.0533Z" fill="white"/>
<path d="M94.4737 50.6715L55.5137 73.3221C53.4717 74.5043 50.1668 74.5043 48.0979 73.3221L11.8786 52.418C10.8307 51.8269 10.3202 51.0477 10.3202 50.2685V47.2323C10.3202 48.0115 10.8307 48.7907 11.8786 49.3818L48.0979 70.2859C50.1399 71.4681 53.4717 71.4681 55.5137 70.2859L105.409 41.2943C106.43 40.7032 106.941 39.924 106.941 39.1716V42.2078C106.941 42.987 106.43 43.7394 105.409 44.3305L99.4445 47.7966" fill="#325FEC"/>
<path d="M105.408 36.9951C107.45 38.1773 107.477 40.1119 105.435 41.2941L55.5124 70.2857C53.4704 71.4679 50.1655 71.4679 48.0966 70.2857L11.8772 49.3816C9.83517 48.1994 9.80831 46.2648 11.8503 45.0826L61.746 16.091C63.788 14.9088 67.0929 14.9088 69.1618 16.091L105.408 36.9951Z" fill="white"/>
<path d="M54.9747 20.1753V19.7185L54.1686 20.1753H54.9747Z" fill="#040404"/>
<path d="M36.9742 61.5266L11.8786 47.0442C10.8307 46.4531 10.3202 45.6739 10.3202 44.8947V41.8585C10.3202 42.6377 10.8307 43.4169 11.8786 44.0081L48.0979 64.9121C50.1399 66.0943 53.4717 66.0943 55.5137 64.9121L105.409 35.9205C106.43 35.3294 106.941 34.5502 106.941 33.7979V36.834C106.941 37.6132 106.43 38.3656 105.409 38.9567L55.5137 67.9483C53.4717 69.1305 50.1668 69.1305 48.0979 67.9483L43.3958 65.2345" fill="#325FEC"/>
<path d="M105.408 31.6218C107.45 32.804 107.477 34.7386 105.435 35.9208L55.5124 64.9124C53.4704 66.0946 50.1655 66.0946 48.0966 64.9124L11.8772 44.0084C9.83517 42.8261 9.80831 40.8916 11.8503 39.7093L61.7729 10.7177C63.8149 9.5355 67.1198 9.5355 69.1887 10.7177L105.408 31.6218Z" fill="white"/>
<path d="M21.3623 57.5767L12.0119 52.1761C11.0983 51.6387 10.5878 50.967 10.5878 50.2415V48.6562C10.8296 48.9786 11.2327 49.3279 11.7432 49.5966L21.3623 55.1316V54.5137L12.0119 49.1399C11.2864 48.71 10.5878 48.0651 10.5878 47.2053C10.5878 46.9635 10.6416 46.7485 10.749 46.5067C11.0177 46.7754 11.3402 47.0441 11.7163 47.259L21.3354 52.8209V52.2029L11.985 46.8023C11.0715 46.2649 10.561 45.5932 10.561 44.8677V43.2824C10.8028 43.6049 11.2058 43.9542 11.7163 44.2228L21.3354 49.7579V49.1399L12.0119 43.7661C11.2864 43.3362 10.5878 42.6913 10.5878 41.8315C10.5878 41.1329 11.0715 40.4612 11.985 39.9238L12.1194 39.8432C11.9581 39.7357 11.8238 39.6014 11.6895 39.467C10.6416 40.085 10.0504 40.918 10.0504 41.8315V44.8408C10.0504 45.2439 10.1848 45.6469 10.3997 46.0231C10.1848 46.3992 10.0504 46.7754 10.0504 47.1784V50.1878C10.0504 51.1013 10.6416 51.9611 11.7432 52.5791L21.3623 58.141V57.5767ZM37.215 61.6608C37.2956 61.5265 37.2418 61.3652 37.1075 61.2846L34.2594 59.6456V60.2636L36.8388 61.7683C36.9731 61.822 37.1343 61.7951 37.215 61.6608Z" fill="#040404"/>
<path d="M107.208 39.145C107.208 38.7419 107.074 38.3389 106.859 37.9627C107.074 37.6134 107.208 37.2104 107.208 36.8074V34.4966C106.966 34.4698 106.751 34.416 106.536 34.3623C106.536 34.3623 106.483 34.5235 106.456 34.5235C106.187 35.0072 105.73 35.3833 105.274 35.652L55.3779 64.6973C53.4165 65.8258 50.1922 65.8258 48.2308 64.6973L34.232 56.6098V57.2278L47.9621 65.1541C50.1116 66.3901 53.5508 66.3632 55.6466 65.1541L105.542 36.1625C106.026 35.8938 106.429 35.5445 106.671 35.2221V36.8074C106.671 37.506 106.187 38.1777 105.274 38.7151L55.3779 67.7067C53.4165 68.8352 50.2191 68.862 48.2308 67.7067L43.5287 64.9929C43.3943 64.9123 43.2331 64.966 43.1525 65.1004C43.0719 65.2347 43.1257 65.3959 43.26 65.4765L47.9621 68.1903C50.0847 69.4263 53.5239 69.4263 55.6466 68.1903L105.542 39.1987C105.918 38.9838 106.241 38.7151 106.483 38.4464C106.59 38.6882 106.644 38.9032 106.644 39.145C106.644 39.9779 105.972 40.6228 105.247 41.0527L55.3779 70.0443C53.4165 71.1728 50.1922 71.1728 48.2308 70.0443L34.232 61.9567V62.5747L47.9621 70.501C50.1116 71.737 53.5508 71.7101 55.6466 70.501L105.542 41.5094C106.026 41.2408 106.429 40.8646 106.671 40.569V42.1543C106.671 42.8529 106.187 43.5246 105.274 44.062L99.2818 47.5281C99.1474 47.6087 99.1205 47.7699 99.1743 47.9043C99.2549 48.0386 99.4161 48.0655 99.5505 48.0117L105.542 44.5456C106.617 43.9276 107.208 43.0947 107.208 42.1812V39.145Z" fill="#040404"/>
<path d="M94.3368 50.4568L55.3768 73.1073C53.4154 74.2627 50.218 74.2627 48.2297 73.1073L34.2578 65.0198V65.6377L47.961 73.5641C50.0836 74.8 53.5229 74.8 55.6455 73.5641L94.6055 50.9136C94.7398 50.8329 94.7667 50.6717 94.713 50.5374C94.6323 50.4299 94.4711 50.3762 94.3368 50.4568Z" fill="#040404"/>
<path d="M7.06911 36.9413L4.38222 35.3829V30.7883L53.4449 59.4306L53.4718 64.0252L10.3471 38.849" fill="white"/>
<path d="M103.015 30.8156C108.98 27.3764 113.843 30.1439 113.87 36.9955C113.897 43.8471 109.061 52.2033 103.096 55.6694L53.5224 84.2848V79.6902L103.096 51.0748C106.857 48.8984 109.92 43.6321 109.893 39.3062C109.893 34.9803 106.804 33.2338 103.042 35.4102L53.4687 64.0256V59.4311L103.015 30.8156Z" fill="white"/>
<path d="M94.2557 60.4524L80.9556 68.1369C81.0093 68.1369 81.0362 68.1369 81.0899 68.1369C81.3855 68.1369 81.6273 68.1638 81.8691 68.2175L93.4497 61.5272C93.6377 61.1241 93.9064 60.748 94.2557 60.4524Z" fill="#325FEC"/>
<path d="M78.701 11.3895L110.729 30.0634C108.767 28.9081 106.027 29.0693 103.044 30.8158L53.4442 59.4312L4.35458 30.7889L53.9547 2.17348C56.964 0.453864 59.6778 0.292651 61.6392 1.42115L72.6555 7.84283" fill="#325FEC"/>
<path d="M11.1244 31.8903C11.0707 31.8903 11.0438 31.8903 10.9901 31.8635L9.5929 31.0574C9.5123 31.0036 9.45856 30.923 9.45856 30.8156C9.45856 30.7081 9.5123 30.6275 9.5929 30.5737L10.9901 29.7677C11.1244 29.6871 11.2856 29.7408 11.3663 29.8752C11.4469 30.0095 11.3931 30.1707 11.2588 30.2513L10.2646 30.8156L11.2588 31.4067C11.3931 31.4873 11.42 31.6485 11.3663 31.7828C11.2856 31.8366 11.205 31.8903 11.1244 31.8903ZM13.8113 28.7198C13.7307 28.7198 13.6232 28.666 13.5695 28.5854C13.4889 28.4511 13.5426 28.2899 13.677 28.2093L16.3907 26.6509C16.5251 26.5703 16.6863 26.624 16.7669 26.7584C16.8475 26.8927 16.7938 27.0539 16.6594 27.1345L13.9457 28.6929C13.9188 28.6929 13.8651 28.7198 13.8113 28.7198ZM98.0992 26.0866C98.0455 26.0866 98.0186 26.0866 97.9649 26.0598L95.2511 24.4745C95.1168 24.3939 95.0899 24.2327 95.1436 24.0983C95.2243 23.964 95.3855 23.9371 95.5198 23.9908L98.2336 25.5761C98.3679 25.6567 98.3948 25.8179 98.3411 25.9523C98.2873 26.0329 98.1798 26.0866 98.0992 26.0866ZM19.2389 25.5761C19.1582 25.5761 19.0508 25.5224 18.997 25.4418C18.9164 25.3074 18.9702 25.1462 19.1045 25.0656L21.8183 23.5072C21.9526 23.4266 22.1138 23.4803 22.1944 23.6147C22.275 23.749 22.2213 23.9102 22.087 23.9908L19.3732 25.5492C19.3195 25.5761 19.2926 25.5761 19.2389 25.5761ZM92.6986 22.9161C92.6448 22.9161 92.618 22.9161 92.5642 22.8892L89.8505 21.304C89.7161 21.2233 89.6892 21.0621 89.743 20.9278C89.8236 20.7934 89.9848 20.7666 90.1192 20.8203L92.8329 22.4056C92.9673 22.4862 92.9941 22.6474 92.9404 22.7817C92.8867 22.8892 92.7792 22.9161 92.6986 22.9161ZM24.6664 22.4593C24.5858 22.4593 24.4783 22.4056 24.4246 22.325C24.344 22.1906 24.3977 22.0294 24.532 21.9488L27.2458 20.3904C27.3801 20.3098 27.5414 20.3635 27.622 20.4979C27.7026 20.6322 27.6488 20.7934 27.5145 20.8741L24.8007 22.4325C24.747 22.4593 24.6933 22.4593 24.6664 22.4593ZM87.2979 19.7724C87.2442 19.7724 87.2173 19.7724 87.1636 19.7456L84.4498 18.1603C84.3155 18.0797 84.2886 17.9185 84.3423 17.7841C84.3961 17.6498 84.5841 17.6229 84.7185 17.6766L87.4323 19.2619C87.5666 19.3425 87.5935 19.5037 87.5397 19.6381C87.486 19.7187 87.3785 19.7724 87.2979 19.7724ZM30.067 19.3425C29.9864 19.3425 29.879 19.2888 29.8252 19.2082C29.7446 19.0738 29.7984 18.9126 29.9327 18.832L32.6465 17.2736C32.7808 17.193 32.942 17.2467 33.0226 17.3811C33.1032 17.5154 33.0495 17.6766 32.9151 17.7573L30.2014 19.3157C30.1745 19.3157 30.1208 19.3425 30.067 19.3425ZM81.8973 16.6288C81.8435 16.6288 81.8166 16.6288 81.7629 16.6019L79.0491 15.0166C78.9148 14.936 78.8879 14.7748 78.9417 14.6405C79.0223 14.5061 79.1835 14.4792 79.3178 14.533L82.0316 16.1182C82.1659 16.1989 82.1928 16.3601 82.1391 16.4944C82.0853 16.575 81.9779 16.6288 81.8973 16.6288ZM35.4946 16.1989C35.414 16.1989 35.3065 16.1451 35.2527 16.0645C35.1721 15.9302 35.2259 15.7689 35.3602 15.6883L38.074 14.1299C38.2083 14.0493 38.3695 14.1031 38.4502 14.2374C38.5308 14.3718 38.477 14.533 38.3427 14.6136L35.6289 16.172C35.5752 16.1989 35.5214 16.1989 35.4946 16.1989ZM76.4966 13.4851C76.4429 13.4851 76.416 13.4851 76.3622 13.4582L73.6485 11.873C73.5141 11.7923 73.4873 11.6311 73.541 11.4968C73.6216 11.3624 73.7828 11.3356 73.9172 11.3893L76.6309 12.9746C76.7653 13.0552 76.7921 13.2164 76.7384 13.3507C76.6847 13.4314 76.5772 13.4851 76.4966 13.4851ZM40.8952 13.0821C40.8146 13.0821 40.7071 13.0283 40.6534 12.9477C40.5728 12.8134 40.6265 12.6522 40.7609 12.5715L43.4746 11.0131C43.609 10.9325 43.7702 10.9863 43.8508 11.1206C43.9314 11.255 43.8777 11.4162 43.7433 11.4968L41.0296 13.0552C41.0027 13.0552 40.949 13.0821 40.8952 13.0821ZM71.0959 10.3146C71.0422 10.3146 71.0153 10.3146 70.9616 10.2877L68.2478 8.70241C68.1135 8.62181 68.0866 8.46059 68.1403 8.32625C68.1941 8.1919 68.3822 8.16504 68.5165 8.21877L71.2303 9.80404C71.3646 9.88465 71.3915 10.0459 71.3378 10.1802C71.284 10.2608 71.1765 10.3146 71.0959 10.3146ZM46.3228 9.93839C46.2422 9.93839 46.1347 9.88465 46.0809 9.80404C46.0003 9.6697 46.0541 9.50848 46.1884 9.42788L48.9022 7.86948C49.0365 7.78887 49.1977 7.84261 49.2783 7.97695C49.359 8.1113 49.3052 8.27251 49.1709 8.35312L46.4571 9.91152C46.4034 9.93839 46.3765 9.93839 46.3228 9.93839ZM65.6953 7.17089C65.6415 7.17089 65.6147 7.17088 65.5609 7.14402L62.8472 5.55875C62.7128 5.47814 62.6859 5.31693 62.7397 5.18258C62.7934 5.04824 62.9815 5.02137 63.1159 5.07511L65.8296 6.66038C65.964 6.74098 65.9908 6.9022 65.9371 7.03654C65.8834 7.11715 65.7759 7.17089 65.6953 7.17089ZM51.7234 6.82159C51.6428 6.82159 51.5353 6.76785 51.4816 6.68724C51.401 6.5529 51.4547 6.39169 51.5891 6.31108L54.3028 4.75268C54.4372 4.67207 54.5984 4.72581 54.679 4.86015C54.7596 4.9945 54.7059 5.15571 54.5715 5.23632L51.8578 6.79472C51.8309 6.82159 51.7772 6.82159 51.7234 6.82159ZM60.1334 3.97348C59.4617 3.57045 58.4675 3.54358 57.3122 3.89287C57.1778 3.94661 57.0166 3.866 56.9897 3.70479C56.9629 3.54358 57.0166 3.40923 57.1778 3.38236C58.4675 3.0062 59.596 3.03307 60.429 3.51671L60.2946 3.75853L60.1334 3.97348ZM100.786 29.2572C100.706 29.2572 100.598 29.2034 100.544 29.1228C100.464 28.9885 100.517 28.8273 100.652 28.7467L101.538 28.2361C101.565 28.2093 101.619 28.2093 101.646 28.1824L100.652 27.6182C100.517 27.5375 100.491 27.3763 100.544 27.242C100.598 27.1076 100.786 27.0808 100.92 27.1345L102.318 27.9406C102.398 27.9943 102.452 28.0749 102.452 28.1824C102.452 28.2899 102.398 28.3705 102.318 28.4242C102.156 28.5048 101.995 28.6123 101.807 28.6929L100.92 29.2034C100.894 29.2572 100.84 29.2572 100.786 29.2572ZM57.554 54.2184C57.4734 54.2184 57.3659 54.1647 57.3122 54.0841C57.2316 53.9497 57.2853 53.7885 57.4196 53.7079L60.1334 52.1495C60.2677 52.0689 60.429 52.1226 60.5096 52.257C60.5902 52.3913 60.5364 52.5525 60.4021 52.6332L57.6883 54.1915C57.6346 54.2184 57.6077 54.2184 57.554 54.2184ZM62.9546 51.1016C62.874 51.1016 62.7666 51.0479 62.7128 50.9673C62.6322 50.8329 62.686 50.6717 62.8203 50.5911L65.5341 49.0327C65.6684 48.9521 65.8296 49.0058 65.9102 49.1402C65.9908 49.2745 65.9371 49.4357 65.8027 49.5163L63.089 51.0748C63.0352 51.1016 63.0084 51.1016 62.9546 51.1016ZM68.3553 47.9848C68.2747 47.9848 68.1672 47.9311 68.1135 47.8505C68.0329 47.7161 68.0866 47.5549 68.221 47.4743L70.9347 45.9159C71.0691 45.8353 71.2303 45.889 71.3109 46.0234C71.3915 46.1577 71.3378 46.319 71.2034 46.3996L68.4896 47.958C68.4628 47.9848 68.409 47.9848 68.3553 47.9848ZM73.756 44.868C73.6754 44.868 73.5679 44.8143 73.5141 44.7337C73.4335 44.5993 73.4873 44.4381 73.6216 44.3575L76.3354 42.7991C76.4697 42.7185 76.6309 42.7722 76.7115 42.9066C76.7922 43.0409 76.7384 43.2021 76.6041 43.2828L73.8903 44.8412C73.8634 44.868 73.8097 44.868 73.756 44.868ZM79.1835 41.7512C79.1029 41.7512 78.9954 41.6975 78.9417 41.6169C78.8611 41.4825 78.9148 41.3213 79.0491 41.2407L81.7629 39.6823C81.8973 39.6017 82.0585 39.6554 82.1391 39.7898C82.2197 39.9241 82.1659 40.0854 82.0316 40.166L79.3178 41.7244C79.2641 41.7244 79.2104 41.7512 79.1835 41.7512ZM84.5841 38.6344C84.5035 38.6344 84.3961 38.5807 84.3423 38.5001C84.2617 38.3657 84.3155 38.2045 84.4498 38.1239L87.1636 36.5655C87.2979 36.4849 87.4591 36.5387 87.5397 36.673C87.6203 36.8073 87.5666 36.9686 87.4323 37.0492L84.7185 38.6076C84.6648 38.6076 84.611 38.6344 84.5841 38.6344ZM89.9848 35.5176C89.9042 35.5176 89.7967 35.4639 89.743 35.3833C89.6624 35.2489 89.7161 35.0877 89.8505 35.0071L92.5642 33.4487C92.6986 33.3681 92.8598 33.4219 92.9404 33.5562C93.021 33.6905 92.9673 33.8518 92.8329 33.9324L90.1192 35.4908C90.0654 35.4908 90.0385 35.5176 89.9848 35.5176ZM95.3855 32.374C95.3049 32.374 95.1974 32.3202 95.1436 32.2396C95.063 32.1053 95.1168 31.9441 95.2511 31.8635L97.9649 30.3051C98.0992 30.2244 98.2604 30.2782 98.3411 30.4125C98.4217 30.5469 98.3679 30.7081 98.2336 30.7887L95.5198 32.3471C95.4661 32.374 95.4392 32.374 95.3855 32.374ZM53.443 56.6098C53.3893 56.6098 53.3624 56.6098 53.3087 56.5829L51.9115 55.7768C51.7772 55.6962 51.7503 55.535 51.804 55.4007C51.8846 55.2663 52.0458 55.2394 52.1802 55.2932L53.443 56.0186L54.7059 55.2932C54.8402 55.2126 55.0014 55.2663 55.082 55.4007C55.1626 55.535 55.1089 55.6962 54.9746 55.7768L53.5774 56.5829C53.5505 56.5829 53.4968 56.6098 53.443 56.6098ZM22.1676 37.7746L19.4269 36.1894C19.2926 36.1087 19.1314 36.1625 19.0508 36.2968C18.9702 36.4312 19.0239 36.5924 19.1582 36.673L21.8989 38.2583C21.9526 38.2851 21.9795 38.2851 22.0332 38.2851C22.1138 38.2851 22.2213 38.2314 22.275 38.1508C22.3288 38.0164 22.3019 37.8284 22.1676 37.7746ZM16.7132 34.5772L13.9725 32.9919C13.8382 32.9113 13.677 32.9651 13.5964 33.0994C13.5158 33.2338 13.5695 33.395 13.7039 33.4756L16.4445 35.0609C16.4982 35.0877 16.5251 35.0877 16.5788 35.0877C16.6594 35.0877 16.7669 35.034 16.8207 34.9534C16.8744 34.819 16.8475 34.6578 16.7132 34.5772ZM49.4664 53.681L46.7258 52.0958C46.5914 52.0152 46.4302 52.0689 46.3496 52.2032C46.269 52.3376 46.3228 52.4988 46.4571 52.5794L49.1977 54.1647C49.2515 54.1916 49.2783 54.1915 49.3321 54.1915C49.4127 54.1915 49.5202 54.1378 49.5739 54.0572C49.6276 53.9229 49.6008 53.7616 49.4664 53.681ZM44.012 50.5105L41.2714 48.9252C41.1371 48.8446 40.9758 48.8984 40.8952 49.0327C40.8146 49.1671 40.8684 49.3283 41.0027 49.4089L43.7433 50.9941C43.7971 51.021 43.8239 51.021 43.8777 51.021C43.9583 51.021 44.0658 50.9673 44.1195 50.8867C44.1732 50.7523 44.1195 50.5911 44.012 50.5105ZM38.5576 47.3131L36.3544 46.0234C36.22 46.1577 36.0588 46.2652 35.8976 46.3727L38.2889 47.7699C38.3427 47.7967 38.3695 47.7967 38.4233 47.7967C38.5039 47.7967 38.6114 47.743 38.6651 47.6624C38.7188 47.5549 38.6651 47.3937 38.5576 47.3131Z" fill="#325FEC"/>
<path d="M34.0708 32.5353L37.94 30.2783L48.5532 36.4313L34.7694 44.492C33.2379 45.3787 31.9751 47.5551 31.9751 49.3284L32.0288 78.9111C32.0288 79.7978 32.3512 80.4158 32.8349 80.7113L22.2216 74.5583C21.7111 74.2628 21.4156 73.6448 21.4156 72.7581L21.3618 43.1754C21.3618 41.4021 22.5978 39.2257 24.1562 38.339L28.9389 35.5446" fill="#325FEC"/>
<path d="M38.7145 75.633L40.9715 76.9495L34.7916 80.5231C33.2601 81.4098 31.9973 80.6843 31.9973 78.911V71.6832V70.6353V67.0886V66.0407L31.9704 49.3014C31.9704 47.528 33.2064 45.3517 34.7648 44.465L48.5485 36.4043V39.0375L34.7648 47.0981C34.4692 47.2593 34.2543 47.6624 34.2543 47.9848L34.2811 67.4111V68.459V72.0057V73.0535V77.6213C34.2811 77.9437 34.4961 78.078 34.7916 77.9168L38.7145 75.633Z" fill="white"/>
<path d="M110.857 29.8216C110.83 29.8216 110.83 29.8216 110.857 29.8216L78.8292 11.1477C78.6949 11.0671 78.5336 11.1209 78.453 11.2552C78.3724 11.3895 78.4262 11.5508 78.5605 11.6314L108.519 29.123C106.585 28.935 104.597 29.6336 102.904 30.6008L53.4649 59.1357L34.4954 48.0657V48.0119C34.4954 47.797 34.6567 47.4745 34.8716 47.3671L48.6554 39.3064C48.736 39.2526 48.7897 39.172 48.7897 39.0646V36.4314C48.7897 36.3239 48.736 36.2433 48.6554 36.1896L38.0421 30.0366C37.9615 29.9829 37.8541 29.9829 37.7734 30.0366L33.9043 32.2936C33.77 32.3742 33.7431 32.5354 33.7968 32.6698C33.8775 32.8041 34.0387 32.831 34.173 32.7772L37.9078 30.6008L47.9837 36.4583L34.6029 44.2771C32.9908 45.2175 31.6742 47.4745 31.6742 49.3285C31.6742 50.5107 31.7279 78.535 31.7279 78.9112C31.7279 79.2068 31.7817 79.5561 31.8623 79.8248L22.3507 74.2897C21.9208 74.0479 21.6789 73.4837 21.6789 72.7313L21.6252 43.1486C21.6252 41.4828 22.7806 39.4139 24.2852 38.5541L29.0679 35.7597C29.2023 35.6791 29.2291 35.5179 29.1754 35.3835C29.0948 35.2492 28.9336 35.2223 28.7992 35.276L23.9897 38.1241C23.0761 38.6347 22.2701 39.5751 21.7327 40.6498C19.3682 39.2795 7.25032 32.1861 4.88586 30.8158L54.056 2.41531C56.8773 0.776308 59.5104 0.534488 61.4719 1.66298L72.4881 8.08466C72.6225 8.16527 72.7837 8.11153 72.8643 7.97719C72.9449 7.84284 72.8912 7.68163 72.7568 7.60102L61.7406 1.17934C59.591 -0.0566286 56.7698 0.185193 53.7873 1.93167L4.21413 30.574C4.13353 30.6277 4.07979 30.7083 4.07979 30.8158C4.07979 31.2726 4.07979 29.123 4.10666 35.4104C4.10666 35.5179 4.1604 35.5985 4.241 35.6522L6.9279 37.2106C7.06224 37.2912 7.22346 37.2375 7.30406 37.1031C7.38467 36.9688 7.33093 36.8076 7.19659 36.727L4.64404 35.2223V31.2726C8.16387 33.3146 18.4009 39.3064 21.5177 41.1335C21.2222 41.8052 21.061 42.5307 21.061 43.1755V44.8145L10.4477 38.6347C10.3134 38.5541 10.1522 38.6078 10.0716 38.7421C9.99096 38.8765 10.0447 39.0377 10.179 39.1183L21.061 45.4594L21.0878 60.506L17.4874 58.4102L4.96646 51.1019L10.1522 48.0657V47.4477L4.29474 50.8332C4.21413 50.8869 4.1604 50.9675 4.1604 51.075V55.6427C4.1604 55.7502 4.21413 55.8308 4.29474 55.8845L21.1147 65.6917V72.7851C21.1147 73.7255 21.464 74.451 22.0551 74.8003L32.6684 80.9532C33.3669 81.3563 34.2267 81.1682 34.9253 80.7652L40.9709 77.2722L53.3574 84.5C53.4112 84.5268 53.438 84.5268 53.4918 84.5268C53.5455 84.5268 53.5724 84.5268 53.6261 84.5L63.0034 79.0724C63.1377 78.7231 63.3258 78.4007 63.5676 78.132L53.7873 83.8014V83.5595V79.8516L103.226 51.2899C107.068 49.0867 110.185 43.686 110.158 39.2795C110.158 37.1031 109.406 35.4641 108.009 34.6581C106.639 33.852 104.811 34.0401 102.904 35.1417L53.7336 63.5422V63.3004V59.5924L103.172 31.0576C103.172 31.0576 103.199 31.0576 103.199 31.0307C105.483 29.7142 108.278 28.9618 110.561 30.3053C112.496 31.4338 113.598 33.7982 113.598 36.9957C113.598 41.6709 111.341 47.0446 108.009 51.0481C108.197 51.0212 108.412 50.9944 108.6 50.9944C108.654 50.9944 108.681 50.9944 108.734 50.9944C111.985 46.9372 114.162 41.6171 114.135 36.9957C114.135 33.6102 112.953 31.0576 110.857 29.8216ZM4.69777 55.4815V51.5318L21.1147 61.0971V65.0468L4.69777 55.4815ZM53.1694 59.5924V62.4405V63.5422L34.4954 52.6334V48.6836L53.1694 59.5924ZM34.6567 80.3084C33.2863 81.0876 32.2653 80.4965 32.2653 78.9381C32.2653 75.9288 32.2384 52.3378 32.2116 49.3554C32.2116 47.6626 33.3938 45.5937 34.8716 44.7608L48.2523 36.9419V38.9571L34.6029 46.9103C34.2267 47.1252 33.9581 47.6089 33.9581 48.0119L34.0118 77.5946C34.0118 77.8364 34.1193 78.0514 34.3074 78.1589C34.4954 78.2664 34.7104 78.2395 34.9253 78.132L38.7139 75.9556L40.4603 76.9766L34.6567 80.3084ZM34.5492 73.5106L38.1765 75.6332L34.6567 77.6752C34.6029 77.7021 34.576 77.7021 34.576 77.7021C34.576 77.7021 34.5492 77.6752 34.5492 77.5946V73.5106ZM34.5492 72.8926V68.9428L53.25 79.8516V82.5923V83.8014C39.4393 75.7675 39.1438 75.5795 34.5492 72.8926ZM103.172 35.6253C104.919 34.6312 106.531 34.4431 107.74 35.1417C108.949 35.8403 109.594 37.2912 109.621 39.2795C109.621 43.5248 106.639 48.6836 102.958 50.8332L53.5187 79.3949L34.5492 68.3248L34.5223 53.2782L53.3306 64.2408C53.3574 64.2408 53.3574 64.2676 53.3843 64.2676C53.4112 64.2676 53.438 64.2676 53.438 64.2676C53.4649 64.2676 53.4918 64.2676 53.4918 64.2676C53.5187 64.2676 53.5455 64.2408 53.5455 64.2408L103.172 35.6253Z" fill="#325FEC"/>
<path d="M40.2479 34.9531C41.6719 35.786 41.6719 37.1026 40.2747 37.9355C38.8507 38.7685 36.5668 38.7685 35.1428 37.9355C33.7187 37.1026 33.7187 35.786 35.1159 34.9531C36.54 34.1201 38.8238 34.1201 40.2479 34.9531Z" fill="white"/>
<path d="M35.009 38.1776C33.3968 37.2372 33.3968 35.6519 34.9821 34.7384C36.4599 33.8786 38.905 33.8786 40.3828 34.7384C41.9949 35.6519 41.9949 37.264 40.4096 38.1776C38.905 39.0374 36.4868 39.0374 35.009 38.1776ZM35.2508 35.1951C34.0148 35.9206 34.0148 36.9954 35.2777 37.7208C36.6211 38.5 38.8244 38.5 40.1409 37.7208C41.3769 36.9954 41.3769 35.9206 40.1141 35.1951C38.7706 34.4159 36.5942 34.4159 35.2508 35.1951Z" fill="#040404"/>
<path opacity="0.4" d="M124.563 65.0464C130.34 68.3782 130.367 73.7788 124.644 77.1106C118.921 80.4423 109.57 80.4423 103.794 77.1106C98.0167 73.7788 97.9899 68.3782 103.74 65.0464C109.463 61.7147 118.786 61.7147 124.563 65.0464Z" fill="#325FEC"/>
<path d="M121.445 65.2613V69.3185C121.445 71.4949 120.021 73.6444 117.172 75.3103C111.449 78.642 102.099 78.642 96.3222 75.3103C93.4203 73.6444 91.9694 71.4411 91.9694 69.2379V65.1807C91.9694 67.3839 93.4203 69.5872 96.3222 71.253C102.099 74.5848 111.423 74.5848 117.172 71.253C120.021 69.614 121.445 67.4377 121.445 65.2613Z" fill="white"/>
<path d="M96.2168 75.4986C96.0556 75.4986 95.9481 75.3911 95.9481 75.2299V73.1879C95.9481 73.0267 96.0556 72.9192 96.2168 72.9192C96.378 72.9192 96.4855 73.0267 96.4855 73.1879V75.2299C96.4855 75.3911 96.3512 75.4986 96.2168 75.4986Z" fill="#040404"/>
<path d="M117.092 59.1892C122.869 62.521 122.896 67.9216 117.173 71.2534C111.449 74.5851 102.099 74.5851 96.3223 71.2534C90.5455 67.9216 90.5186 62.521 96.2685 59.1892C101.992 55.8575 111.315 55.8575 117.092 59.1892Z" fill="white"/>
<path d="M121.095 70.1255C120.8 71.872 119.537 73.4841 117.468 74.8007V73.2423C117.468 73.0811 117.36 72.9736 117.199 72.9736C117.038 72.9736 116.93 73.0811 116.93 73.2423V75.1231C115.533 75.9292 113.921 76.5203 112.201 76.9233V75.2306C112.201 75.0694 112.094 74.9619 111.933 74.9619C111.772 74.9619 111.664 75.0694 111.664 75.2306V77.0308C110.133 77.3532 108.547 77.5145 106.935 77.5145V75.768C106.935 75.6068 106.828 75.4993 106.666 75.4993C106.505 75.4993 106.398 75.6068 106.398 75.768V77.5145C104.786 77.4876 103.2 77.3264 101.669 77.0039V75.2037C101.669 75.0425 101.561 74.935 101.4 74.935C101.239 74.935 101.131 75.0425 101.131 75.2037V76.8965C99.7611 76.574 98.4446 76.1173 97.2623 75.5261V76.1173C103.012 78.831 111.691 78.7504 117.253 75.5261C119.779 74.0752 121.283 72.1675 121.606 70.1255H121.095Z" fill="#040404"/>
<path d="M117.764 71.2263C117.818 71.1994 117.872 71.1725 117.899 71.1457C117.737 71.1725 117.549 71.1994 117.361 71.1994C117.173 71.1994 117.012 71.1725 116.851 71.1457C116.824 71.1725 116.797 71.1725 116.743 71.1994C107.554 76.2776 92.2388 72.4085 92.2388 65.2345C92.2388 63.0581 93.7166 61.0161 96.3766 59.4577C97.1558 59.0009 97.9887 58.6247 98.9023 58.3023C98.9023 58.1142 98.9291 57.8993 98.956 57.7112C97.935 58.0605 96.9677 58.4904 96.1079 59.0009C93.2598 60.6399 91.7014 62.87 91.7014 65.2345V69.2917C91.7014 69.5067 91.7283 69.7216 91.7551 69.9366C91.9701 69.9903 92.1582 70.0709 92.3462 70.1784C92.2925 69.8828 92.2656 69.5873 92.2656 69.2917V67.6258C93.0448 69.3186 94.6032 70.6351 96.2154 71.5487C102.207 74.961 112.041 74.8536 117.764 71.2263Z" fill="#040404"/>
<path d="M106.775 72.0597C103.121 72.0597 99.7353 71.2536 97.1827 69.7759C94.9526 68.4861 93.6898 66.8203 93.6898 65.1813C93.6898 63.5423 94.8989 61.9301 97.129 60.6404C97.2633 60.5598 97.4245 60.6135 97.5052 60.7479C97.5858 60.8822 97.532 61.0434 97.3977 61.1241C95.3556 62.3063 94.2271 63.7572 94.2271 65.2081C94.2271 66.6322 95.4094 68.1369 97.4514 69.3191C99.8965 70.7431 103.228 71.5223 106.775 71.5223C108.092 71.5223 109.408 71.4149 110.644 71.1999C110.778 71.173 110.94 71.2805 110.966 71.4149C110.993 71.5492 110.886 71.7104 110.752 71.7373C109.462 71.9522 108.118 72.0597 106.775 72.0597Z" fill="#325FEC"/>
<path d="M128.189 58.9209V62.9781C128.189 65.1545 126.765 67.304 123.917 68.9699C118.194 72.3017 108.844 72.3017 103.067 68.9699C100.165 67.304 98.7141 65.1008 98.7141 62.8975V58.8403C98.7141 61.0436 100.165 63.2468 103.067 64.9127C108.844 68.2445 118.167 68.2445 123.917 64.9127C126.765 63.2468 128.189 61.0973 128.189 58.9209Z" fill="white"/>
<path d="M113.491 71.71C109.676 71.71 105.833 70.877 102.931 69.1843C100.03 67.5184 98.4444 65.2614 98.4444 62.8701V58.8666V58.8397C98.4444 58.6785 98.5518 58.571 98.7131 58.571C98.8743 58.571 98.9817 58.6785 98.9817 58.8397V58.8666C98.9817 61.043 100.486 63.1119 103.2 64.6703C108.896 67.9483 118.112 67.9483 123.782 64.6703C126.442 63.1119 127.92 61.0699 127.92 58.9203C127.92 58.7591 128.027 58.6516 128.188 58.6516C128.35 58.6516 128.457 58.7591 128.457 58.9203V62.9776C128.457 65.342 126.872 67.5453 124.05 69.2112C121.149 70.877 117.333 71.71 113.491 71.71ZM98.9817 61.2042V62.8701C98.9817 65.0733 100.46 67.1422 103.2 68.7006C108.896 71.9786 118.112 71.9786 123.782 68.7006C126.442 67.1422 127.92 65.1002 127.92 62.9507V61.2579C127.248 62.7089 125.904 64.0523 124.05 65.1271C118.247 68.4857 108.789 68.4857 102.931 65.1271C101.024 64.0254 99.6803 62.682 98.9817 61.2042Z" fill="#040404"/>
<path d="M123.971 69.1851C123.809 69.1851 123.702 69.0777 123.702 68.9165V66.8744C123.702 66.7132 123.809 66.6057 123.971 66.6057C124.132 66.6057 124.239 66.7132 124.239 66.8744V68.9165C124.239 69.0777 124.105 69.1851 123.971 69.1851ZM118.704 71.1734C118.543 71.1734 118.436 71.066 118.436 70.9048V68.8627C118.436 68.7015 118.543 68.594 118.704 68.594C118.866 68.594 118.973 68.7015 118.973 68.8627V70.9048C118.973 71.0391 118.866 71.1734 118.704 71.1734ZM113.465 71.7108C113.304 71.7108 113.196 71.6034 113.196 71.4421V69.4001C113.196 69.2389 113.304 69.1314 113.465 69.1314C113.626 69.1314 113.734 69.2389 113.734 69.4001V71.4421C113.734 71.6034 113.599 71.7108 113.465 71.7108ZM108.199 71.1466C108.037 71.1466 107.93 71.0391 107.93 70.8779V68.8358C107.93 68.6746 108.037 68.5672 108.199 68.5672C108.36 68.5672 108.467 68.6746 108.467 68.8358V70.8779C108.467 71.0391 108.333 71.1466 108.199 71.1466ZM102.932 69.1583C102.771 69.1583 102.664 69.0508 102.664 68.8896V66.8475C102.664 66.6863 102.771 66.5789 102.932 66.5789C103.094 66.5789 103.201 66.6863 103.201 66.8475V68.8896C103.201 69.0239 103.094 69.1583 102.932 69.1583Z" fill="#040404"/>
<path d="M123.835 52.848C129.612 56.1798 129.639 61.5804 123.916 64.9122C118.192 68.2439 108.842 68.2439 103.065 64.9122C97.2884 61.5804 97.2616 56.1798 103.012 52.848C108.735 49.5163 118.058 49.4894 123.835 52.848Z" fill="white"/>
<path d="M113.491 67.6797C109.675 67.6797 105.833 66.8467 102.931 65.154C100.056 63.4881 98.4443 61.258 98.4443 58.8667C98.4443 56.5022 100.003 54.2721 102.851 52.6062C108.654 49.2476 118.112 49.2207 123.97 52.6062C126.845 54.2721 128.457 56.5022 128.457 58.8935C128.457 61.258 126.898 63.4881 124.05 65.154C121.149 66.8199 117.333 67.6797 113.491 67.6797ZM113.41 50.591C109.675 50.591 105.968 51.424 103.146 53.063C100.459 54.6214 98.9817 56.6634 99.0085 58.8398C99.0085 61.0162 100.513 63.0851 103.227 64.6704C108.923 67.9484 118.139 67.9484 123.809 64.6704C126.495 63.112 127.946 61.0699 127.946 58.8935C127.946 56.7171 126.442 54.6482 123.728 53.063C120.853 51.424 117.118 50.591 113.41 50.591Z" fill="#325FEC"/>
<path d="M122.922 63.4616C122.841 63.4616 122.733 63.4078 122.68 63.3272C122.599 63.1929 122.653 63.0316 122.787 62.951C124.829 61.7688 125.958 60.3179 125.958 58.867C125.958 57.4429 124.776 55.9382 122.733 54.756C120.288 53.332 116.984 52.5528 113.41 52.5528C113.249 52.5528 113.141 52.4453 113.141 52.2841C113.141 52.1229 113.249 52.0154 113.41 52.0154C117.064 52.0154 120.45 52.8215 123.002 54.2992C125.232 55.589 126.495 57.2548 126.495 58.8938C126.495 60.5328 125.286 62.145 123.056 63.4347C123.002 63.4616 122.975 63.4616 122.922 63.4616Z" fill="#325FEC"/>
<path d="M113.488 65.6913C109.833 65.6913 106.448 64.8852 103.895 63.4074C101.665 62.1177 100.402 60.4519 100.402 58.8129C100.402 57.1738 101.611 55.5617 103.842 54.272C103.976 54.1914 104.137 54.2451 104.218 54.3795C104.298 54.5138 104.245 54.675 104.11 54.7556C102.068 55.9379 100.94 57.3888 100.94 58.8397C100.94 60.2638 102.122 61.7684 104.164 62.9507C106.609 64.3747 109.941 65.1539 113.488 65.1539C114.804 65.1539 116.121 65.0464 117.357 64.8315C117.491 64.8046 117.652 64.9121 117.679 65.0465C117.706 65.1808 117.598 65.342 117.464 65.3689C116.201 65.5838 114.858 65.6913 113.488 65.6913Z" fill="#325FEC"/>
<path d="M113.466 61.8763C113.547 61.8226 113.627 61.7957 113.735 61.7689C114.648 61.5539 115.481 61.2584 116.207 60.8822L113.52 59.3238C112.848 59.5387 112.23 59.7268 111.719 59.8343C111.182 59.9418 110.645 59.9955 110.107 59.9686C109.57 59.9418 109.059 59.7806 108.603 59.5119C108.2 59.2701 107.931 59.0014 107.77 58.6789C107.635 58.3565 107.635 58.0341 107.823 57.6579C107.985 57.3086 108.334 56.9325 108.844 56.5832L108.012 56.0995C107.904 56.0458 107.85 55.9652 107.85 55.8846C107.85 55.804 107.904 55.7234 108.012 55.6696C108.119 55.6159 108.226 55.589 108.388 55.589C108.522 55.589 108.656 55.6159 108.764 55.6696L109.57 56.1264C110.376 55.6965 111.182 55.3741 112.015 55.1591C112.311 55.0785 112.579 55.1054 112.821 55.2397C112.955 55.3203 113.009 55.4009 113.036 55.5084C113.063 55.6159 112.982 55.7234 112.848 55.804C112.794 55.8308 112.714 55.8577 112.606 55.8846C111.881 56.0727 111.209 56.3413 110.564 56.6906L113.358 58.3028C114.057 58.061 114.675 57.8729 115.212 57.7385C115.75 57.6042 116.287 57.5773 116.851 57.6042C117.416 57.6311 117.953 57.7923 118.464 58.0878C118.867 58.3296 119.135 58.5983 119.243 58.9476C119.35 59.2701 119.296 59.6194 119.082 59.9686C118.867 60.3179 118.517 60.6672 118.007 60.9897L118.84 61.4733C118.947 61.5271 119.001 61.6077 119.001 61.6883C119.001 61.7689 118.947 61.8226 118.84 61.9032C118.732 61.957 118.625 61.9838 118.49 61.9838C118.356 61.9838 118.249 61.957 118.141 61.9032L117.308 61.4196C116.395 61.8764 115.427 62.2256 114.379 62.4675C114.245 62.4943 114.111 62.4943 113.95 62.4943C113.788 62.4675 113.681 62.4406 113.573 62.3869C113.439 62.3062 113.358 62.2256 113.358 62.1182C113.251 62.0644 113.332 61.957 113.466 61.8763ZM116.932 60.4792C117.953 59.7806 118.061 59.2163 117.254 58.7327C116.959 58.5446 116.583 58.4909 116.126 58.5715C115.669 58.6252 115.105 58.7864 114.406 59.0014L116.932 60.4792ZM109.839 57.2012C109.436 57.4967 109.194 57.8191 109.14 58.1147C109.086 58.4103 109.221 58.6521 109.597 58.867C109.946 59.0551 110.349 59.1357 110.779 59.1088C111.236 59.0551 111.773 58.9476 112.418 58.7058L109.839 57.2012Z" fill="#325FEC"/>
<path opacity="0.4" d="M93.8002 82.8064C99.577 86.1382 99.6039 91.5388 93.8808 94.8706C88.1577 98.2023 78.8073 98.2023 73.0305 94.8706C67.2537 91.5388 67.2268 86.1382 72.9768 82.8064C78.6998 79.4747 88.0234 79.4747 93.8002 82.8064Z" fill="#325FEC"/>
<path d="M90.6833 83.0215V87.0787C90.6833 89.2551 89.2592 91.4046 86.4111 93.0705C80.688 96.4023 71.3376 96.4023 65.5608 93.0705C62.659 91.4046 61.208 89.2014 61.208 86.9981V82.9409C61.208 85.1442 62.659 87.3474 65.5608 89.0133C71.3376 92.3451 80.6612 92.3451 86.4111 89.0133C89.2592 87.3743 90.6833 85.1979 90.6833 83.0215Z" fill="white"/>
<path d="M86.4635 93.3124C86.3023 93.3124 86.1948 93.2049 86.1948 93.0437V91.0016C86.1948 90.8404 86.3023 90.7329 86.4635 90.7329C86.6247 90.7329 86.7322 90.8404 86.7322 91.0016V93.0437C86.7322 93.178 86.6247 93.3124 86.4635 93.3124ZM81.2241 95.2738C81.0629 95.2738 80.9554 95.1663 80.9554 95.0051V92.9631C80.9554 92.8018 81.0629 92.6944 81.2241 92.6944C81.3853 92.6944 81.4928 92.8018 81.4928 92.9631V95.0051C81.4928 95.1663 81.3584 95.2738 81.2241 95.2738ZM75.9578 95.838C75.7966 95.838 75.6891 95.7306 75.6891 95.5693V93.5273C75.6891 93.3661 75.7966 93.2586 75.9578 93.2586C76.119 93.2586 76.2265 93.3661 76.2265 93.5273V95.5693C76.2265 95.7037 76.0921 95.838 75.9578 95.838ZM70.6915 95.2738C70.5302 95.2738 70.4228 95.1663 70.4228 95.0051V92.9631C70.4228 92.8018 70.5302 92.6944 70.6915 92.6944C70.8527 92.6944 70.9601 92.8018 70.9601 92.9631V95.0051C70.9601 95.1394 70.8527 95.2738 70.6915 95.2738ZM65.452 93.2586C65.2908 93.2586 65.1833 93.1511 65.1833 92.9899V90.9479C65.1833 90.7867 65.2908 90.6792 65.452 90.6792C65.6132 90.6792 65.7207 90.7867 65.7207 90.9479V92.9899C65.7207 93.1511 65.5864 93.2586 65.452 93.2586Z" fill="#040404"/>
<path d="M86.3317 76.949C92.1085 80.2808 92.1354 85.6814 86.4123 89.0132C80.6892 92.3449 71.3388 92.3449 65.562 89.0132C59.7851 85.6814 59.7583 80.2808 65.5082 76.949C71.2313 73.6173 80.5817 73.6173 86.3317 76.949Z" fill="white"/>
<path d="M90.3613 87.858C90.0389 89.7389 88.6149 91.4853 86.2773 92.8288C80.6348 96.1068 71.3919 96.1068 65.6956 92.8288C62.9819 91.2435 61.4772 89.1746 61.4772 86.9982V85.3323C62.955 88.5297 66.9854 90.3837 70.4246 91.1629C75.7984 92.3989 82.1932 91.7809 86.5191 89.2552C86.6803 89.1477 86.8415 89.0671 87.0027 88.9597C87.0296 88.9328 87.0833 88.9059 87.1102 88.879C87.1639 88.8522 87.2177 88.8253 87.2445 88.7984C87.0027 88.879 86.7609 88.9059 86.4922 88.879H86.4653C86.331 88.879 86.2235 88.879 86.0892 88.8522C86.0086 88.879 85.9548 88.9328 85.8742 88.9597C81.4408 91.3779 75.261 91.754 70.3977 90.5987C66.3942 89.6582 61.4504 87.0788 61.4504 82.941C61.4504 80.7646 62.9281 78.7226 65.5882 77.1642C66.3136 76.7343 67.1197 76.3581 67.9526 76.0626C67.9526 75.8476 67.9795 75.6595 68.0332 75.4714C67.066 75.8207 66.1524 76.2238 65.2926 76.7074C62.4445 78.3464 60.8861 80.5765 60.8861 82.941V82.9679V86.9982C60.8861 89.3896 62.4714 91.6465 65.3732 93.3124C68.3019 95.0052 72.1173 95.8381 75.9327 95.8381C79.7481 95.8381 83.5635 95.0052 86.4653 93.3124C88.991 91.8346 90.4957 89.9269 90.8181 87.8849H90.3613V87.858Z" fill="#040404"/>
<path d="M76.0148 89.819C72.3607 89.819 68.9752 89.0129 66.4226 87.5351C64.1925 86.2454 62.9297 84.5795 62.9297 82.9405C62.9297 81.3015 64.1388 79.6894 66.3689 78.3997C66.5032 78.3191 66.6644 78.3728 66.7451 78.5072C66.8257 78.6415 66.7719 78.8027 66.6376 78.8833C64.5955 80.0656 63.467 81.5165 63.467 82.9674C63.467 84.3915 64.6493 85.8961 66.6913 87.0784C69.1364 88.5024 72.4681 89.2816 76.0148 89.2816C77.3314 89.2816 78.648 89.1741 79.884 88.9592C80.0183 88.9323 80.1795 89.0398 80.2064 89.1741C80.2333 89.3085 80.1258 89.4697 79.9914 89.4966C78.7017 89.7115 77.3583 89.819 76.0148 89.819Z" fill="#325FEC"/>
<path d="M97.4218 76.6805V80.7377C97.4218 82.9141 95.9977 85.0636 93.1496 86.7294C87.4265 90.0612 78.0761 90.0612 72.2993 86.7294C69.3975 85.0636 67.9465 82.8603 67.9465 80.6571V76.5999C67.9465 78.8031 69.3975 81.0064 72.2993 82.6722C78.0761 86.004 87.3997 86.004 93.1496 82.6722C95.9977 81.0064 97.4218 78.8568 97.4218 76.6805Z" fill="white"/>
<path d="M82.7251 89.47C78.9097 89.47 75.0675 88.637 72.1656 86.9443C69.2638 85.2784 67.6785 83.0214 67.6785 80.6301V76.6266V76.5997C67.6785 76.4385 67.786 76.3311 67.9472 76.3311C68.1084 76.3311 68.2159 76.4385 68.2159 76.5997V76.6266C68.2159 78.803 69.7206 80.8719 72.4343 82.4303C78.1305 85.7083 87.3466 85.7083 93.0159 82.4303C95.676 80.8719 97.1538 78.8299 97.1538 76.6803C97.1538 76.5191 97.2612 76.4117 97.4224 76.4117C97.5837 76.4117 97.6911 76.5191 97.6911 76.6803V80.7376C97.6911 83.102 96.1059 85.3053 93.2846 86.9712C90.3828 88.637 86.5674 89.47 82.7251 89.47ZM68.2159 78.9642V80.6301C68.2159 82.8333 69.6937 84.9022 72.4343 86.4606C78.1305 89.7387 87.3466 89.7387 93.0159 86.4606C95.676 84.9022 97.1538 82.8602 97.1538 80.7107V79.0179C96.482 80.4689 95.1386 81.8123 93.2846 82.8871C87.4809 86.2457 78.0231 86.2457 72.1656 82.8871C70.2579 81.7854 68.9145 80.442 68.2159 78.9642Z" fill="#040404"/>
<path d="M93.2055 86.9444C93.0443 86.9444 92.9368 86.837 92.9368 86.6757V84.6337C92.9368 84.4725 93.0443 84.365 93.2055 84.365C93.3667 84.365 93.4742 84.4725 93.4742 84.6337V86.6757C93.4742 86.837 93.3398 86.9444 93.2055 86.9444ZM87.9392 88.9327C87.7779 88.9327 87.6705 88.8253 87.6705 88.664V86.622C87.6705 86.4608 87.7779 86.3533 87.9392 86.3533C88.1004 86.3533 88.2078 86.4608 88.2078 86.622V88.664C88.2078 88.7984 88.1004 88.9327 87.9392 88.9327ZM82.6997 89.4701C82.5385 89.4701 82.431 89.3626 82.431 89.2014V87.1594C82.431 86.9982 82.5385 86.8907 82.6997 86.8907C82.8609 86.8907 82.9684 86.9982 82.9684 87.1594V89.2014C82.9684 89.3626 82.8341 89.4701 82.6997 89.4701ZM77.4334 88.9059C77.2722 88.9059 77.1647 88.7984 77.1647 88.6372V86.5951C77.1647 86.4339 77.2722 86.3264 77.4334 86.3264C77.5946 86.3264 77.7021 86.4339 77.7021 86.5951V88.6372C77.7021 88.7984 77.5946 88.9059 77.4334 88.9059ZM72.194 86.9176C72.0327 86.9176 71.9253 86.8101 71.9253 86.6489V84.6068C71.9253 84.4456 72.0327 84.3381 72.194 84.3381C72.3552 84.3381 72.4626 84.4456 72.4626 84.6068V86.6489C72.4626 86.7832 72.3283 86.9176 72.194 86.9176Z" fill="#040404"/>
<path d="M93.0682 70.6083C98.845 73.94 98.8719 79.3407 93.1488 82.6724C87.4257 86.0042 78.0753 86.0042 72.2985 82.6724C66.5216 79.3407 66.4948 73.94 72.2447 70.6083C77.9678 67.2765 87.2913 67.2496 93.0682 70.6083Z" fill="white"/>
<path d="M82.7242 85.4396C78.9088 85.4396 75.0665 84.6067 72.1647 82.9139C69.2897 81.2481 67.6776 79.0179 67.6776 76.6266C67.6776 74.2621 69.236 72.032 72.0841 70.3661C77.8878 67.0075 87.3457 67.0075 93.2031 70.3661C96.0781 72.032 97.6902 74.2621 97.6902 76.6535C97.6902 79.0179 96.1318 81.2481 93.2837 82.9139C90.3818 84.5798 86.5665 85.4396 82.7242 85.4396ZM82.6436 68.351C78.9088 68.351 75.2009 69.1839 72.3796 70.8229C69.6928 72.3813 68.215 74.4233 68.2418 76.5997C68.2418 78.7761 69.7465 80.845 72.4603 82.4303C78.1565 85.7083 87.3725 85.7083 93.0419 82.4303C95.7288 80.8719 97.1797 78.8298 97.1797 76.6535C97.1797 74.4771 95.675 72.4082 92.9613 70.8229C90.0863 69.1839 86.3784 68.351 82.6436 68.351Z" fill="#325FEC"/>
<path d="M92.1548 81.2213C92.0742 81.2213 91.9667 81.1676 91.913 81.087C91.8324 80.9526 91.8861 80.7914 92.0204 80.7108C94.0625 79.5286 95.191 78.0777 95.191 76.6267C95.191 75.2027 94.0087 73.698 91.9667 72.5158C89.5216 71.0917 86.2167 70.3125 82.6432 70.3125C82.482 70.3125 82.3745 70.205 82.3745 70.0438C82.3745 69.8826 82.482 69.7751 82.6432 69.7751C86.2973 69.7751 89.6828 70.5812 92.2354 72.059C94.4655 73.3487 95.7284 75.0146 95.7284 76.6536C95.7284 78.2926 94.5193 79.9047 92.2891 81.1945C92.2354 81.2213 92.2085 81.2213 92.1548 81.2213Z" fill="#325FEC"/>
<path d="M82.7217 83.4513C79.0675 83.4513 75.682 82.6452 73.1294 81.1675C70.8993 79.8777 69.6365 78.2119 69.6365 76.5729C69.6365 74.9339 70.8456 73.3217 73.0757 72.032C73.21 71.9514 73.3713 72.0051 73.4519 72.1395C73.5325 72.2738 73.4787 72.435 73.3444 72.5157C71.3024 73.6979 70.1739 75.1488 70.1739 76.5997C70.1739 78.0238 71.3561 79.5284 73.3981 80.7107C75.8432 82.1347 79.175 82.9139 82.7217 82.9139C84.0382 82.9139 85.3548 82.8065 86.5908 82.5915C86.7251 82.5646 86.8863 82.6721 86.9132 82.8065C86.9401 82.9408 86.8326 83.102 86.6983 83.1289C85.4354 83.3438 84.092 83.4513 82.7217 83.4513Z" fill="#325FEC"/>
<path d="M82.7012 79.6359C82.7818 79.5821 82.8624 79.5553 82.9699 79.5284C83.8834 79.3134 84.7164 79.0179 85.4418 78.6417L82.7549 77.0833C82.0832 77.2983 81.4652 77.4864 80.9547 77.5938C80.4173 77.7013 79.8799 77.755 79.3426 77.7282C78.8052 77.7013 78.2947 77.5401 77.8379 77.2714C77.4349 77.0296 77.1662 76.7609 77.005 76.4385C76.8437 76.116 76.8706 75.7936 77.0587 75.4174C77.2199 75.0681 77.5692 74.692 78.0797 74.3427L77.2468 73.859C77.1393 73.8053 77.0856 73.7247 77.0856 73.6441C77.0856 73.5635 77.1393 73.4829 77.2468 73.4291C77.3543 73.3754 77.4617 73.3485 77.623 73.3485C77.7573 73.3485 77.8916 73.3754 77.9991 73.4291L78.8052 73.8859C79.6113 73.456 80.4173 73.1336 81.2503 72.9186C81.5458 72.838 81.8145 72.8649 82.0563 72.9992C82.1907 73.0798 82.2444 73.1605 82.2713 73.2679C82.2981 73.3754 82.2175 73.4829 82.0832 73.5635C82.0295 73.5904 81.9489 73.6172 81.8414 73.6441C81.1159 73.8322 80.4442 74.1009 79.7993 74.4502L82.5937 76.0623C83.2923 75.8205 83.9103 75.6324 84.4477 75.4981C84.985 75.3637 85.5224 75.3368 86.0867 75.3637C86.6509 75.3906 87.1883 75.5518 87.6988 75.8473C88.1018 76.0892 88.3705 76.3579 88.478 76.7072C88.5855 77.0296 88.5317 77.3789 88.3168 77.7282C88.1018 78.0775 87.7525 78.4268 87.242 78.7492L88.075 79.2328C88.1824 79.2866 88.2362 79.3672 88.2362 79.4478C88.2362 79.5284 88.1824 79.5821 88.075 79.6627C87.9675 79.7165 87.86 79.7433 87.7257 79.7433C87.5913 79.7433 87.4839 79.7165 87.3764 79.6627L86.4628 79.2328C85.5493 79.6896 84.582 80.0389 83.5341 80.2807C83.3998 80.3076 83.2654 80.3076 83.1042 80.3076C82.943 80.2807 82.8355 80.2539 82.7281 80.2001C82.5937 80.1195 82.5131 80.0389 82.5131 79.9314C82.4862 79.824 82.5668 79.7165 82.7012 79.6359ZM86.1673 78.2387C87.1883 77.5401 87.2958 76.9758 86.4897 76.4922C86.1941 76.3041 85.818 76.2504 85.3612 76.331C84.9044 76.3847 84.3402 76.5459 83.6416 76.7609L86.1673 78.2387ZM79.0739 74.9607C78.6708 75.2562 78.429 75.5787 78.3753 75.8742C78.3215 76.1698 78.4559 76.4116 78.8321 76.6265C79.1814 76.8146 79.5844 76.8952 80.0143 76.8684C80.4711 76.8146 81.0084 76.7072 81.6533 76.4653L79.0739 74.9607Z" fill="#325FEC"/>
</svg>
