<svg width="32" height="32" viewBox="0 0 32 32" fill="none" xmlns="http://www.w3.org/2000/svg">
<path fill-rule="evenodd" clip-rule="evenodd" d="M16 2.47754L20.7213 5.13323L19.7408 6.87639L17 5.33472V9.33322H15V5.33473L12.2593 6.87639L11.2788 5.13324L16 2.47754ZM23.0458 6.44074L28 9.22755V14.6666H26V11.5444L22.5564 13.5326L21.5564 11.8005L24.9804 9.82368L22.0652 8.18388L23.0458 6.44074ZM9.93482 8.18389L7.01961 9.8237L10.4436 11.8005L9.44356 13.5326L6 11.5444V14.6666H4V9.22754L8.9543 6.44074L9.93482 8.18389ZM19.964 14.8659L17 16.5772V19.9999H15V16.5772L12.0358 14.8659L13.0358 13.1339L16 14.8452L18.964 13.1339L19.964 14.8659ZM6 17.3332V20.4553L9.49771 18.436L10.4977 20.1681L7.01961 22.1761L9.93482 23.8159L8.95427 25.5591L4 22.7722V17.3332H6ZM28 17.3332V22.7722L23.0458 25.5591L22.0652 23.8159L24.9804 22.1761L21.5024 20.168L22.5024 18.436L26 20.4554V17.3332H28ZM17 22.604V26.665L19.7408 25.1234L20.7213 26.8666L16 29.5222L11.2788 26.8666L12.2593 25.1234L15 26.665V22.604H17Z" fill="#D7FC51"/>
</svg>
