<svg width="20" height="20" viewBox="0 0 20 20" fill="none" xmlns="http://www.w3.org/2000/svg">
<path fill-rule="evenodd" clip-rule="evenodd" d="M3.96205 7.39245C4.12318 4.183 6.78046 1.6665 10 1.6665C13.2195 1.6665 15.8768 4.183 16.038 7.39246C16.038 7.39239 16.038 7.39252 16.038 7.39246L16.2033 10.6668L17.5 13.1815V14.9998H13.9092C13.6092 16.8893 11.9735 18.3332 10 18.3332C8.02642 18.3332 6.39078 16.8893 6.09081 14.9998H2.5V13.1815L3.79667 10.6668L3.96205 7.39245C3.96206 7.39238 3.96205 7.39252 3.96205 7.39245ZM7.36402 14.9998C7.64596 16.1941 8.71947 17.0832 10 17.0832C11.2805 17.0832 12.354 16.1941 12.636 14.9998H7.36402ZM10 2.9165C7.44271 2.9165 5.33794 4.91459 5.21047 7.4553L5.03146 10.9996L3.75 13.4848V13.7498H16.25V13.4848L14.9685 10.9996L14.7895 7.4555C14.6621 4.9148 12.5573 2.9165 10 2.9165Z" fill="#0D0D0D"/>
</svg>
