<svg width="670" height="591" viewBox="0 0 670 591" fill="none" xmlns="http://www.w3.org/2000/svg">
<path d="M393.794 18.5821L282.405 1L1 162.169M393.794 18.5821L220.847 121.144L352.756 141.657L393.794 118.118M393.794 18.5821V118.118M1 162.169V311.617M1 162.169L53.7634 281.624M100.664 387.806V528.463M100.664 387.806L53.7634 281.624M100.664 387.806L144.634 394.517M100.664 528.463L1 311.617M100.664 528.463L484.664 590M1 311.617L53.7634 281.624M484.664 446.413V590M484.664 446.413L452.42 441.492M484.664 446.413L505.183 493.298L452.42 522.602M484.664 446.413L537.427 415.418M484.664 590L769 425.9M769 425.9V279.383M769 425.9L739.687 361.433M769 279.383L739.687 296.603M769 279.383L739.687 214.915L701.58 236.773M144.634 394.517L182.74 481.577M144.634 394.517L182.74 400.333M182.74 481.577L452.42 522.602M182.74 481.577V400.333M452.42 522.602V441.492M452.42 441.492L436.298 439.031M182.74 400.333L279.473 415.096M537.427 415.418L560.878 461.065M537.427 415.418L560.878 401.642M560.878 461.065L739.687 361.433M560.878 461.065V401.642M739.687 361.433V296.603M739.687 296.603L560.878 401.642M701.58 135.796L666.405 59.607L531.565 39.0945L393.794 118.118M701.58 135.796V236.773M701.58 135.796L666.405 156.895M701.58 236.773L686.924 245.18M666.405 156.895V206.124M666.405 156.895L604.847 193.817M666.405 206.124L686.924 245.18M666.405 206.124L604.847 193.817M686.924 245.18L560.878 317.478L525.702 241.289L604.847 193.817M420.176 302.826L470.008 276.453L505.183 346.781L452.42 376.085L420.176 371.126M420.176 302.826L288.267 281.624M420.176 302.826V371.126M288.267 281.624L250.16 200.264M288.267 281.624V350.346M250.16 200.264L288.267 173.891L244.298 166.565M250.16 200.264V250.08M244.298 166.565L165.153 153.378L115.321 182.682L136.967 229.567M244.298 166.565L136.967 229.567M136.967 229.567L168.378 297.601M250.16 344.978L185.672 335.06L168.378 297.601M250.16 344.978V311.617M250.16 344.978L288.267 350.346M168.378 297.601L250.16 311.617M250.16 311.617V270.592M250.16 270.592L217.916 267.662L250.16 250.08M250.16 270.592V250.08M288.267 350.346L420.176 371.126M279.473 415.096L285.067 425.9L420.176 446.413M279.473 415.096L420.176 436.571M420.176 446.413V436.571M420.176 446.413L436.298 439.031M420.176 436.571L436.298 439.031" stroke="white" stroke-opacity="0.2"/>
</svg>
