<svg width="43" height="49" viewBox="0 0 43 49" fill="none" xmlns="http://www.w3.org/2000/svg">
<path d="M42.3014 12.7423C42.3014 12.3347 42.0848 11.9546 41.7399 11.7542L36.3414 8.6239C36.0032 8.4304 35.5838 8.67917 35.5838 9.07304V23.6535L28.7986 19.7217V4.92004C28.7986 4.51234 28.582 4.13229 28.2303 3.93188L21.6073 0.124383C21.6073 0.124383 21.5938 0.117473 21.587 0.110563C21.4652 0.0414609 21.3299 0 21.1812 0C21.1677 0 21.1608 0 21.1473 0C20.9985 0 20.8497 0.0345506 20.7279 0.103652C20.7144 0.103652 20.7077 0.117473 20.694 0.124383L14.0644 3.96643C13.7194 4.16682 13.5029 4.5469 13.5029 4.95459V19.7561L6.71762 23.6881V9.11451C6.71762 8.72063 6.29819 8.47186 5.95994 8.66535L0.561493 11.7957C0.216479 11.996 0 12.3761 0 12.7838V27.5853V36.1677C0 36.5755 0.216479 36.9487 0.561493 37.156L20.6738 48.8756C20.6738 48.8756 20.6873 48.8826 20.694 48.8895C20.8293 48.9655 20.985 49 21.1473 49C21.2962 49 21.4315 48.9586 21.5464 48.8895C21.5668 48.8756 21.5803 48.8687 21.6005 48.8549L41.7399 37.1283C42.0848 36.9279 42.3014 36.5479 42.3014 36.1402V29.8589V12.7562V12.7423ZM35.5838 32.7335C35.5838 32.9201 35.489 33.0927 35.3267 33.1826L28.7916 36.9901L21.6749 41.1362L21.4991 41.2399C21.3908 41.2882 21.2691 41.316 21.1473 41.316C21.012 41.316 20.8902 41.2882 20.7753 41.233L20.6331 41.15L13.5029 37.0247L6.97468 33.2171C6.8191 33.1274 6.71762 32.9545 6.71762 32.768V29.2023C6.71762 29.0158 6.8191 28.8431 6.97468 28.7532L12.752 25.4087C13.0902 25.2152 13.5029 25.4639 13.5029 25.8578V28.7118C13.5029 28.8569 13.5773 28.9882 13.6991 29.0573L20.1935 32.8371L20.7144 33.1205C20.843 33.1896 20.985 33.231 21.1405 33.231H21.154C21.154 33.231 21.1879 33.231 21.2082 33.231C21.2217 33.231 21.2353 33.231 21.2488 33.231C21.2758 33.231 21.303 33.224 21.3299 33.2171C21.3841 33.2034 21.4382 33.1896 21.4855 33.1688C21.5396 33.148 21.587 33.1205 21.6344 33.0927C21.7967 32.9961 21.9592 32.9062 22.1214 32.8096L28.6159 29.0296C28.7377 28.9605 28.8121 28.8292 28.8121 28.6841V25.8303C28.8121 25.4364 29.2314 25.1875 29.5629 25.381L35.3402 28.7255C35.4958 28.8154 35.5973 28.9882 35.5973 29.1748V32.7404L35.5838 32.7335Z" fill="#325FEC"/>
</svg>
