<svg width="20" height="21" viewBox="0 0 20 21" fill="none" xmlns="http://www.w3.org/2000/svg">
<path fill-rule="evenodd" clip-rule="evenodd" d="M10.2484 9.13261C9.1907 8.07494 7.47592 8.07494 6.41824 9.13261L3.63228 11.9185C3.63228 11.9185 3.63229 11.9185 3.63228 11.9185C2.57462 12.9762 2.57462 14.6911 3.63229 15.7487L3.91821 16.0346C4.97588 17.0923 6.69074 17.0923 7.7484 16.0346L8.3335 15.4498L9.2172 16.3338L8.63229 16.9185C8.63226 16.9186 8.63232 16.9185 8.63229 16.9185C7.08647 18.4642 4.58019 18.4643 3.03439 16.9186C3.03438 16.9185 3.0344 16.9186 3.03439 16.9186L2.74843 16.6326C1.20262 15.0868 1.20257 12.5805 2.7484 11.0346L5.53436 8.24872C5.53436 8.24873 5.53436 8.24872 5.53436 8.24872C7.08017 6.70292 9.58636 6.7029 11.1322 8.24866C11.1322 8.24864 11.1322 8.24868 11.1322 8.24866L11.4182 8.53458C12.0645 9.18097 12.4412 9.99692 12.5468 10.8393L12.6245 11.4594L11.3842 11.6149L11.3065 10.9947C11.2343 10.4182 10.9774 9.86159 10.5343 9.41849L10.2484 9.13261Z" fill="black"/>
<path fill-rule="evenodd" clip-rule="evenodd" d="M11.3677 4.91535C12.9135 3.36952 15.4198 3.36952 16.9656 4.91535L17.2515 5.2013C17.2515 5.20129 17.2515 5.20131 17.2515 5.2013C18.7973 6.74713 18.7974 9.25342 17.2515 10.7992L14.4656 13.5852C12.9198 15.131 10.4135 15.131 8.86765 13.5852L8.58173 13.2992C7.93541 12.6529 7.55871 11.837 7.45318 10.9947L7.37549 10.3745L8.61579 10.2191L8.69349 10.8393C8.76569 11.4156 9.0226 11.9723 9.46562 12.4154L9.75153 12.7013C10.8092 13.7589 12.5241 13.7589 13.5817 12.7013L16.3677 9.91535C17.4253 8.85768 17.4253 7.14286 16.3677 6.08519L16.0817 5.79924C16.0817 5.79923 16.0817 5.79924 16.0817 5.79924C15.0241 4.74159 13.3092 4.74157 12.2515 5.79924L11.6669 6.38415L10.7828 5.50045L11.3677 4.91535Z" fill="black"/>
</svg>
