<svg width="16" height="17" viewBox="0 0 16 17" fill="none" xmlns="http://www.w3.org/2000/svg">
<path fill-rule="evenodd" clip-rule="evenodd" d="M7.99999 2.83325C4.87038 2.83325 2.33333 5.37031 2.33333 8.49992C2.33333 11.6295 4.87038 14.1666 7.99999 14.1666C11.1296 14.1666 13.6667 11.6295 13.6667 8.49992C13.6667 5.37031 11.1296 2.83325 7.99999 2.83325ZM1.33333 8.49992C1.33333 4.81802 4.3181 1.83325 7.99999 1.83325C11.6819 1.83325 14.6667 4.81802 14.6667 8.49992C14.6667 12.1818 11.6819 15.1666 7.99999 15.1666C4.3181 15.1666 1.33333 12.1818 1.33333 8.49992ZM6.66666 7.33325H8.49999V11.8333H7.49999V8.33325H6.66666V7.33325Z" fill="#040404"/>
<path d="M8.41666 5.41675V6.25008H7.58333V5.41675H8.41666Z" fill="#040404"/>
<path fill-rule="evenodd" clip-rule="evenodd" d="M7.5 5.33325H8.5V6.33325H7.5V5.33325ZM7.66667 5.49992V6.16659H8.33333V5.49992H7.66667Z" fill="#040404"/>
</svg>
