<svg width="15" height="14" viewBox="0 0 15 14" fill="none" xmlns="http://www.w3.org/2000/svg">
<path fill-rule="evenodd" clip-rule="evenodd" d="M7.66665 2.04175C4.92824 2.04175 2.70831 4.26167 2.70831 7.00008C2.70831 9.73847 4.92824 11.9584 7.66665 11.9584C10.405 11.9584 12.625 9.73847 12.625 7.00008C12.625 4.26167 10.405 2.04175 7.66665 2.04175ZM1.83331 7.00008C1.83331 3.77842 4.44499 1.16675 7.66665 1.16675C10.8883 1.16675 13.5 3.77842 13.5 7.00008C13.5 10.2217 10.8883 12.8334 7.66665 12.8334C4.44499 12.8334 1.83331 10.2217 1.83331 7.00008ZM6.49998 5.97925H8.10415V9.91675H7.22915V6.85425H6.49998V5.97925Z" fill="#989898"/>
<path d="M8.03123 4.302V5.03117H7.30206V4.302H8.03123Z" fill="#989898"/>
<path fill-rule="evenodd" clip-rule="evenodd" d="M7.22913 4.22925H8.10413V5.10425H7.22913V4.22925ZM7.37496 4.37508V4.95841H7.95829V4.37508H7.37496Z" fill="#989898"/>
</svg>
