<svg width="21" height="20" viewBox="0 0 21 20" fill="none" xmlns="http://www.w3.org/2000/svg">
<path fill-rule="evenodd" clip-rule="evenodd" d="M10.5001 2.91666C6.58807 2.91666 3.41675 6.08798 3.41675 10C3.41675 13.912 6.58807 17.0833 10.5001 17.0833C14.4121 17.0833 17.5834 13.912 17.5834 10C17.5834 6.08799 14.4121 2.91666 10.5001 2.91666ZM2.16675 10C2.16675 5.39763 5.89771 1.66666 10.5001 1.66666C15.1024 1.66666 18.8334 5.39763 18.8334 10C18.8334 14.6023 15.1024 18.3333 10.5001 18.3333C5.89771 18.3333 2.16675 14.6023 2.16675 10ZM13.8796 7.82871L9.29648 13.4303L6.69953 10.8333L7.58342 9.94945L9.20368 11.5697L12.9121 7.03717L13.8796 7.82871Z" fill="white"/>
</svg>
