<svg width="14" height="14" viewBox="0 0 14 14" fill="none" xmlns="http://www.w3.org/2000/svg">
<path fill-rule="evenodd" clip-rule="evenodd" d="M6.99996 2.04175C4.26155 2.04175 2.04163 4.26167 2.04163 7.00008C2.04163 9.73847 4.26155 11.9584 6.99996 11.9584C9.73835 11.9584 11.9583 9.73847 11.9583 7.00008C11.9583 4.26167 9.73835 2.04175 6.99996 2.04175ZM1.16663 7.00008C1.16663 3.77842 3.7783 1.16675 6.99996 1.16675C10.2216 1.16675 12.8333 3.77842 12.8333 7.00008C12.8333 10.2217 10.2216 12.8334 6.99996 12.8334C3.7783 12.8334 1.16663 10.2217 1.16663 7.00008ZM9.36561 5.48018L6.15744 9.40128L4.33957 7.58342L4.95829 6.9647L6.09248 8.09888L8.6884 4.9261L9.36561 5.48018Z" fill="#0B4627"/>
</svg>
