<svg width="21" height="20" viewBox="0 0 21 20" fill="none" xmlns="http://www.w3.org/2000/svg">
<path d="M14.2917 7.29167H5.75C4.71447 7.29167 3.875 6.4522 3.875 5.41667M14.2917 7.29167H17.625V16.875H10.9583M14.2917 7.29167V3.125H6.16667C4.90102 3.125 3.875 4.15102 3.875 5.41667M3.875 5.41667V9.375" stroke="#040404" stroke-width="1.25" stroke-linecap="square"/>
<path d="M5.75002 11.2153L8.45835 12.7952V15.9549L5.75002 17.5347L3.04169 15.9549V12.7952L5.75002 11.2153Z" stroke="#040404" stroke-width="1.25" stroke-linecap="round"/>
<path d="M13.6666 12.0833V12.075M13.875 12.0833C13.875 12.1984 13.7817 12.2917 13.6666 12.2917C13.5516 12.2917 13.4583 12.1984 13.4583 12.0833C13.4583 11.9682 13.5516 11.875 13.6666 11.875C13.7817 11.875 13.875 11.9682 13.875 12.0833Z" stroke="#040404" stroke-width="1.25" stroke-linecap="round"/>
</svg>
