<svg width="132" height="133" viewBox="0 0 132 133" fill="none" xmlns="http://www.w3.org/2000/svg">
<path d="M130.172 92.2146L106.666 78.6338V79.0653L129.995 92.5192C130.528 92.8238 130.807 93.2046 130.807 93.6107C130.807 94.0169 130.528 94.3976 130.02 94.7023L68.2846 130.596C67.1423 131.256 65.2639 131.256 64.1216 130.596L2.03078 94.7276C1.4977 94.423 1.21847 94.0423 1.21847 93.6361C1.21847 93.2299 1.4977 92.8492 2.00539 92.5446L18.1754 83.1523V82.7207L1.80232 92.2146C1.1677 92.5953 0.812317 93.103 0.812317 93.6361C0.812317 94.1946 1.1677 94.7023 1.8277 95.0576L63.9439 130.901C64.5785 131.281 65.3908 131.459 66.2285 131.459C67.0408 131.459 67.8531 131.281 68.4877 130.926L130.198 95.0576C130.832 94.6769 131.188 94.1692 131.188 93.6361C131.188 93.103 130.832 92.5953 130.172 92.2146Z" fill="#D7FC51"/>
<path d="M73.5134 127.982C73.488 127.982 73.4372 127.982 73.4118 127.956L69.528 125.722C69.4264 125.672 69.4011 125.545 69.4518 125.469C69.5026 125.392 69.6295 125.342 69.7057 125.392L73.5895 127.626C73.6911 127.677 73.7165 127.804 73.6657 127.88C73.6403 127.931 73.5641 127.982 73.5134 127.982ZM83.8703 121.966C83.8449 121.966 83.7941 121.966 83.7688 121.94L79.8849 119.706C79.7834 119.656 79.758 119.529 79.8088 119.452C79.8595 119.351 79.9864 119.326 80.0626 119.376L83.9464 121.61C84.048 121.661 84.0734 121.788 84.0226 121.864C83.9972 121.915 83.9211 121.966 83.8703 121.966ZM94.2272 115.924C94.2018 115.924 94.1511 115.924 94.1257 115.899L90.2418 113.665C90.1403 113.614 90.1149 113.487 90.1657 113.411C90.2164 113.335 90.3434 113.284 90.4195 113.335L94.3034 115.569C94.4049 115.619 94.4303 115.746 94.3795 115.822C94.3541 115.899 94.278 115.924 94.2272 115.924ZM104.584 109.908C104.559 109.908 104.508 109.908 104.483 109.882L102.376 108.664C102.274 108.613 102.249 108.486 102.3 108.41C102.35 108.309 102.477 108.283 102.553 108.334L104.66 109.552C104.762 109.603 104.787 109.73 104.736 109.806C104.711 109.882 104.66 109.908 104.584 109.908ZM114.941 103.892C114.916 103.892 114.865 103.892 114.84 103.866L112.733 102.648C112.631 102.597 112.606 102.47 112.656 102.394C112.707 102.292 112.834 102.267 112.91 102.318L115.017 103.536C115.119 103.587 115.144 103.714 115.093 103.79C115.068 103.866 115.017 103.892 114.941 103.892ZM125.298 97.8755C125.273 97.8755 125.222 97.8755 125.196 97.8501L123.09 96.6317C122.988 96.5809 122.963 96.454 123.013 96.3778C123.064 96.3017 123.191 96.2509 123.267 96.3017L125.374 97.5201C125.476 97.5709 125.501 97.6978 125.45 97.774C125.425 97.8247 125.374 97.8755 125.298 97.8755ZM58.2318 127.576C58.1557 127.576 58.1049 127.55 58.0795 127.474C58.0288 127.372 58.0541 127.271 58.1557 127.22L62.0395 124.986C62.1411 124.936 62.2426 124.961 62.2934 125.062C62.3441 125.164 62.3188 125.266 62.2172 125.316L58.3334 127.55C58.308 127.576 58.2826 127.576 58.2318 127.576ZM47.8749 121.559C47.7988 121.559 47.748 121.534 47.7226 121.458C47.6718 121.356 47.6972 121.255 47.7988 121.204L49.5249 120.214C49.6265 120.163 49.728 120.189 49.7788 120.29C49.8295 120.392 49.8041 120.493 49.7026 120.544L47.9765 121.534C47.9511 121.534 47.9003 121.559 47.8749 121.559ZM37.518 115.543C37.4418 115.543 37.3911 115.518 37.3657 115.442C37.3149 115.34 37.3403 115.239 37.4418 115.188L41.3257 112.954C41.4272 112.903 41.5288 112.929 41.5795 113.03C41.6303 113.132 41.6049 113.233 41.5034 113.284L37.6195 115.518C37.5941 115.518 37.5434 115.543 37.518 115.543ZM27.1611 109.502C27.0849 109.502 27.0341 109.476 27.0088 109.4C26.958 109.299 26.9834 109.197 27.0849 109.146L29.1918 107.928C29.2934 107.877 29.3949 107.902 29.4457 108.004C29.4965 108.106 29.4711 108.207 29.3695 108.258L27.2626 109.476C27.2372 109.502 27.1865 109.502 27.1611 109.502ZM6.44722 97.4693C6.37107 97.4693 6.3203 97.444 6.29492 97.3678C6.24415 97.2663 6.26953 97.1647 6.37107 97.114L8.47799 95.8955C8.57953 95.8447 8.68107 95.8701 8.73184 95.9717C8.78261 96.0732 8.75722 96.1747 8.65568 96.2255L6.54876 97.444C6.49799 97.4693 6.47261 97.4693 6.44722 97.4693Z" fill="#D7FC51"/>
<path opacity="0.4" d="M76.0514 95.7177L90.4191 104.069L119.281 87.3916L104.939 79.04L76.0514 95.7177ZM95.166 68.7339C96.3845 69.4446 96.3845 70.587 95.1914 71.2977L36.096 105.491C34.8776 106.202 32.8976 106.202 31.6791 105.491L25.6884 101.861C24.4699 101.15 24.4445 100.008 25.663 99.297L84.733 65.1039C85.9514 64.3931 87.9314 64.3931 89.1499 65.1039L95.166 68.7339Z" fill="#D7FC51"/>
<path d="M22.7704 46.9539L18.1758 44.2632L79.0227 9.13086L83.6427 11.7962L22.7704 46.9539Z" fill="white"/>
<path d="M22.7676 46.0909L22.7422 42.1816H22.7676V46.0909Z" fill="white"/>
<path d="M18.2266 61.6009L18.1758 44.2886L22.7704 46.954L22.9227 101.81C22.9227 102.952 23.3289 103.765 23.9889 104.12L19.3942 101.455C18.7342 101.074 18.3535 100.287 18.3281 99.1447L18.2519 69.7747" fill="#D7FC51"/>
<path d="M22.7695 46.9541L83.6418 11.7964L83.7942 66.6525C83.7942 68.9625 82.1949 71.7548 80.1895 72.9225L26.5518 103.866C24.5465 105.009 22.9218 104.095 22.9218 101.785L22.7695 46.9541Z" fill="white"/>
<path d="M79.9845 4.96762C81.9899 3.79993 83.6145 4.73916 83.6145 7.04916L83.6399 11.8215L22.7676 46.9538L22.7422 42.1815C22.7422 39.8715 24.3668 37.0792 26.3468 35.9115L79.9845 4.96762Z" fill="white"/>
<path d="M67.4473 6.87164L75.3927 2.30241C76.4081 1.71856 77.3219 1.66779 77.9819 2.04856L82.5765 4.73933C81.9165 4.35856 81.0027 4.40933 79.9873 4.99318L26.375 35.9116C24.3696 37.054 22.745 39.8716 22.745 42.1563L22.7704 46.0909V46.9286L18.1504 44.2632L18.125 39.4909C18.125 37.1809 19.7496 34.3886 21.755 33.2463L62.1927 9.89241" fill="#D7FC51"/>
<path d="M83.8711 7.04932C83.8711 5.85625 83.4396 4.9424 82.7034 4.51086L78.0834 1.82009C77.2965 1.36317 76.3065 1.46471 75.2403 2.07394L67.2949 6.64317C67.168 6.71933 67.1426 6.87163 67.1934 6.99856C67.2442 7.12548 67.4219 7.15086 67.5488 7.10009L75.4942 2.50548C76.3826 1.99779 77.2203 1.89625 77.8296 2.25163L81.2565 4.23163C80.9011 4.2824 80.368 4.43471 79.8603 4.73933L26.248 35.7086C24.1665 36.9016 22.4911 39.8209 22.4911 42.1816C22.4911 43.2224 22.4911 43.197 22.5165 46.5224C21.9326 46.1924 18.7849 44.3647 18.4042 44.1362L18.3788 39.5163C18.3788 37.3078 19.9272 34.5916 21.8819 33.4747L62.3196 10.1209C62.4465 10.0447 62.4719 9.8924 62.4211 9.76548C62.3449 9.63856 62.1926 9.61317 62.0657 9.66394L21.628 33.0178C19.5465 34.2109 17.8711 37.1301 17.8711 39.4909C17.9472 65.637 17.9219 61.0424 17.9472 61.5755C17.9472 61.7278 18.0488 61.8293 18.2011 61.8293C18.3534 61.8293 18.4549 61.7024 18.4549 61.5755L18.4042 44.6947L22.5165 47.0809L22.6688 101.785C22.6688 102.343 22.7703 102.851 22.9226 103.181L19.5211 101.201C18.9372 100.845 18.6072 100.109 18.5819 99.0939L18.5057 69.7239C18.5057 69.5716 18.4042 69.4701 18.2519 69.4701C18.0996 69.4701 17.998 69.597 17.998 69.7239L18.0742 99.0939C18.0742 100.287 18.5057 101.201 19.2672 101.632L23.8365 104.323C24.7249 104.831 25.7911 104.577 26.6542 104.069L37.8996 97.5709V96.987L26.4003 103.612C24.5726 104.679 23.1511 103.866 23.1511 101.759L22.9988 47.0555L83.3888 12.2532L83.5157 62.9463C83.668 62.8701 83.8457 62.8193 84.0234 62.7686C84.0234 61.3724 83.8965 15.477 83.8711 7.04932ZM83.3634 7.04932L83.3888 11.6693L23.0242 46.497C22.9988 39.897 23.0242 43.0701 23.0242 42.1563C23.0242 39.9478 24.5726 37.2316 26.5019 36.1147L80.1142 5.19625C81.9672 4.10471 83.3634 4.9424 83.3634 7.04932ZM57.6996 85.8686V86.1732L74.0219 76.7555V76.1716L57.2426 85.8686H57.6996Z" fill="#040404"/>
<path d="M18.1738 44.263H18.1484V39.4907L18.1738 44.263ZM29.7746 37.1046C30.6631 36.5969 31.3738 37.0284 31.3738 38.0438C31.3738 39.0592 30.6631 40.2776 29.7746 40.7853C28.8861 41.293 28.15 40.9122 28.15 39.8969C28.1754 38.8815 28.8861 37.6122 29.7746 37.1046Z" fill="white"/>
<path d="M27.9219 39.8969C27.9219 38.7799 28.7088 37.4346 29.6734 36.8761C30.7142 36.2669 31.6534 36.7999 31.6534 38.0438C31.6534 39.1607 30.8919 40.4553 29.9273 41.0138C28.8357 41.6484 27.9219 41.0899 27.9219 39.8969ZM29.9019 37.333C29.0896 37.7899 28.4042 38.983 28.4042 39.8969C28.4042 40.7346 28.9373 40.9884 29.648 40.5823C30.4603 40.1253 31.1203 38.983 31.1203 38.0438C31.1203 37.2315 30.638 36.9015 29.9019 37.333Z" fill="#040404"/>
<path d="M35.9957 33.5254C36.8842 33.0178 37.5949 33.4493 37.5949 34.4647C37.5949 35.4801 36.8842 36.6985 35.9957 37.2062C35.1072 37.7139 34.3711 37.3331 34.3711 36.3178C34.3711 35.277 35.1072 34.0331 35.9957 33.5254Z" fill="white"/>
<path d="M34.1172 36.3178C34.1172 35.2008 34.9041 33.8555 35.8433 33.297C36.8841 32.6878 37.8233 33.2208 37.8233 34.4647C37.8233 35.5816 37.0618 36.8762 36.0972 37.4347C35.0564 38.0439 34.1426 37.5108 34.1172 36.3178ZM36.1226 33.7285C35.3103 34.1855 34.6249 35.3785 34.6503 36.2924C34.6503 37.1301 35.1833 37.3839 35.8941 36.9778C36.7064 36.5208 37.3664 35.3785 37.3664 34.4393C37.341 33.627 36.8333 33.3224 36.1226 33.7285Z" fill="#040404"/>
<path d="M42.191 29.921C43.0795 29.4133 43.7903 29.8448 43.7903 30.8602C43.7903 31.8756 43.0795 33.094 42.191 33.6017C41.3026 34.1094 40.5664 33.7286 40.5664 32.7133C40.5918 31.6979 41.3026 30.454 42.191 29.921Z" fill="white"/>
<path d="M40.3362 32.713C40.3362 31.5961 41.1231 30.2507 42.0623 29.6923C43.1031 29.083 44.0423 29.6161 44.0423 30.86C44.0423 31.9769 43.2808 33.2715 42.3162 33.83C41.2754 34.4646 40.3362 33.9315 40.3362 32.713ZM42.3162 30.1492C41.5039 30.6061 40.8185 31.7992 40.8439 32.713C40.8439 33.5507 41.377 33.8046 42.0877 33.3984C42.9 32.9415 43.56 31.7992 43.56 30.86C43.5346 30.0476 43.0523 29.743 42.3162 30.1492Z" fill="#040404"/>
<path d="M93.6712 56.981L97.0727 54.9756L100.093 57.641L106.313 60.3064L83.4158 73.8871L79.6081 70.384L74.2266 68.4548L89.762 59.291" fill="white"/>
<path d="M82.2227 67.0837C82.2227 66.2714 82.7811 65.2814 83.4919 64.8753C84.3296 64.393 85.0403 64.8753 85.0403 65.7637C85.0403 66.6014 84.4819 67.566 83.7711 67.9976C82.9334 68.4291 82.2227 67.9722 82.2227 67.0837ZM83.7457 65.3068C83.1873 65.6368 82.7303 66.4237 82.7303 67.0837C82.7303 67.6168 83.0857 67.7945 83.5173 67.5407C84.0757 67.2107 84.5327 66.3984 84.5327 65.7637C84.5327 65.256 84.2534 65.0276 83.7457 65.3068Z" fill="#040404"/>
<path d="M106.791 89.5492L82.9805 103.384L83.412 73.8869L106.309 60.3062" fill="white"/>
<path d="M106.69 80.2585L106.791 89.5492L82.9805 103.384L83.412 73.8869L106.309 60.3062L106.614 75.8923" fill="white"/>
<path d="M99.7126 69.2162C99.9157 68.8355 100.043 68.4293 100.043 68.0485C100.043 67.2616 99.5349 66.8301 98.9765 66.8301C98.8496 66.8301 98.5703 66.8301 98.2403 67.0332C97.5549 67.4647 97.0219 68.3785 97.0219 69.1909C97.0219 70.3078 97.9611 70.7139 98.7988 70.2062C99.0273 70.0793 99.2303 69.8762 99.408 69.6732C99.5857 69.9524 99.6873 70.257 99.6873 70.5616V74.0647C99.6873 76.1208 98.2403 78.6085 96.4634 79.5985C94.9403 80.5124 93.2142 79.9032 93.2142 77.6947L93.1888 73.6839V73.6585C93.1634 73.4301 93.1126 73.2524 93.0365 73.1001C93.2396 72.7193 93.3919 72.2878 93.3919 71.8816C93.3919 70.7901 92.4272 70.3585 91.5896 70.8662C90.9042 71.2978 90.3711 72.2116 90.3711 73.0239C90.3711 74.1409 91.3103 74.547 92.148 74.0393C92.3511 73.9378 92.5288 73.7855 92.6811 73.6078C92.6811 73.6332 92.7065 73.6839 92.7065 73.7093L92.7319 77.7201C92.7319 80.3093 94.8642 81.1978 96.7426 80.0808C98.6719 79.0147 100.22 76.3493 100.22 74.1155V70.5616C100.195 70.0793 100.017 69.597 99.7126 69.2162ZM98.5449 69.7747C98.0626 70.0793 97.5549 69.927 97.5549 69.1909C97.5549 68.5816 97.9865 67.7947 98.5196 67.4647C99.0019 67.1855 99.5349 67.3378 99.5349 68.0485C99.5349 68.3024 99.4588 68.5816 99.3319 68.8608C99.2303 68.7847 99.1288 68.7339 99.078 68.6832L98.6719 68.4547C98.5449 68.3785 98.3926 68.4293 98.3165 68.5562C98.2403 68.6832 98.2911 68.8355 98.418 68.9116L98.8496 69.1655C98.9003 69.1909 99.0019 69.267 99.078 69.3178C98.9003 69.4955 98.7226 69.6478 98.5449 69.7747ZM91.8688 73.5824C91.3865 73.887 90.8788 73.7347 90.8788 72.9985C90.8788 72.3893 91.3103 71.6024 91.8434 71.2724C92.3511 70.9678 92.8588 71.1709 92.8588 71.8562C92.8588 72.1101 92.7826 72.3639 92.6811 72.6178C92.6303 72.567 92.5796 72.5416 92.5034 72.4909L92.0211 72.2116C91.8942 72.1355 91.7419 72.1862 91.6657 72.3132C91.5896 72.4401 91.6403 72.5924 91.7672 72.6685L92.2496 72.9478C92.3257 72.9985 92.3765 73.0239 92.4272 73.0747C92.2749 73.2778 92.0719 73.4555 91.8688 73.5824Z" fill="#040404"/>
<path d="M79.5319 97.3169L73.8711 98.0784L82.9842 103.384L79.5319 97.3169Z" fill="white"/>
<path d="M74.047 82.5177L74.1993 68.4546L79.6062 70.3838L79.5046 97.3169L73.8439 98.0784L73.9708 87.3154" fill="#D7FC51"/>
<path d="M79.6074 70.3838L83.4151 73.8869L82.9836 103.384L79.5312 97.3169L79.6074 70.3838Z" fill="white"/>
<path d="M88.9453 63.2002C88.9453 62.3625 89.5038 61.3979 90.2145 60.9918C90.9253 60.5348 91.763 60.8648 91.763 61.8548C91.763 62.6925 91.2045 63.6571 90.4938 64.0887C89.7069 64.5202 88.9453 64.1648 88.9453 63.2002ZM90.4684 61.4233C89.9099 61.7533 89.453 62.5656 89.453 63.2002C89.453 63.7587 89.783 63.8856 90.2145 63.6318C90.773 63.3018 91.2299 62.4894 91.2299 61.8548C91.2553 61.2456 90.8492 61.1694 90.4684 61.4233Z" fill="#040404"/>
<path d="M106.947 80.2584C106.947 80.1314 106.82 80.0045 106.693 80.0045C106.541 80.0045 106.439 80.1314 106.439 80.2584L106.541 89.4222L83.2633 102.952L83.6695 74.0391C84.0756 73.7853 80.1918 76.0953 106.059 60.763L106.363 75.9176C106.363 76.0699 106.49 76.1714 106.617 76.1714C106.769 76.1714 106.871 76.0445 106.871 75.9176L106.566 60.3314V60.3061C106.566 60.2299 106.516 60.1537 106.414 60.103L100.246 57.463L97.2502 54.823C97.1741 54.7468 97.0472 54.7468 96.9456 54.7976L93.5441 56.803C93.4172 56.8791 93.3918 57.0314 93.4425 57.1584C93.5187 57.2853 93.671 57.3107 93.7979 57.2599L97.0218 55.3561L99.8141 57.8437V63.9361C80.0902 75.6384 83.9741 73.3284 83.4156 73.6584L79.7602 70.2822H79.7095C79.7095 70.2822 79.6841 70.2822 79.6841 70.2568L79.6587 70.2314L74.7595 68.4799L89.8379 59.5953C89.9649 59.5191 89.9902 59.3668 89.9395 59.2399C89.8887 59.113 89.711 59.0876 89.5841 59.1384L74.0487 68.3022L74.0233 68.3276L73.9979 68.353C73.9979 68.353 73.9725 68.353 73.9725 68.3784C73.9218 68.4291 73.8964 68.4799 73.8964 68.5561L73.7187 82.6191C73.7187 82.7714 73.8202 82.873 73.9725 82.873C74.1249 82.873 74.2264 82.7714 74.2264 82.6191L74.3787 68.9114L79.2779 70.663C79.151 101.175 79.1764 96.733 79.1764 97.1899L76.6887 97.5199L74.0233 97.8753L74.1502 87.4168C74.1502 87.2645 74.0487 87.163 73.8964 87.163C73.7695 87.163 73.6425 87.2645 73.6425 87.4168L73.5156 98.1545C73.5156 98.2053 73.541 98.2561 73.5664 98.3068C73.5664 98.3322 73.5918 98.3322 73.5918 98.3576C73.5918 98.3576 73.6172 98.383 73.6425 98.383L82.781 103.688C82.8572 103.739 82.9587 103.739 83.0349 103.688L106.82 89.8537C106.896 89.803 106.947 89.7268 106.947 89.6253V80.2584ZM100.347 58.0468L105.754 60.3568L100.347 63.5553V58.0468ZM74.6325 98.2307L76.8918 97.9261L79.3795 97.5961L80.5218 99.6014L82.2987 102.724L74.6325 98.2307ZM82.7556 102.47L79.7856 97.2407C79.7856 96.7837 79.7602 101.175 79.8872 70.9676C80.2933 71.323 83.1364 73.963 83.1872 74.0137L82.7556 102.47Z" fill="#040404"/>
<path d="M45.5406 41.3438C51.0744 38.1454 55.5929 40.7092 55.6183 47.0808C55.6437 53.4523 51.1506 61.1946 45.6168 64.4185C40.0829 67.6169 35.5644 65.0531 35.5391 58.6815C35.5391 52.31 40.0068 44.5423 45.5406 41.3438ZM63.9698 54.4423C69.5037 51.2438 74.0221 53.8077 74.0475 60.1792C74.0729 66.5508 69.5798 74.2931 64.046 77.5169C58.5121 80.7154 53.9937 78.1515 53.9683 71.78C53.9429 65.4085 58.436 57.6662 63.9698 54.4423Z" fill="white"/>
<path d="M48.4846 51.1424C49.0684 51.3201 49.4492 51.8785 49.4492 52.7924C49.4492 53.5539 49.1954 54.3916 48.7384 55.1785C48.3323 55.9147 47.7484 56.5239 47.1138 56.9301V57.8947C47.1138 58.2247 46.8854 58.6054 46.6061 58.7578C46.3269 58.9101 46.0984 58.7831 46.0984 58.4785V57.5139L44.88 58.2247V59.1893C44.88 59.5193 44.6515 59.9001 44.3723 60.0524C44.0931 60.2047 43.8646 60.0778 43.8646 59.7731V58.8085L43.4077 59.0624L42.2146 59.7478C41.9354 59.9001 41.7069 59.7731 41.7069 59.4685C41.7069 59.1385 41.9354 58.7578 42.2146 58.6054L42.9 58.1993V50.5839L42.2146 50.9901C41.9354 51.1424 41.7069 51.0155 41.7069 50.7108C41.7069 50.3808 41.9354 50.0001 42.2146 49.8478L43.4077 49.1624L44.1184 48.7562V47.7916C44.1184 47.4616 44.3469 47.0808 44.6261 46.9285C44.9054 46.7762 45.1338 46.9031 45.1338 47.2078V48.1724L46.0731 47.6139V46.6493C46.0731 46.3193 46.3015 45.9385 46.5808 45.7862C46.86 45.6339 47.0884 45.7608 47.0884 46.0654V47.0301C48.3831 46.3193 49.4238 46.9285 49.4238 48.4262C49.4238 49.1878 49.17 50.0255 48.7131 50.787C48.6623 50.9139 48.5608 51.0154 48.4846 51.1424ZM48.0277 54.747C48.3069 54.2901 48.4338 53.7824 48.4338 53.3508C48.4338 52.4624 47.7992 52.107 47.0123 52.5385L43.9154 54.3154V57.5393L47.0123 55.7624C47.4184 55.5593 47.7738 55.2039 48.0277 54.747ZM48.0023 50.3554C48.2815 49.8985 48.4084 49.3908 48.4084 48.9593C48.4084 48.0708 47.7738 47.7155 46.9869 48.1724L43.89 49.9493V53.1731L46.9869 51.3962C47.4184 51.1931 47.7484 50.8124 48.0023 50.3554ZM67.0154 65.1293C67.2946 65.3578 67.4469 65.8147 67.4469 66.4747C67.4469 67.0078 67.32 67.5662 67.0661 68.1501C66.8123 68.7339 66.4569 69.267 66 69.8001C65.5431 70.3331 65.01 70.7901 64.4008 71.1708V72.237C64.4008 72.3639 64.3754 72.4908 64.2992 72.6178C64.2231 72.7447 64.1215 72.8462 63.9946 72.9224C63.8931 72.9985 63.7915 72.9985 63.7154 72.9731C63.6392 72.9478 63.6138 72.8462 63.5884 72.6939V71.6278C62.6492 72.1101 61.7608 72.3893 60.9231 72.4655C60.8215 72.4655 60.72 72.4401 60.6692 72.3639C60.5931 72.2878 60.5677 72.1862 60.5677 72.0593C60.5677 71.8816 60.6184 71.7039 60.72 71.5262C60.8215 71.3485 60.9484 71.1962 61.1008 71.1201C61.1769 71.0693 61.2784 71.0439 61.3546 71.0439C62.0654 70.9931 62.8015 70.7647 63.5884 70.3585V66.8808C63.0046 67.0331 62.4969 67.1347 62.0908 67.1601C61.6846 67.1855 61.3546 67.0839 61.0754 66.8554C60.7961 66.627 60.6692 66.2208 60.6692 65.6116C60.6692 65.0785 60.7708 64.5455 60.9992 63.9616C61.2277 63.4031 61.5577 62.8193 61.9892 62.2862C62.4208 61.7531 62.9538 61.2454 63.5884 60.8393V59.7731C63.5884 59.6462 63.6392 59.5193 63.69 59.367C63.7661 59.2401 63.8677 59.1385 63.9692 59.0624C64.0708 58.9862 64.1723 58.9862 64.2484 59.037C64.3246 59.0878 64.3754 59.1639 64.3754 59.2908V60.3316C65.2384 59.8747 66 59.5955 66.66 59.5193C66.9138 59.4685 67.0154 59.6208 67.0408 59.9001C67.0408 60.0778 66.99 60.2301 66.8884 60.4331C66.7869 60.6108 66.66 60.7631 66.5077 60.8393C66.4569 60.8647 66.3808 60.8901 66.3046 60.8901C65.7208 60.9916 65.0608 61.2201 64.3754 61.6008V65.2055C65.01 65.0024 65.5431 64.9008 65.9492 64.8501C66.3808 64.7993 66.7361 64.9008 67.0154 65.1293ZM64.4008 69.8762C65.6446 69.0639 66.2538 68.1247 66.2538 67.0839C66.2538 66.7031 66.1015 66.4747 65.7715 66.4493C65.4669 66.4239 65.01 66.4747 64.3754 66.627L64.4008 69.8762ZM63.5884 65.4339V62.1085C63.0554 62.4893 62.6492 62.9208 62.3192 63.3778C61.9892 63.8601 61.8369 64.317 61.8369 64.7739C61.8369 65.2308 61.9892 65.4847 62.2684 65.5355C62.5731 65.637 63.0046 65.5862 63.5884 65.4339Z" fill="#040404"/>
<path opacity="0.4" d="M80.2404 105.313L83.7688 107.395L65.4919 118.132L47.875 107.826L66.1519 97.0884L75.8235 102.749L80.2404 105.313Z" fill="#D7FC51"/>
<path d="M62.5492 115.721L55.7969 119.63L55.8476 106.253L73.1346 96.2002L73.0838 109.578L65.9761 113.716" fill="white"/>
<path d="M41.7572 111.532L39.168 110.034L39.2187 96.6313L55.8457 106.252L55.7949 119.63L44.4226 113.081" fill="#D7FC51"/>
<path d="M41.9856 111.659C41.9094 111.786 41.7571 111.812 41.6302 111.761L39.041 110.263C38.9648 110.212 38.9141 110.136 38.9141 110.035L38.9394 100.389L39.4471 100.693L39.4218 109.882L41.8841 111.304C42.011 111.38 42.0618 111.532 41.9856 111.659ZM62.7756 115.594C62.8518 115.721 62.801 115.873 62.6741 115.949L55.9218 119.884C55.8456 119.935 55.7441 119.935 55.6679 119.884L44.2956 113.309C44.1687 113.233 44.1433 113.081 44.1941 112.954C44.2702 112.827 44.4225 112.802 44.5494 112.852L55.541 119.199L55.5664 110.111L55.5918 110.136L56.0741 109.857L56.0487 119.199L62.4202 115.492C62.5471 115.416 62.6994 115.467 62.7756 115.594ZM73.3864 99.6777L73.361 109.603C73.361 109.679 73.3102 109.781 73.2341 109.832L66.1264 113.969C65.9994 114.045 65.8471 113.995 65.771 113.868C65.6948 113.741 65.7456 113.589 65.8725 113.512L72.8533 109.451L72.8787 99.9823L73.3864 99.6777Z" fill="#040404"/>
<path d="M73.8961 95.5908V99.3731L55.5938 110.136L55.6191 106.329L73.8961 95.5908Z" fill="white"/>
<path d="M55.6189 106.329L55.5935 110.136L37.9766 99.8302V96.0225L55.6189 106.329Z" fill="white"/>
<path d="M70.3673 93.5093L73.8958 95.5908L55.6189 106.329L37.9766 96.0224L56.2789 85.2847L65.9504 90.9454L70.3673 93.5093Z" fill="white"/>
<path d="M74.1476 95.5908C74.1476 95.4892 74.0969 95.4131 74.0207 95.3623C71.863 94.0931 58.3584 86.1985 56.4038 85.0561C56.3276 85.0054 56.2261 85.0054 56.1499 85.0561L37.873 95.8192C37.7969 95.87 37.7461 95.9461 37.7461 96.0477V99.8554C37.7461 99.9569 37.7969 100.033 37.873 100.084L55.4899 110.39C55.5661 110.441 55.6676 110.441 55.7438 110.39L74.0207 99.6269C74.0969 99.5761 74.1476 99.5 74.1476 99.3985V95.5908ZM56.2769 85.5638L73.4115 95.5654L55.6422 106.024L38.5076 96.0223L56.2769 85.5638ZM38.2284 96.4792L55.3376 106.481V109.679L38.2284 99.6777V96.4792ZM55.8707 109.679V106.481C59.6022 104.272 70.1369 98.0784 73.6399 96.0223V99.2208L55.8707 109.679Z" fill="#040404"/>
<path d="M64.3256 94.474L66.3564 95.667L55.7456 101.912L45.5156 95.9463L56.1264 89.7017L60.7718 92.4178" fill="#D7FC51"/>
<path d="M55.7456 102.165C55.6948 102.165 55.6694 102.165 55.6186 102.14L45.3886 96.1493C45.3125 96.0985 45.2617 96.0224 45.2617 95.9208C45.2617 95.8193 45.3125 95.7431 45.3886 95.6924L55.9994 89.4477C56.0756 89.397 56.1771 89.397 56.2533 89.4477L60.8986 92.1639C61.0256 92.2401 61.0509 92.3924 61.0002 92.5193C60.924 92.6462 60.7717 92.6716 60.6448 92.6208L56.1263 89.9808L46.0233 95.9462L55.7709 101.632L65.874 95.6924L64.1986 94.7024C64.0717 94.6262 64.0463 94.4739 64.0971 94.347C64.1733 94.2201 64.3256 94.1947 64.4525 94.2454L66.5086 95.4385C66.5848 95.4893 66.6356 95.5654 66.6356 95.667C66.6356 95.7685 66.5848 95.8447 66.5086 95.8954L55.8979 102.14C55.8471 102.165 55.7963 102.165 55.7456 102.165Z" fill="#040404"/>
<path d="M52.6985 40.633C50.8708 39.5668 48.3323 39.7191 45.5654 41.3437C40.0315 44.5422 35.5385 52.3099 35.5638 58.6814C35.5638 61.8545 36.6808 64.063 38.4831 65.1291L35.4623 63.3776C33.66 62.3368 32.5431 60.103 32.5431 56.9299C32.5177 50.5584 37.0108 42.7907 42.5446 39.6176C45.3369 38.0184 47.8754 37.866 49.6777 38.9068L52.6985 40.633Z" fill="#D7FC51"/>
<path d="M52.8273 40.43L49.7811 38.6531C47.8011 37.4854 45.1611 37.7393 42.3942 39.3639C36.7842 42.5877 32.2403 50.457 32.2657 56.9046C32.2657 60.0523 33.3573 62.4131 35.3119 63.5554L38.3327 65.307H38.358C40.6427 66.627 43.435 65.9416 45.745 64.5962C51.355 61.347 55.8988 53.4777 55.8734 47.0554C55.8734 43.9331 54.7819 41.5723 52.8273 40.43ZM35.5657 63.1239C33.7634 62.0831 32.7734 59.8746 32.7734 56.9046C32.748 50.6347 37.1903 42.9431 42.648 39.7954C44.7803 38.5516 47.395 37.8662 49.5273 39.0847L50.6188 39.7193C48.8419 39.567 46.9634 40.227 45.415 41.1154C39.805 44.3647 35.2611 52.2339 35.2865 58.6562C35.2865 60.3823 35.6419 62.2354 36.6065 63.6823C36.6319 63.7077 36.6319 63.7331 36.6573 63.7585L35.5657 63.1239ZM45.4911 64.19C40.0842 67.3123 35.8196 64.7993 35.7942 58.6816C35.7688 52.437 40.1857 44.7454 45.6688 41.5723C45.6942 41.5723 45.7196 41.547 45.7196 41.547C47.8265 40.3539 50.4157 39.6685 52.5227 40.8616C54.325 41.9023 55.3403 44.1108 55.3403 47.0808C55.3911 53.3508 50.9488 61.0423 45.4911 64.19Z" fill="#040404"/>
<path d="M71.1008 53.757C69.2731 52.6908 66.76 52.8431 63.9677 54.4677C58.4339 57.6662 53.9408 65.4339 53.9662 71.7801C53.9662 74.9531 55.0831 77.1616 56.8854 78.2278L53.8647 76.4762C52.0623 75.4354 50.9454 73.2016 50.9454 70.0285C50.92 63.657 55.4131 55.8893 60.947 52.6908C63.7393 51.0916 66.2523 50.9393 68.08 51.9801L71.1008 53.757Z" fill="#D7FC51"/>
<path d="M71.2316 53.5287L71.2062 53.5033L68.2108 51.7517C66.2308 50.5841 63.5908 50.8379 60.8239 52.4625C55.2139 55.6864 50.67 63.581 50.6954 70.0033C50.6954 73.151 51.787 75.5117 53.7416 76.6541C53.7923 76.6794 56.7623 78.4056 56.7877 78.431C59.0977 79.751 61.8647 79.0402 64.1747 77.7202C69.7847 74.4964 74.3285 66.6018 74.3031 60.1794C74.2777 57.0318 73.1862 54.671 71.2316 53.5287ZM53.9954 76.2479C52.1931 75.2071 51.2031 72.9987 51.2031 70.0287C51.1777 63.7587 55.62 56.0671 61.0777 52.9194C62.6262 52.031 64.1239 51.5741 65.4439 51.5741C67.3985 51.5741 68.287 52.4879 69.0485 52.8433H68.9723C68.82 52.8433 68.6677 52.8179 68.5154 52.8179C66.8908 52.8179 65.2408 53.4271 63.8447 54.2394C58.2347 57.4633 53.6908 65.3579 53.7162 71.7802C53.7162 73.1002 53.9193 74.5471 54.4777 75.791C54.4777 75.8164 54.5031 75.8164 54.5031 75.8417C54.5793 76.0194 54.6554 76.1717 54.757 76.3494C54.8585 76.5271 55.0616 76.8571 55.087 76.8825L53.9954 76.2479ZM63.8954 77.2887C59.4785 79.8271 57.1177 77.9994 57.0162 77.9741C54.9347 76.7556 54.2239 74.1918 54.2239 71.7548C54.1985 65.4848 58.6408 57.7933 64.0985 54.6456C66.7131 53.1225 69.15 52.8941 70.9777 53.9348C72.78 54.9756 73.77 57.1841 73.77 60.1541C73.7954 66.4748 69.3785 74.141 63.8954 77.2887Z" fill="#040404"/>
<path d="M62.9303 37.7392C64.1995 37.3838 66.1795 36.7999 67.8549 38.1199C68.1595 38.2976 68.4133 38.5261 68.6418 38.7292C69.0987 39.1607 69.4287 39.5922 69.6572 39.9476C69.6826 39.9984 69.7333 40.0492 69.7587 40.1253L72.678 37.2822L69.6572 46.1668L63.438 46.2176L66.3572 43.3745V43.3238C66.281 43.0192 66.1541 42.5622 65.951 42.0799C65.8495 41.8515 65.7226 41.5976 65.5703 41.3692C64.3518 38.9068 61.0518 39.5668 58.7418 40.9122C58.6149 40.9884 58.5133 41.0392 58.4118 41.1407C58.158 41.3184 57.9295 41.4453 57.7264 41.5722C57.3456 41.8261 57.1426 41.9784 57.1172 41.9784L57.6756 41.4199C57.8533 41.2422 58.0818 41.0392 58.3356 40.7853C58.7164 40.3792 60.9503 38.4245 62.9303 37.7392Z" fill="#D7FC51"/>
<path d="M63.4102 46.4969C63.3086 46.4969 63.2071 46.4461 63.1817 46.3446C63.1309 46.243 63.1563 46.1415 63.2325 46.0653L66.0756 43.3238C66.0248 43.1207 65.9232 42.6892 65.7202 42.2323C64.9586 40.5569 63.7148 39.6684 61.8363 39.9984C60.4656 40.2523 59.7548 40.7346 59.3994 40.8869C58.5363 41.3184 59.044 41.09 57.2671 42.2323C57.1656 42.3084 57.0133 42.283 56.9371 42.1815C56.8609 42.08 56.8609 41.9277 56.9625 41.8515C57.5971 41.2423 59.4502 39.1607 61.9379 37.9423C64.9586 36.47 67.9794 36.9523 69.8325 39.7446L72.5233 37.13C72.5994 37.0538 72.7263 37.0284 72.8279 37.1046C72.9294 37.1553 72.9802 37.2823 72.9294 37.4092L69.9086 46.2938C69.8832 46.3953 69.7817 46.4715 69.6802 46.4715L63.4102 46.4969ZM66.1771 42.0038C66.4309 42.5623 66.5325 43.0446 66.5832 43.2984V43.3746C66.5832 43.4507 66.5579 43.5269 66.5071 43.5777L64.0448 45.9638L69.4517 45.913L72.0917 38.1961L69.934 40.303C69.8833 40.3538 69.8071 40.3792 69.7309 40.3792C69.6548 40.3792 69.5786 40.3284 69.5533 40.2523C69.5279 40.2269 69.5279 40.2015 69.5025 40.1761C69.4771 40.1507 69.4517 40.1 69.4263 40.0746C67.7509 37.4346 64.9586 37.003 62.1409 38.3738C60.9986 38.9323 60.034 39.6938 59.0948 40.4553C59.1202 40.43 59.2217 40.4046 59.1963 40.4046C59.5263 40.2523 60.3133 39.7446 61.7602 39.4653C63.8925 39.0846 65.3648 40.2269 66.1771 42.0038Z" fill="#040404"/>
<path d="M36.9092 69.4953L43.1284 69.4446L40.2092 72.2877V72.3384C40.2854 72.643 40.4123 73.1 40.6154 73.5823C42.24 77.1361 45.5907 76.2984 48.84 74.09C49.2207 73.8361 49.4238 73.7092 49.4492 73.6838L48.8907 74.2423C44.6007 78.4307 39.8538 80.36 36.9346 75.74C36.9092 75.6892 36.8584 75.6384 36.833 75.5623L33.9138 78.38L36.9092 69.4953Z" fill="#D7FC51"/>
<path d="M33.637 78.304L36.6578 69.4194C36.6832 69.3178 36.7847 69.2417 36.8863 69.2417L43.1055 69.1909C43.207 69.1909 43.3086 69.2417 43.3339 69.3432C43.3847 69.4448 43.3593 69.5463 43.2832 69.6225L40.4401 72.364C40.6939 73.4809 41.1763 74.1409 41.1763 74.1663C42.1916 76.2225 44.8316 75.8671 47.1163 74.8009C47.9032 74.3948 47.5478 74.5725 49.2486 73.4809C49.3501 73.4048 49.5024 73.4302 49.5786 73.5317C49.6547 73.6332 49.6547 73.7855 49.5532 73.8617C47.9793 75.4101 48.3093 75.1309 47.5986 75.7148C44.4763 78.2786 40.9224 80.0301 37.6986 77.1363C37.3178 76.7809 36.9878 76.4001 36.7086 75.9686L34.0178 78.5832C33.8655 78.7609 33.5609 78.5578 33.637 78.304ZM47.3193 75.334C47.3701 75.2832 47.4209 75.2578 47.4716 75.2071C47.2939 75.2578 42.4963 77.8471 40.7701 74.4202C40.3893 73.8617 40.0847 73.0494 39.9578 72.3894V72.3132C39.9578 72.2371 39.9832 72.1609 40.0339 72.1101L42.4963 69.724L37.0893 69.7748L34.4493 77.4917L36.607 75.3848C36.6578 75.334 36.7339 75.3086 36.8101 75.3086C36.8863 75.3086 36.9624 75.3594 36.9878 75.4355C37.0132 75.4609 37.0132 75.4863 37.0386 75.5117C37.0639 75.5371 37.0893 75.5878 37.1147 75.6132C37.3939 76.0448 37.6986 76.4255 38.0793 76.7809C40.9478 79.3448 44.3747 77.8471 47.3193 75.334Z" fill="#040404"/>
</svg>
