<svg width="24" height="24" viewBox="0 0 24 24" fill="none" xmlns="http://www.w3.org/2000/svg">
<path d="M21.2499 4.75H21.9999V4H21.2499V4.75ZM21.2499 19.25V20H21.9999V19.25H21.2499ZM2.74994 19.25H1.99994V20H2.74994V19.25ZM2.74994 4.75V4H1.99994V4.75H2.74994ZM11.9999 12.6607L11.6624 13.3305L11.9999 13.5005L12.3374 13.3305L11.9999 12.6607ZM3.33742 7.45618L2.66764 7.11871L1.99268 8.45827L2.66246 8.79575L3.33742 7.45618ZM21.3374 8.79575L22.0072 8.45827L21.3322 7.11871L20.6624 7.45618L21.3374 8.79575ZM20.4999 4.75V19.25H21.9999V4.75H20.4999ZM21.2499 18.5H2.74994V20H21.2499V18.5ZM3.49994 19.25V4.75H1.99994V19.25H3.49994ZM2.74994 5.5H21.2499V4H2.74994V5.5ZM12.3374 11.9909L3.33742 7.45618L2.66246 8.79575L11.6624 13.3305L12.3374 11.9909ZM20.6624 7.45618L11.6624 11.9909L12.3374 13.3305L21.3374 8.79575L20.6624 7.45618Z" fill="black"/>
</svg>
