<svg width="32" height="32" viewBox="0 0 32 32" fill="none" xmlns="http://www.w3.org/2000/svg">
<path d="M7.38926 25.3569L7.00576 26.2805L8.85284 27.0474L9.23634 26.1239L7.38926 25.3569ZM18.2889 27.6683L17.9547 28.6109L19.8398 29.2791L20.1739 28.3366L18.2889 27.6683ZM25.2693 22.8211L25.0869 23.8043L27.0533 24.1691L27.2357 23.1859L25.2693 22.8211ZM3.37726 19.9702L3.14136 20.9419L5.08492 21.4138L5.32081 20.4419L3.37726 19.9702ZM17.0125 14.6705V13.6705H15.0125V14.6705H17.0125ZM12.3614 27.7315L11.9699 28.6517L13.8102 29.4347L14.2017 28.5146L12.3614 27.7315ZM16.0119 4.66675C21.5369 4.66675 26.0157 9.14559 26.0157 14.6705H28.0157C28.0157 8.04103 22.6414 2.66675 16.0119 2.66675V4.66675ZM11.51 14.6705C11.51 12.1842 13.5255 10.1686 16.0119 10.1686V8.16864C12.421 8.16864 9.51004 11.0796 9.51004 14.6705H11.51ZM16.0119 10.1686C18.4982 10.1686 20.5138 12.1842 20.5138 14.6705H22.5138C22.5138 11.0796 19.6029 8.16864 16.0119 8.16864V10.1686ZM19.2367 24.5933C18.9623 25.6361 18.6458 26.6617 18.2889 27.6683L20.1739 28.3366C20.5493 27.2778 20.8823 26.199 21.1709 25.1021L19.2367 24.5933ZM26.0157 14.6705C26.0157 17.4555 25.7594 20.1797 25.2693 22.8211L27.2357 23.1859C27.7481 20.4247 28.0157 17.5785 28.0157 14.6705H26.0157ZM4.00814 14.6705C4.00814 16.4975 3.78944 18.2722 3.37726 19.9702L5.32081 20.4419C5.77021 18.5907 6.00814 16.6577 6.00814 14.6705H4.00814ZM11.635 5.67231C12.9559 5.02848 14.4402 4.66675 16.0119 4.66675V2.66675C14.1299 2.66675 12.3466 3.10053 10.7587 3.87449L11.635 5.67231ZM6.00814 14.6705C6.00814 12.006 7.0485 9.58671 8.74718 7.79305L7.29504 6.4178C5.25862 8.56809 4.00814 11.4743 4.00814 14.6705H6.00814ZM19.9379 21.3766C19.7487 22.4651 19.5143 23.5379 19.2367 24.5933L21.1709 25.1021C21.4629 23.9922 21.7094 22.8638 21.9083 21.7191L19.9379 21.3766ZM20.5138 14.6705C20.5138 16.0297 20.4441 17.3721 20.3082 18.6947L22.2977 18.8991C22.4406 17.5087 22.5138 16.0981 22.5138 14.6705H20.5138ZM15.0125 14.6705C15.0125 18.3587 14.4149 21.9053 13.3119 25.2199L15.2095 25.8514C16.3794 22.3357 17.0125 18.5761 17.0125 14.6705H15.0125ZM13.3119 25.2199C13.028 26.0729 12.7107 26.9106 12.3614 27.7315L14.2017 28.5146C14.5721 27.6442 14.9086 26.7559 15.2095 25.8514L13.3119 25.2199ZM9.51004 14.6705C9.51004 17.0619 9.20921 19.3818 8.64386 21.5946L10.5816 22.0897C11.188 19.7163 11.51 17.2303 11.51 14.6705H9.51004ZM8.06232 23.5633C7.85806 24.1707 7.63344 24.7689 7.38926 25.3569L9.23634 26.1239C9.49814 25.4934 9.739 24.8521 9.95804 24.2006L8.06232 23.5633Z" fill="#325FEC"/>
</svg>
