<svg width="20" height="20" viewBox="0 0 20 20" fill="none" xmlns="http://www.w3.org/2000/svg">
<path d="M3.125 7.49992L2.72922 7.0162L2.5 7.20375V7.49992H3.125ZM16.875 7.49992H17.5V7.20375L17.2707 7.0162L16.875 7.49992ZM16.875 16.8749V17.4999H17.5V16.8749H16.875ZM3.125 16.8749H2.5V17.4999H3.125V16.8749ZM10 1.87492L10.3958 1.3912L10 1.06738L9.60425 1.3912L10 1.87492ZM8.125 12.2916V11.6666H7.5V12.2916H8.125ZM11.875 12.2916H12.5V11.6666H11.875V12.2916ZM11.875 16.8749H11.25V17.4999H11.875V16.8749ZM8.125 16.8749V17.4999H8.75V16.8749H8.125ZM16.25 7.49992V16.8749H17.5V7.49992H16.25ZM3.75 16.8749V7.49992H2.5V16.8749H3.75ZM3.52077 7.98365L10.3958 2.35865L9.60425 1.3912L2.72922 7.0162L3.52077 7.98365ZM9.60425 2.35865L16.4792 7.98365L17.2707 7.0162L10.3958 1.3912L9.60425 2.35865ZM8.125 12.9166H11.875V11.6666H8.125V12.9166ZM11.25 12.2916V16.8749H12.5V12.2916H11.25ZM8.75 16.8749V12.2916H7.5V16.8749H8.75ZM8.125 16.2499H3.125V17.4999H8.125V16.2499ZM11.875 17.4999H16.875V16.2499H11.875V17.4999Z" fill="black"/>
</svg>
