<svg width="32" height="32" viewBox="0 0 32 32" fill="none" xmlns="http://www.w3.org/2000/svg">
<path fill-rule="evenodd" clip-rule="evenodd" d="M5.33105 13.3346C5.33105 7.44291 10.1072 2.66675 15.9989 2.66675C21.8906 2.66675 26.6667 7.44291 26.6667 13.3346C26.6667 16.7814 25.0309 19.8468 22.4973 21.7953C22.1279 22.0794 21.7394 22.3399 21.3338 22.5745V25.3318C21.3338 28.2782 18.9453 30.6667 15.9989 30.6667C13.0525 30.6667 10.664 28.2782 10.664 25.3318V22.5745C10.2584 22.3399 9.86985 22.0794 9.50049 21.7953C6.96689 19.8468 5.33105 16.7814 5.33105 13.3346ZM15.9989 4.66675C11.2118 4.66675 7.33105 8.54747 7.33105 13.3346C7.33105 16.1342 8.65727 18.6237 10.7198 20.2099C11.1538 20.5437 11.6201 20.8372 12.113 21.085L12.664 21.3618V25.3318C12.664 27.1737 14.157 28.6667 15.9989 28.6667C17.8407 28.6667 19.3338 27.1737 19.3338 25.3318V21.3619L19.8848 21.085C20.3777 20.8373 20.844 20.5438 21.278 20.2099C23.3405 18.6237 24.6667 16.1342 24.6667 13.3346C24.6667 8.54747 20.7861 4.66675 15.9989 4.66675Z" fill="#325FEC"/>
<path fill-rule="evenodd" clip-rule="evenodd" d="M10.6638 22.6667H21.3337V24.6667H10.6638V22.6667Z" fill="#325FEC"/>
<path fill-rule="evenodd" clip-rule="evenodd" d="M1.41003 7.53931L4.58022 8.56937L3.96218 10.4715L0.791992 9.44142L1.41003 7.53931ZM31.2098 9.44203L28.0395 10.4721L27.4215 8.56996L30.5918 7.53991L31.2098 9.44203ZM28.0395 16.1918L31.2098 17.2218L30.5918 19.124L27.4215 18.094L28.0395 16.1918ZM4.58021 18.0945L1.41001 19.1245L0.792004 17.2224L3.96221 16.1924L4.58021 18.0945Z" fill="#325FEC"/>
</svg>
