<svg width="14" height="14" viewBox="0 0 14 14" fill="none" xmlns="http://www.w3.org/2000/svg">
<path fill-rule="evenodd" clip-rule="evenodd" d="M7.43767 1.16682L7.43742 4.08349L6.56242 4.08341L6.56267 1.16675L7.43767 1.16682ZM3.18471 2.56585L5.24693 4.62842L4.62815 5.24709L2.56594 3.18451L3.18471 2.56585ZM11.4344 3.18497L9.37204 5.24737L8.75331 4.62866L10.8157 2.56626L11.4344 3.18497ZM1.16663 6.56303H4.08329V7.43803H1.16663V6.56303ZM9.91663 6.56303H12.8333V7.43803H9.91663V6.56303ZM9.37185 8.753L11.4343 10.8154L10.8155 11.4341L8.75313 9.37172L9.37185 8.753ZM5.24721 9.3722L3.18481 11.4345L2.5661 10.8158L4.6285 8.75347L5.24721 9.3722ZM7.43763 9.91679V12.8335H6.56263V9.91679H7.43763Z" fill="#122268"/>
</svg>
