<svg width="104" height="121" viewBox="0 0 104 121" fill="none" xmlns="http://www.w3.org/2000/svg">
<path d="M103.176 31.7058C103.176 30.7073 102.653 29.7765 101.818 29.2858L88.7557 21.6197C87.9373 21.1459 86.9225 21.7551 86.9225 22.7197V58.427L70.5047 48.7978V12.5491C70.5047 11.5506 69.9809 10.6199 69.1298 10.1291L53.1049 0.804612C53.1049 0.804612 53.0722 0.787688 53.0558 0.770765C52.7612 0.601537 52.4338 0.5 52.0737 0.5C52.0409 0.5 52.0246 0.5 51.9918 0.5C51.6317 0.5 51.2716 0.584614 50.977 0.753842C50.9442 0.753842 50.9279 0.787689 50.8951 0.804612L34.8539 10.2137C34.0191 10.7045 33.4953 11.6352 33.4953 12.6337V48.8825L17.0776 58.5116V22.8213C17.0776 21.8566 16.0627 21.2474 15.2443 21.7213L2.18214 29.3873C1.34734 29.8781 0.823547 30.8088 0.823547 31.8073V68.056V89.0742C0.823547 90.0727 1.34734 90.9865 2.18214 91.4942L50.846 120.195C50.846 120.195 50.8788 120.212 50.8951 120.229C51.2225 120.415 51.599 120.5 51.9918 120.5C52.3519 120.5 52.6793 120.398 52.9576 120.229C53.0067 120.195 53.0394 120.178 53.0885 120.145L101.818 91.4265C102.653 90.9358 103.176 90.005 103.176 89.0066V73.6237V31.7396V31.7058ZM86.9225 80.6636C86.9225 81.1205 86.6933 81.5436 86.3004 81.7636L70.4884 91.0881L53.2686 101.242L52.843 101.496C52.5811 101.614 52.2865 101.682 51.9918 101.682C51.6645 101.682 51.3698 101.614 51.0916 101.479L50.7478 101.276L33.4953 91.1727L17.6996 81.8482C17.3231 81.6282 17.0776 81.2051 17.0776 80.7482V72.016C17.0776 71.5591 17.3231 71.136 17.6996 70.916L31.6784 62.7254C32.4968 62.2515 33.4953 62.8607 33.4953 63.8253V70.8145C33.4953 71.1699 33.6754 71.4914 33.97 71.6606L49.6839 80.9174L50.9442 81.6113C51.2552 81.7805 51.599 81.882 51.9755 81.882H52.0082C52.0082 81.882 52.09 81.882 52.1391 81.882C52.1719 81.882 52.2046 81.882 52.2374 81.882C52.3028 81.882 52.3683 81.8651 52.4338 81.8482C52.5647 81.8143 52.6957 81.7805 52.8103 81.7297C52.9412 81.679 53.0558 81.6113 53.1704 81.5436C53.5632 81.3067 53.9561 81.0867 54.3489 80.8497L70.0628 71.5929C70.3574 71.4237 70.5375 71.1022 70.5375 70.7468V63.7576C70.5375 62.793 71.5523 62.1838 72.3544 62.6577L86.3332 70.8483C86.7097 71.0683 86.9552 71.4914 86.9552 71.9483V80.6805L86.9225 80.6636Z" fill="#010131"/>
</svg>
