<svg width="99" height="29" viewBox="0 0 99 29" fill="none" xmlns="http://www.w3.org/2000/svg">
<path d="M25.0769 7.54139C25.0769 7.3001 24.9485 7.07517 24.744 6.95656L21.5437 5.10394C21.3432 4.98942 21.0946 5.13665 21.0946 5.36976V13.999L17.0722 11.672V2.91186C17.0722 2.67057 16.9438 2.44564 16.7353 2.32703L12.8091 0.0736146C12.8091 0.0736146 12.8011 0.0695247 12.7971 0.065435C12.7249 0.0245381 12.6447 0 12.5565 0C12.5485 0 12.5444 0 12.5364 0C12.4482 0 12.36 0.0204483 12.2878 0.0613452C12.2798 0.0613452 12.2758 0.0695249 12.2677 0.0736146L8.33757 2.34748C8.13304 2.46608 8.0047 2.69102 8.0047 2.93231V11.6924L3.9823 14.0195V5.3943C3.9823 5.16119 3.73366 5.01396 3.53314 5.12847L0.332861 6.9811C0.128332 7.0997 0 7.32464 0 7.56593V16.326V21.4054C0 21.6467 0.128332 21.8676 0.332861 21.9903L12.2557 28.9264C12.2557 28.9264 12.2637 28.9305 12.2677 28.9346C12.3479 28.9796 12.4402 29 12.5364 29C12.6247 29 12.7049 28.9755 12.773 28.9346C12.7851 28.9264 12.7931 28.9223 12.8051 28.9141L24.744 21.9739C24.9485 21.8553 25.0769 21.6304 25.0769 21.3891V17.6716V7.54957V7.54139ZM21.0946 19.3729C21.0946 19.4833 21.0384 19.5855 20.9422 19.6387L17.0681 21.8921L12.8492 24.3459L12.745 24.4073C12.6808 24.4359 12.6086 24.4523 12.5364 24.4523C12.4562 24.4523 12.384 24.4359 12.3159 24.4032L12.2316 24.3541L8.0047 21.9126L4.13469 19.6591C4.04246 19.606 3.9823 19.5037 3.9823 19.3933V17.283C3.9823 17.1726 4.04246 17.0704 4.13469 17.0172L7.55955 15.0378C7.76007 14.9233 8.0047 15.0705 8.0047 15.3036V16.9927C8.0047 17.0786 8.04882 17.1563 8.121 17.1972L11.971 19.4342L12.2798 19.6019C12.356 19.6428 12.4402 19.6673 12.5324 19.6673H12.5404C12.5404 19.6673 12.5605 19.6673 12.5725 19.6673C12.5805 19.6673 12.5886 19.6673 12.5966 19.6673C12.6126 19.6673 12.6287 19.6632 12.6447 19.6591C12.6768 19.651 12.7089 19.6428 12.7369 19.6305C12.769 19.6182 12.7971 19.6019 12.8252 19.5855C12.9214 19.5283 13.0177 19.4751 13.1139 19.4179L16.9639 17.1808C17.0361 17.1399 17.0802 17.0622 17.0802 16.9763V15.2873C17.0802 15.0542 17.3288 14.9069 17.5253 15.0214L20.9502 17.0008C21.0424 17.054 21.1026 17.1563 21.1026 17.2667V19.377L21.0946 19.3729Z" fill="black"/>
<path d="M40.0517 17.8433C40.0517 18.878 39.8351 19.6346 39.398 20.1172C38.9608 20.5998 38.3031 20.8452 37.4168 20.8452C36.6589 20.8452 36.0894 20.6366 35.7084 20.2154C35.3274 19.7941 35.139 19.1275 35.139 18.2073V10.5596H32.2435V18.2319C32.2435 19.4588 32.4319 20.4403 32.8129 21.1723C33.1939 21.9085 33.7273 22.4361 34.4171 22.7591C35.1069 23.0822 35.8929 23.2417 36.7792 23.2417C37.6174 23.2417 38.2871 23.0863 38.7844 22.7714C39.2817 22.4565 39.7148 22.0271 40.0797 21.475L40.0557 23.0004H42.9512V10.5596H40.0557V17.8474L40.0517 17.8433Z" fill="black"/>
<path d="M53.727 10.7763C53.0453 10.4533 52.2552 10.2938 51.3529 10.2938C50.5308 10.2938 49.865 10.4492 49.3597 10.7641C48.8544 11.079 48.4173 11.5125 48.0523 12.0605L48.0764 10.5596H45.1809V23.0004H48.0764V15.6881C48.0764 14.6411 48.293 13.8763 48.7301 13.4019C49.1672 12.9275 49.8249 12.6862 50.7112 12.6862C51.4692 12.6862 52.0387 12.8948 52.4196 13.316C52.8006 13.7373 52.9891 14.4039 52.9891 15.3241V22.9963H55.8846V15.2995C55.8846 14.0726 55.6961 13.0952 55.3151 12.3591C54.9341 11.6229 54.4048 11.0953 53.723 10.7723L53.727 10.7763Z" fill="black"/>
<path d="M61.0898 10.5596H58.2184V23.0004H61.0898V10.5596Z" fill="black"/>
<path d="M61.0898 5.82373H58.2184V8.79693H61.0898V5.82373Z" fill="black"/>
<path d="M68.1565 6.97702H65.261V10.5596H63.3401V12.9071H65.261V19.7818C65.261 20.9106 65.5899 21.7326 66.2476 22.2398C66.9053 22.7469 67.7475 23.0004 68.7741 23.0004H70.671V20.6529H68.1565V12.9071H70.671V10.5596H68.1565V6.97702Z" fill="black"/>
<path d="M78.9645 10.2938C77.0957 10.2938 75.6199 10.8622 74.5371 11.9992C73.4543 13.1361 72.9129 14.7393 72.9129 16.8045C72.9129 18.8698 73.4503 20.4403 74.525 21.5609C75.5998 22.6814 77.0797 23.2417 78.9645 23.2417C80.8494 23.2417 82.3132 22.6896 83.404 21.5854C84.4948 20.4812 85.0402 18.8862 85.0402 16.8045C85.0402 14.7229 84.4908 13.0952 83.392 11.9746C82.2931 10.854 80.8173 10.2938 78.9645 10.2938ZM81.3627 19.8514C80.8414 20.5139 80.0393 20.8452 78.9645 20.8452C77.8897 20.8452 77.1117 20.5139 76.5904 19.8514C76.069 19.1888 75.8084 18.1746 75.8084 16.8005C75.8084 14.0563 76.8591 12.6862 78.9645 12.6862C81.07 12.6862 82.1447 14.0563 82.1447 16.8005C82.1447 18.1705 81.8841 19.1888 81.3627 19.8514Z" fill="black"/>
<path d="M95.5352 23.0004H99.0001L93.2853 15.5327L98.3625 10.5596H94.8975L90.1733 15.3323V5.61924H87.2778V23.0004H90.1733V18.5836L91.3684 17.4139L95.5352 23.0004Z" fill="black"/>
</svg>
