<svg width="29" height="34" viewBox="0 0 29 34" fill="none" xmlns="http://www.w3.org/2000/svg">
<path d="M29 8.84163C29 8.55874 28.8516 8.29502 28.6151 8.15597L24.9141 5.98392C24.6822 5.84967 24.3947 6.02228 24.3947 6.29559V16.4126L19.743 13.6844V3.41391C19.743 3.13101 19.5946 2.8673 19.3534 2.72825L14.813 0.0863067C14.813 0.0863067 14.8038 0.0815117 14.7991 0.0767169C14.7157 0.0287688 14.6229 0 14.5209 0C14.5116 0 14.507 0 14.4977 0C14.3957 0 14.2936 0.0239739 14.2101 0.071922C14.2009 0.071922 14.1962 0.0815119 14.187 0.0863067L9.64193 2.75222C9.40541 2.89127 9.257 3.15499 9.257 3.43788V13.7084L4.60531 16.4366V6.32435C4.60531 6.05105 4.31777 5.87844 4.08588 6.01269L0.384935 8.18474C0.148409 8.32379 0 8.58751 0 8.8704V19.1409V25.096C0 25.3789 0.148409 25.6379 0.384935 25.7817L14.173 33.9137C14.173 33.9137 14.1823 33.9185 14.187 33.9233C14.2797 33.976 14.3864 34 14.4977 34C14.5997 34 14.6925 33.9712 14.7713 33.9233C14.7852 33.9137 14.7945 33.9089 14.8084 33.8993L28.6151 25.7625C28.8516 25.6235 29 25.3598 29 25.0769V20.7184V8.85122V8.84163ZM24.3947 22.713C24.3947 22.8425 24.3298 22.9624 24.2185 23.0247L19.7384 25.6666L14.8594 28.5435L14.7388 28.6154C14.6646 28.649 14.5812 28.6682 14.4977 28.6682C14.4049 28.6682 14.3214 28.649 14.2426 28.6106L14.1452 28.5531L9.257 25.6906L4.78154 23.0487C4.67488 22.9863 4.60531 22.8665 4.60531 22.737V20.2629C4.60531 20.1334 4.67488 20.0135 4.78154 19.9512L8.7422 17.6305C8.97409 17.4963 9.257 17.6689 9.257 17.9422V19.9224C9.257 20.0231 9.30801 20.1142 9.39149 20.1622L13.8438 22.7849L14.2009 22.9815C14.289 23.0295 14.3864 23.0582 14.493 23.0582H14.5023C14.5023 23.0582 14.5255 23.0582 14.5394 23.0582C14.5487 23.0582 14.558 23.0582 14.5672 23.0582C14.5858 23.0582 14.6043 23.0534 14.6229 23.0487C14.66 23.0391 14.6971 23.0295 14.7296 23.0151C14.7667 23.0007 14.7991 22.9815 14.8316 22.9623C14.9429 22.8952 15.0542 22.8329 15.1655 22.7658L19.6178 20.143C19.7013 20.0951 19.7523 20.0039 19.7523 19.9033V17.923C19.7523 17.6497 20.0398 17.4771 20.2671 17.6113L24.2277 19.932C24.3344 19.9944 24.404 20.1142 24.404 20.2437V22.7178L24.3947 22.713Z" fill="#010131"/>
</svg>
