<svg width="1368" height="401" viewBox="0 0 1368 401" fill="none" xmlns="http://www.w3.org/2000/svg">
<path d="M346.517 104.279C346.517 100.943 344.743 97.8325 341.917 96.1925L297.695 70.5751C294.924 68.9917 291.488 71.0275 291.488 74.2509V193.573L235.906 161.395V40.264C235.906 36.9275 234.133 33.8172 231.251 32.1773L176.999 1.01791C176.999 1.01791 176.888 0.961359 176.833 0.904808C175.835 0.339303 174.727 0 173.508 0C173.397 0 173.341 0 173.231 0C172.011 0 170.792 0.282751 169.795 0.848256C169.684 0.848256 169.629 0.961361 169.518 1.01791L115.21 32.46C112.384 34.1 110.61 37.2103 110.61 40.5468V161.678L55.0281 193.855V74.5902C55.0281 71.3668 51.5923 69.331 48.8215 70.9144L4.59953 96.5318C1.77331 98.1718 0 101.282 0 104.619V225.75V295.986C0 299.322 1.77331 302.376 4.59953 304.072L169.351 399.982C169.351 399.982 169.462 400.039 169.518 400.095C170.626 400.717 171.901 401 173.231 401C174.45 401 175.558 400.661 176.5 400.095C176.666 399.982 176.777 399.926 176.943 399.812L341.917 303.846C344.743 302.206 346.517 299.096 346.517 295.759V244.355V104.392V104.279ZM291.488 267.88C291.488 269.407 290.713 270.821 289.383 271.556L235.851 302.715L177.553 336.645L176.112 337.494C175.226 337.89 174.228 338.116 173.231 338.116C172.122 338.116 171.125 337.89 170.183 337.437L169.019 336.759L110.61 302.998L57.1339 271.839C55.8594 271.103 55.0281 269.69 55.0281 268.163V238.983C55.0281 237.456 55.8594 236.042 57.1339 235.307L104.459 207.936C107.23 206.353 110.61 208.389 110.61 211.612V234.968C110.61 236.155 111.22 237.23 112.218 237.795L165.417 268.728L169.684 271.047C170.737 271.612 171.901 271.952 173.175 271.952H173.286C173.286 271.952 173.563 271.952 173.729 271.952C173.84 271.952 173.951 271.952 174.062 271.952C174.283 271.952 174.505 271.895 174.727 271.839C175.17 271.725 175.613 271.612 176.001 271.443C176.445 271.273 176.833 271.047 177.221 270.821C178.551 270.029 179.881 269.294 181.21 268.502L234.41 237.569C235.407 237.003 236.017 235.929 236.017 234.741V211.386C236.017 208.163 239.453 206.127 242.168 207.71L289.493 235.081C290.768 235.816 291.599 237.23 291.599 238.756V267.937L291.488 267.88Z" fill="white"/>
<path d="M553.441 246.73C553.441 261.037 550.449 271.499 544.408 278.172C538.368 284.845 529.28 288.238 517.033 288.238C506.559 288.238 498.69 285.354 493.425 279.53C488.161 273.705 485.556 264.487 485.556 251.763V146.014H445.546V252.102C445.546 269.068 448.151 282.64 453.415 292.762C458.68 302.941 466.05 310.236 475.581 314.704C485.113 319.171 495.975 321.377 508.222 321.377C519.803 321.377 529.058 319.228 535.93 314.874C542.801 310.519 548.786 304.581 553.829 296.947L553.496 318.04H593.507V146.014H553.496V246.787L553.441 246.73Z" fill="white"/>
<path d="M742.41 149.011C732.989 144.543 722.072 142.338 709.603 142.338C698.243 142.338 689.044 144.487 682.062 148.841C675.079 153.196 669.039 159.19 663.996 166.768L664.329 146.014H624.318V318.04H664.329V216.928C664.329 202.451 667.321 191.876 673.361 185.316C679.402 178.756 688.49 175.42 700.737 175.42C711.211 175.42 719.08 178.304 724.344 184.129C729.609 189.953 732.213 199.171 732.213 211.895V317.984H772.224V211.556C772.224 194.591 769.619 181.075 764.354 170.896C759.09 160.717 751.775 153.422 742.354 148.954L742.41 149.011Z" fill="white"/>
<path d="M844.15 146.014H804.472V318.04H844.15V146.014Z" fill="white"/>
<path d="M844.15 80.5283H804.472V121.641H844.15V80.5283Z" fill="white"/>
<path d="M941.799 96.4756H901.789V146.014H875.245V178.474H901.789V273.535C901.789 289.143 906.333 300.51 915.421 307.522C924.509 314.535 936.147 318.041 950.333 318.041H976.545V285.581H941.799V178.474H976.545V146.014H941.799V96.4756Z" fill="white"/>
<path d="M1091.15 142.338C1065.32 142.338 1044.93 150.198 1029.97 165.919C1015 181.641 1007.52 203.808 1007.52 232.366C1007.52 260.924 1014.95 282.64 1029.8 298.135C1044.65 313.63 1065.1 321.377 1091.15 321.377C1117.19 321.377 1137.42 313.743 1152.49 298.474C1167.56 283.205 1175.1 261.151 1175.1 232.366C1175.1 203.582 1167.51 181.075 1152.33 165.58C1137.14 150.085 1116.75 142.338 1091.15 142.338ZM1124.29 274.497C1117.08 283.658 1106 288.238 1091.15 288.238C1076.29 288.238 1065.54 283.658 1058.34 274.497C1051.14 265.335 1047.53 251.311 1047.53 232.31C1047.53 194.364 1062.05 175.42 1091.15 175.42C1120.24 175.42 1135.09 194.364 1135.09 232.31C1135.09 251.254 1131.49 265.335 1124.29 274.497Z" fill="white"/>
<path d="M1320.12 318.041H1368L1289.03 214.779L1359.19 146.014H1311.31L1246.03 212.008V77.7007H1206.02V318.041H1246.03V256.966L1262.54 240.792L1320.12 318.041Z" fill="white"/>
</svg>
