<svg width="24" height="24" viewBox="0 0 24 24" fill="none" xmlns="http://www.w3.org/2000/svg">
<path d="M6.76859 18.8202C10.507 18.8202 13.5374 15.7688 13.5374 12.0049C13.5374 8.24108 10.5067 5.18994 6.76859 5.18994C3.03045 5.18994 0 8.24016 0 12.0049C0 15.7697 3.03022 18.8202 6.76859 18.8202Z" fill="white"/>
<path d="M17.5797 18.4204C19.4487 18.4204 20.9641 15.5483 20.9641 12.0051C20.9641 8.46285 19.4487 5.58984 17.5797 5.58984C15.7106 5.58984 14.1953 8.46285 14.1953 12.0051C14.1953 15.5474 15.7106 18.4204 17.5797 18.4204Z" fill="white"/>
<path d="M22.8115 17.7531C23.4688 17.7531 24.0018 15.1798 24.0018 12.0052C24.0018 8.83085 23.4693 6.25732 22.8117 6.25732C22.1541 6.25732 21.6211 8.83154 21.6211 12.0052C21.6211 15.1789 22.1541 17.7531 22.8115 17.7531Z" fill="white"/>
</svg>
