<svg width="32" height="32" viewBox="0 0 32 32" fill="none" xmlns="http://www.w3.org/2000/svg">
<path fill-rule="evenodd" clip-rule="evenodd" d="M18.6667 6.33325C17.1939 6.33325 16 7.52716 16 8.99992C16 10.4727 17.1939 11.6666 18.6667 11.6666C20.1394 11.6666 21.3333 10.4727 21.3333 8.99992C21.3333 7.52716 20.1394 6.33325 18.6667 6.33325ZM14 8.99992C14 6.42259 16.0893 4.33325 18.6667 4.33325C21.244 4.33325 23.3333 6.42259 23.3333 8.99992C23.3333 11.5772 21.244 13.6666 18.6667 13.6666C16.0893 13.6666 14 11.5772 14 8.99992Z" fill="#D7FC51"/>
<path fill-rule="evenodd" clip-rule="evenodd" d="M8.66406 7.33342C8.66406 4.75609 10.7534 2.66675 13.3307 2.66675C15.2619 2.66675 16.9169 3.83956 17.6265 5.5078L15.7861 6.29071C15.3793 5.33428 14.4318 4.66675 13.3307 4.66675C11.858 4.66675 10.6641 5.86066 10.6641 7.33342C10.6641 8.80617 11.858 10.0001 13.3307 10.0001C13.8558 10.0001 14.3426 9.84933 14.7538 9.5892L15.8232 11.2793C15.1015 11.7359 14.2454 12.0001 13.3307 12.0001C10.7534 12.0001 8.66406 9.91074 8.66406 7.33342Z" fill="#D7FC51"/>
<path fill-rule="evenodd" clip-rule="evenodd" d="M24.0538 18.609C26.0103 17.9956 28 19.457 28 21.5075C28 22.5207 27.4961 23.4822 26.6142 24.0345C25.4934 24.7361 23.4795 25.9489 21.2913 27.0358C19.1371 28.1058 16.6859 29.1201 14.7286 29.3237C12.9047 29.5135 10.7082 29.1483 9.03896 28.7685C8.18949 28.5752 7.44747 28.3712 6.91732 28.2153C6.65192 28.1373 6.43875 28.0711 6.29078 28.024C6.26337 28.0153 6.23819 28.0073 6.21533 27.9999H4V25.9999H6.53957L6.69519 26.0525L6.69707 26.0532L6.70573 26.0561L6.74358 26.0686C6.77774 26.0798 6.82946 26.0966 6.89713 26.1182C7.03253 26.1612 7.23154 26.2231 7.4814 26.2965C7.9818 26.4436 8.68269 26.6363 9.48266 26.8184C11.1123 27.1891 13.0408 27.4885 14.5216 27.3345C16.0909 27.1712 18.2619 26.3074 20.4016 25.2446C22.5073 24.1987 24.4593 23.0239 25.5527 22.3394M24.0538 18.609C24.0538 18.609 24.0538 18.609 24.0538 18.609V18.609ZM24.0538 18.609L13.4133 21.9448L14.0116 23.8532L24.6521 20.5174C25.3203 20.3079 26 20.807 26 21.5075C26 21.8591 25.8278 22.1671 25.5527 22.3394" fill="#D7FC51"/>
<path fill-rule="evenodd" clip-rule="evenodd" d="M9.68723 18.6333C9.68723 18.6333 9.68724 18.6333 9.68723 18.6333L4.39276 20.5285L3.71875 18.6455L9.01324 16.7503C10.4229 16.2458 11.9254 16.0534 13.4167 16.1869L18.9472 16.6818C19.991 16.7754 20.6911 17.7978 20.3997 18.8051L20.3809 18.8698C19.7957 20.8927 18.2435 22.4925 16.2391 23.1382L14.0187 23.8535L13.4055 21.9498L15.6258 21.2345C16.8888 20.8277 17.8895 19.8671 18.3526 18.6366L13.2385 18.1789C13.2385 18.1789 13.2385 18.1789 13.2385 18.1789C12.0359 18.0713 10.8241 18.2264 9.68723 18.6333Z" fill="#D7FC51"/>
</svg>
