<svg width="134" height="134" viewBox="0 0 134 134" fill="none" xmlns="http://www.w3.org/2000/svg">
<g clip-path="url(#clip0_114_225)">
<path d="M65.9933 132.866C65.1686 132.866 64.3183 132.686 63.674 132.299L0.616707 95.9132C-0.0532932 95.5267 -0.414062 95.0113 -0.414062 94.4702C-0.414062 93.929 -0.0532932 93.4136 0.590938 93.0271L63.2359 56.6152C64.5244 55.8679 66.5344 55.8679 67.8486 56.6152L130.906 93.0271C131.55 93.4136 131.911 93.929 131.911 94.4702C131.911 95.0113 131.55 95.5267 130.906 95.9132L68.2867 132.325C67.6425 132.686 66.8179 132.866 65.9933 132.866ZM65.5552 56.4606C64.7821 56.4606 64.0348 56.6152 63.4421 56.9502L0.797091 93.3621C0.281707 93.6713 -0.00175476 94.0579 -0.00175476 94.4702C-0.00175476 94.8825 0.281707 95.269 0.822861 95.5782L63.8802 131.964C65.0398 132.634 66.9209 132.634 68.1063 131.964L130.751 95.5525C131.267 95.2432 131.55 94.8567 131.55 94.4444C131.55 94.0321 131.267 93.6456 130.726 93.3363L67.6683 56.9502C67.0756 56.6152 66.3283 56.4606 65.5552 56.4606Z" fill="#7FFEF0"/>
<path d="M83.9039 123.229C83.8781 123.229 83.8266 123.229 83.8008 123.203L79.8581 120.935C79.755 120.884 79.7293 120.755 79.7808 120.677C79.8323 120.574 79.9612 120.549 80.0385 120.6L83.9812 122.868C84.0843 122.919 84.11 123.048 84.0585 123.125C84.0327 123.177 83.9812 123.229 83.9039 123.229ZM94.4177 117.095C94.3919 117.095 94.3404 117.095 94.3146 117.07L90.372 114.802C90.2689 114.75 90.2431 114.622 90.2946 114.544C90.3462 114.441 90.475 114.415 90.5523 114.467L94.495 116.735C94.5981 116.786 94.6239 116.915 94.5723 116.992C94.5466 117.07 94.495 117.095 94.4177 117.095ZM104.932 110.988C104.906 110.988 104.854 110.988 104.828 110.962L102.69 109.725C102.587 109.674 102.561 109.545 102.612 109.468C102.664 109.365 102.793 109.339 102.87 109.39L105.009 110.627C105.112 110.679 105.138 110.808 105.086 110.885C105.06 110.962 105.009 110.988 104.932 110.988ZM115.445 104.881C115.42 104.881 115.368 104.881 115.342 104.855L113.203 103.618C113.1 103.567 113.075 103.438 113.126 103.36C113.178 103.257 113.307 103.232 113.384 103.283L115.523 104.52C115.626 104.572 115.652 104.7 115.6 104.778C115.574 104.855 115.523 104.881 115.445 104.881ZM125.959 98.7736C125.933 98.7736 125.882 98.7736 125.856 98.7478L123.717 97.5109C123.614 97.4593 123.588 97.3305 123.64 97.2532C123.692 97.1501 123.82 97.1243 123.898 97.1759L126.037 98.4128C126.14 98.4643 126.165 98.5932 126.114 98.6705C126.088 98.7478 126.037 98.7736 125.959 98.7736ZM57.8769 128.924C57.7996 128.924 57.7481 128.898 57.6966 128.82C57.645 128.717 57.6708 128.614 57.7739 128.563L59.7066 127.455C59.8096 127.403 59.9127 127.429 59.9643 127.532C60.0158 127.635 59.99 127.738 59.8869 127.79L57.9543 128.898C57.9543 128.924 57.9285 128.924 57.8769 128.924ZM47.3631 122.816C47.2858 122.816 47.2343 122.79 47.1827 122.713C47.1312 122.61 47.1569 122.507 47.26 122.455L49.0123 121.45C49.1154 121.399 49.2185 121.425 49.27 121.528C49.3216 121.631 49.2958 121.734 49.1927 121.785L47.4404 122.79C47.4404 122.816 47.4146 122.816 47.3631 122.816ZM36.8493 116.709C36.7719 116.709 36.7204 116.683 36.6689 116.606C36.6173 116.503 36.6431 116.4 36.7462 116.348L40.6889 114.08C40.7919 114.029 40.895 114.055 40.9466 114.158C40.9981 114.261 40.9723 114.364 40.8693 114.415L36.9266 116.683C36.9266 116.683 36.875 116.709 36.8493 116.709ZM26.3354 110.576C26.2581 110.576 26.2066 110.55 26.155 110.473C26.1035 110.37 26.1293 110.267 26.2323 110.215L28.3712 108.978C28.4743 108.927 28.5773 108.952 28.6289 109.055C28.6804 109.159 28.6546 109.262 28.5516 109.313L26.4127 110.55C26.4127 110.576 26.3612 110.576 26.3354 110.576ZM15.8216 104.469C15.7443 104.469 15.6927 104.443 15.6412 104.365C15.5896 104.262 15.6154 104.159 15.7185 104.108L20.9496 101.144C21.0527 101.093 21.1558 101.119 21.2073 101.222C21.2589 101.325 21.2331 101.428 21.13 101.479L15.8989 104.443C15.8989 104.469 15.8473 104.469 15.8216 104.469ZM5.30772 98.3613C5.23041 98.3613 5.17887 98.3355 5.12733 98.2582C5.07579 98.1551 5.10156 98.052 5.20464 98.0005L7.34349 96.7636C7.44656 96.712 7.54964 96.7378 7.60118 96.8409C7.65272 96.9439 7.62695 97.047 7.52387 97.0986L5.38502 98.3355C5.38502 98.3613 5.33349 98.3613 5.30772 98.3613Z" fill="#7FFEF0"/>
<path opacity="0.4" d="M108.203 84.3686C109.517 85.1417 109.543 86.3786 108.229 87.1259L60.5043 114.802C59.1901 115.575 57.0512 115.575 55.7112 114.802L49.2174 110.859C47.9032 110.086 47.8774 108.849 49.1916 108.076L96.8905 80.4001C98.2047 79.627 100.344 79.627 101.684 80.4001L108.203 84.3686Z" fill="#7FFEF0"/>
<path d="M96.7877 39.9165L96.9165 83.183C96.9165 86.2238 94.7777 89.9345 92.1492 91.4549L53.65 113.668C50.9958 115.188 48.8569 113.977 48.8312 110.936L48.625 37.1592C48.625 34.1184 50.7638 30.4076 53.3923 28.8872L91.8915 6.67416C94.5458 5.15378 96.6846 6.36493 96.7104 9.4057L96.7619 29.7376" fill="#7FFEF0"/>
<path d="M52.7734 39.1179C52.7734 37.5459 54.1134 35.2267 55.4792 34.4279L89.0307 15.0494C90.6027 14.1475 92.5611 15.2813 92.5611 17.0852L92.7415 77.6944C92.7415 79.2663 91.4015 81.5855 90.0357 82.3586L56.4842 101.737C54.9123 102.639 52.9538 101.505 52.9538 99.7013L52.7734 39.1179Z" fill="white"/>
<path d="M56.3842 101.531C55.7142 101.917 54.9411 101.917 54.2711 101.531C53.6011 101.144 53.2145 100.474 53.2145 99.701L53.0857 55.146H52.5703L52.6992 99.7267C52.6992 100.68 53.1888 101.531 54.0134 101.994C54.4257 102.226 54.8638 102.355 55.3276 102.355C55.7657 102.355 56.2295 102.226 56.6419 101.994L85.8899 85.1156V84.5229L56.3842 101.531ZM92.8476 17.0848C92.8476 15.0748 90.6572 13.8121 88.9307 14.8171L58.0849 32.6237C58.2138 32.7525 58.3169 32.8814 58.4199 33.0102L89.1626 15.281C90.5542 14.4821 92.3065 15.4871 92.3065 17.0848L92.4611 65.634C92.6157 65.531 92.7961 65.4279 92.9765 65.3506L92.8476 17.0848Z" fill="#010131"/>
<path d="M80.3503 4.1486L83.9579 2.06129C85.2979 1.28822 86.5091 1.21091 87.3595 1.70053L95.2964 6.31322C94.446 5.79783 93.2349 5.90091 91.8949 6.64822L53.4214 28.8871C50.7672 30.4074 48.6283 34.1182 48.6283 37.159V39.8132L48.8087 106.014L48.8345 110.911C48.8345 112.431 49.3499 113.462 50.226 113.977L42.2891 109.364C41.4387 108.849 40.8976 107.792 40.8976 106.272L40.6914 32.4948C40.6914 29.454 42.8303 25.7432 45.4845 24.2228L73.676 7.96245M72.7483 95.3459C73.8822 94.7017 74.7841 95.1913 74.7841 96.5055C74.7841 97.794 73.8822 99.3917 72.7483 100.036C71.6145 100.68 70.7126 100.139 70.7126 98.8505C70.7383 97.5363 71.6403 95.9901 72.7483 95.3459Z" fill="white"/>
<path d="M71.8697 100.551C71.6377 100.551 71.4058 100.5 71.2254 100.371C70.7616 100.113 70.5039 99.5463 70.5039 98.8248C70.5039 97.4332 71.4316 95.8098 72.6427 95.114C73.287 94.7532 73.8797 94.7017 74.3435 94.9594C74.8074 95.2171 75.0651 95.7582 75.0651 96.4798C75.0651 97.8713 74.1116 99.5463 72.9004 100.242C72.5397 100.448 72.1789 100.551 71.8697 100.551ZM73.6735 95.3202C73.4416 95.3202 73.1581 95.3975 72.8747 95.5779C71.8181 96.1705 70.9935 97.6394 70.9935 98.8506C70.9935 99.3917 71.1739 99.7782 71.4574 99.9586C71.7666 100.139 72.1789 100.087 72.617 99.8298C73.6735 99.2113 74.5239 97.7425 74.5239 96.5313C74.5239 96.0159 74.3693 95.6294 74.0601 95.449C73.957 95.3459 73.8281 95.3202 73.6735 95.3202Z" fill="#010131"/>
<path d="M76.4057 19.5073L69.113 23.7335L76.4057 19.5073Z" fill="white"/>
<path d="M69.112 23.991C69.0347 23.991 68.9316 23.9394 68.8801 23.8621C68.8028 23.7333 68.8543 23.5787 68.9832 23.5014L76.2758 19.301C76.4047 19.2237 76.5593 19.2752 76.6366 19.404C76.7139 19.5329 76.6624 19.6875 76.5335 19.7648L69.2408 23.9652C69.2151 23.991 69.1635 23.991 69.112 23.991Z" fill="#010131"/>
<path d="M56.332 39.9167C56.3836 39.4786 56.9247 38.5509 57.2855 38.2932L87.3324 20.9505C88.0797 20.5125 89.0332 21.0536 89.0332 21.9298L89.2136 61.8979C89.162 62.3359 88.6209 63.2636 88.2601 63.5213L58.2132 80.864C57.4659 81.3021 56.5124 80.7609 56.5124 79.8848L56.332 39.9167Z" fill="#7FFEF0"/>
<path d="M89.2931 21.9039C89.2931 21.4143 89.0355 20.9505 88.5974 20.6928C88.1593 20.4351 87.6439 20.4351 87.2058 20.6928L59.9678 36.412C60.0193 36.5924 60.0708 36.747 60.0966 36.9274L87.4635 21.1309C87.747 20.9762 88.0562 20.9762 88.3397 21.1309C88.6231 21.2855 88.7778 21.5689 88.7778 21.8782L88.9582 61.8205C88.9066 62.207 88.417 63.0059 88.1335 63.2378L58.1124 80.5805C57.8289 80.7351 57.5197 80.7351 57.2362 80.5805C56.9528 80.4259 56.7981 80.1424 56.7981 79.8332L56.6951 53.2136H56.1797L56.2828 79.8332C56.2828 80.3228 56.5405 80.7866 56.9785 81.0443C57.1847 81.1732 57.4424 81.2247 57.6743 81.2247C57.9062 81.2247 58.1639 81.1732 58.3701 81.0443L88.3912 63.7274C88.3912 63.7274 88.417 63.7274 88.417 63.7016C88.8293 63.3924 89.3962 62.4132 89.4735 61.8978V61.872L89.2931 21.9039Z" fill="#010131"/>
<path d="M72.7438 76.4058C75.5526 74.7823 77.8203 76.045 77.8203 79.2662C77.8203 82.4873 75.5784 86.43 72.7695 88.0535C69.9607 89.677 67.7188 88.337 67.7188 85.1158C67.7188 81.8689 69.9349 78.0035 72.7438 76.4058Z" fill="white"/>
<path d="M70.5275 88.981C70.0121 88.981 69.5225 88.8522 69.0844 88.6203C68.0279 88.0276 67.4609 86.7649 67.4609 85.0899C67.4609 81.7657 69.7029 77.8487 72.6148 76.1737C74.0579 75.3233 75.4494 75.1945 76.4802 75.813C77.5109 76.4057 78.0779 77.6426 78.0779 79.266C78.0779 82.5645 75.7586 86.6103 72.8982 88.2595C72.0736 88.7491 71.249 88.981 70.5275 88.981ZM72.8725 76.6118C70.1667 78.1837 67.9763 81.9718 67.9763 85.0899C67.9763 86.5587 68.4659 87.6668 69.3421 88.1564C70.2183 88.646 71.3779 88.543 72.6406 87.7957C75.3721 86.2237 77.5625 82.3841 77.5625 79.2403C77.5625 77.7972 77.0729 76.7149 76.2225 76.2253C75.3463 75.7357 74.1609 75.8645 72.8725 76.6118Z" fill="#010131"/>
<path d="M72.7461 79.2402L72.7719 85.1672L72.7461 79.2402Z" fill="white"/>
<path d="M72.7717 85.4251C72.6171 85.4251 72.5141 85.322 72.5141 85.1674L72.4883 79.2147C72.4883 79.0601 72.5914 78.957 72.746 78.957C72.9006 78.957 73.0037 79.0601 73.0037 79.2147L73.0294 85.1674C73.0294 85.322 72.9264 85.4251 72.7717 85.4251Z" fill="#010131"/>
<path d="M70.0156 83.8013L75.5302 80.606L70.0156 83.8013Z" fill="white"/>
<path d="M70.0143 84.0592C69.937 84.0592 69.834 84.0077 69.7824 83.9304C69.7051 83.8015 69.7567 83.6469 69.8855 83.5696L75.4259 80.3742C75.5547 80.2969 75.7093 80.3484 75.7867 80.4773C75.864 80.6061 75.8124 80.7608 75.6836 80.8381L70.1432 84.0334C70.0917 84.0592 70.0401 84.0592 70.0143 84.0592Z" fill="#010131"/>
<path d="M111.915 54.6825L129.077 44.9417C129.618 44.6583 130.082 44.6067 130.417 44.8129L133.587 46.6683C133.252 46.4621 132.762 46.4879 132.247 46.7971L91.1448 70.0925C90.1141 70.6852 89.2637 72.1541 89.2379 73.3394L89.1091 87.5383C89.1091 88.131 89.2895 88.5433 89.6502 88.7494L86.4806 86.8941C86.1456 86.6879 85.9137 86.2756 85.9395 85.6829L86.0683 71.484C86.0683 70.2729 86.9187 68.8298 87.9752 68.2371L106.246 57.8521" fill="#7FFEF0"/>
<path d="M134.128 47.8792L133.999 62.0781C133.999 63.2635 133.149 64.7323 132.092 65.325L90.9905 88.6462C89.934 89.2388 89.1094 88.7492 89.1094 87.5381L89.2382 73.3392C89.2382 72.1539 90.0886 70.685 91.1452 70.0923L132.247 46.7969C133.278 46.2042 134.128 46.6939 134.128 47.8792Z" fill="white"/>
<path d="M98.0514 69.2676C99.1852 68.6234 100.113 69.1387 100.113 70.4272C100.113 71.7414 99.211 73.3134 98.0772 73.9576C96.9433 74.6018 96.0156 74.0864 96.0156 72.798C96.0156 71.5095 96.9175 69.9376 98.0514 69.2676Z" fill="#7FFEF0"/>
<path d="M95.7578 72.8237C95.7578 71.4322 96.7113 69.7572 97.9224 69.0614C99.2367 68.3141 100.371 68.9583 100.371 70.453C100.371 71.8703 99.417 73.5195 98.2059 74.2153C96.8917 74.9626 95.7578 74.3183 95.7578 72.8237ZM98.1801 69.4995C97.1236 70.118 96.2732 71.5868 96.2732 72.8237C96.2732 73.9318 96.969 74.3183 97.9482 73.7772C99.0047 73.1587 99.8551 71.6899 99.8551 70.453C99.8551 69.3449 99.1336 68.9583 98.1801 69.4995Z" fill="#010131"/>
<path d="M98.0782 75.5038C100.732 73.9834 102.871 75.1945 102.871 78.2353V78.2868L93.2852 83.8272V83.7757C93.2852 80.7349 95.424 77.0241 98.0782 75.5038Z" fill="#7FFEF0"/>
<path d="M93.0508 83.8274V83.7759C93.0508 80.6578 95.2412 76.844 97.9469 75.2721C100.756 73.6486 103.127 74.9886 103.127 78.2355V78.287C103.127 78.3901 103.075 78.4674 102.998 78.519L93.4115 84.0594C93.2569 84.1367 93.0508 84.0336 93.0508 83.8274ZM98.2046 75.7359C95.7566 77.1532 93.7466 80.5032 93.5662 83.3894L102.611 78.1582C102.56 75.3494 100.627 74.3186 98.2046 75.7359Z" fill="#010131"/>
<path d="M107.947 65.6602L108.874 68.3402L111.786 66.6394L109.441 69.9894L110.395 72.6952L107.998 72.0767L105.653 75.4782L106.529 71.7159L104.133 71.1232L107.071 69.4225L107.947 65.6602Z" fill="#7FFEF0"/>
<path d="M105.653 75.7358C105.628 75.7358 105.576 75.7358 105.55 75.71C105.447 75.6585 105.37 75.5297 105.396 75.4266L106.22 71.922L104.081 71.3808C103.978 71.355 103.901 71.2777 103.901 71.1747C103.875 71.0716 103.927 70.9685 104.03 70.917L106.865 69.2677L107.715 65.6085C107.741 65.5054 107.844 65.4281 107.947 65.4023C108.076 65.4023 108.179 65.4797 108.205 65.5827L109.029 67.9793L111.683 66.4331C111.786 66.3816 111.915 66.3816 111.993 66.4847C112.07 66.562 112.096 66.7166 112.018 66.8196L109.751 70.0666L110.653 72.6435C110.678 72.7208 110.653 72.8239 110.601 72.9012C110.55 72.9785 110.446 73.0043 110.343 72.9785L108.127 72.4116L105.885 75.6585C105.808 75.6843 105.731 75.7358 105.653 75.7358ZM104.803 71.02L106.581 71.4581C106.71 71.4839 106.813 71.6385 106.761 71.7673L106.195 74.2154L107.792 71.922C107.844 71.8447 107.973 71.7931 108.076 71.8189L110.008 72.3085L109.235 70.0666C109.21 69.9893 109.21 69.912 109.261 69.8347L110.936 67.4381L109.029 68.5462C108.952 68.5977 108.875 68.5977 108.797 68.572C108.72 68.5462 108.668 68.4947 108.643 68.4173L107.998 66.562L107.328 69.4481C107.303 69.5254 107.277 69.577 107.2 69.6027L104.803 71.02Z" fill="#010131"/>
<path d="M117.017 60.3774L117.945 63.0574L120.882 61.3567L118.537 64.7324L119.465 67.4124L117.069 66.794L114.724 70.1955L115.6 66.4332L113.203 65.8405L116.141 64.1397L117.017 60.3774Z" fill="#7FFEF0"/>
<path d="M114.724 70.4531C114.698 70.4531 114.646 70.4531 114.621 70.4273C114.518 70.3758 114.44 70.2469 114.466 70.1439L115.291 66.6392L113.152 66.0981C113.049 66.0723 112.971 65.995 112.971 65.8919C112.946 65.7889 112.997 65.6858 113.1 65.6342L115.935 63.985L116.785 60.3258C116.811 60.2227 116.914 60.1454 117.017 60.1196C117.146 60.1196 117.249 60.1712 117.275 60.3L118.099 62.6966L120.754 61.1504C120.857 61.0989 120.986 61.0989 121.063 61.2019C121.14 61.2792 121.166 61.4339 121.089 61.5369L118.821 64.7839L119.723 67.3608C119.749 67.4381 119.723 67.5412 119.671 67.6185C119.62 67.6958 119.517 67.7216 119.414 67.6958L117.198 67.1289L114.93 70.35C114.878 70.4016 114.801 70.4531 114.724 70.4531ZM113.899 65.7373L115.677 66.1754C115.806 66.2012 115.909 66.3558 115.858 66.4846L115.291 68.9327L116.888 66.6392C116.94 66.5619 117.069 66.5104 117.172 66.5362L119.104 67.0258L118.331 64.7839C118.306 64.7065 118.306 64.6292 118.357 64.5519L120.032 62.1554L118.125 63.2635C118.048 63.315 117.971 63.315 117.893 63.2892C117.816 63.2635 117.764 63.2119 117.739 63.1346L117.094 61.2792L116.424 64.1654C116.399 64.2427 116.373 64.2942 116.296 64.32L113.899 65.7373Z" fill="#010131"/>
<path d="M126.089 55.0947L127.042 57.7747L129.954 56.074L127.609 59.4497L128.537 62.1297L126.14 61.5113L123.795 64.9128L124.672 61.1505L122.301 60.5578L125.213 58.857L126.089 55.0947Z" fill="#7FFEF0"/>
<path d="M123.798 65.1704C123.772 65.1704 123.721 65.1704 123.695 65.1446C123.592 65.0931 123.514 64.9642 123.54 64.8611L124.365 61.3565L122.226 60.8154C122.123 60.7896 122.046 60.7123 122.046 60.6092C122.02 60.5061 122.071 60.4031 122.174 60.3515L125.009 58.7023L125.859 55.0431C125.885 54.94 125.988 54.8627 126.091 54.8369C126.22 54.8369 126.323 54.9142 126.349 55.0173L127.174 57.4138L129.828 55.8677C129.931 55.8161 130.06 55.8161 130.137 55.9192C130.214 55.9965 130.24 56.1511 130.163 56.2542L127.895 59.5011L128.797 62.0781C128.823 62.1554 128.797 62.2585 128.746 62.3358C128.694 62.4131 128.591 62.4388 128.488 62.4131L126.272 61.8461L124.03 65.0931C123.953 65.1188 123.875 65.1704 123.798 65.1704ZM122.973 60.4546L124.751 60.8927C124.88 60.9185 124.983 61.0731 124.932 61.2019L124.365 63.65L125.963 61.3565C126.014 61.2792 126.143 61.2277 126.246 61.2535L128.179 61.7431L127.406 59.5011C127.38 59.4238 127.38 59.3465 127.431 59.2692L129.106 56.8727L127.199 57.9808C127.122 58.0323 127.045 58.0323 126.968 58.0065C126.89 57.9808 126.839 57.9292 126.813 57.8519L126.169 55.9965L125.499 58.8827C125.473 58.96 125.447 59.0115 125.37 59.0373L122.973 60.4546Z" fill="#010131"/>
<path d="M37.8523 41.6171L55.0146 31.8763C55.5558 31.5928 56.0196 31.5413 56.3546 31.7475L59.5243 33.6028C59.1893 33.3967 58.6996 33.4225 58.1843 33.7317L17.0823 57.0528C16.0516 57.6455 15.2012 59.1144 15.1754 60.2998L15.0466 74.4986C15.0466 75.0913 15.227 75.5036 15.5877 75.7098L12.4181 73.8544C12.0831 73.6482 11.8512 73.2359 11.877 72.6432L12.0058 58.4444C12.0058 57.2332 12.8562 55.7902 13.9127 55.1975L32.1831 44.8125" fill="#7FFEF0"/>
<path d="M60.0657 34.8402L59.9369 49.039C59.9369 50.2244 59.0865 51.6933 58.0299 52.2859L16.928 75.6071C15.8715 76.1998 15.0469 75.7102 15.0469 74.499L15.1757 60.3002C15.1757 59.1148 16.0261 57.6459 17.0826 57.0533L58.1846 33.7579C59.2153 33.1652 60.0657 33.6548 60.0657 34.8402Z" fill="white"/>
<path d="M133.793 46.4877C133.767 46.4362 133.587 46.3589 130.546 44.5808C130.237 44.4004 129.721 44.2716 128.948 44.7096L111.786 54.4504C111.657 54.5277 111.631 54.6823 111.683 54.8112C111.76 54.94 111.915 54.9658 112.044 54.9143L129.206 45.1735C129.515 45.0189 129.953 44.8385 130.288 45.0446L132.582 46.3846C132.453 46.4362 132.273 46.5135 132.144 46.5908C116.656 55.3781 125.573 50.3273 91.0419 69.8862C89.8822 70.5304 89.0061 72.1023 89.0061 73.3393L88.8772 87.5381C88.8772 87.6927 88.903 87.8731 88.9288 88.0019L86.6611 86.6619C86.3776 86.5073 86.223 86.1466 86.2488 85.6569L86.3776 71.4581C86.3776 70.35 87.1765 68.9843 88.1557 68.4431C107.534 57.4654 94.2372 64.99 106.426 58.0581C106.555 57.9808 106.606 57.8262 106.529 57.6973C106.452 57.5685 106.297 57.5427 106.168 57.5943L97.1492 62.7223L97.0719 39.8393C97.0719 39.6846 96.9688 39.5816 96.8142 39.5816C96.6596 39.5816 96.5565 39.6846 96.5565 39.8393C96.5565 43.3439 96.608 59.6043 96.6338 63.0058L87.8465 68.0308C86.7126 68.675 85.8107 70.1954 85.7849 71.4839L85.6561 85.6827C85.6561 86.3527 85.888 86.8681 86.3261 87.1258C89.908 89.2389 89.5215 88.9812 89.5472 89.0069C90.0111 89.2646 90.6296 89.1358 91.0934 88.8781L96.0669 86.0693C95.268 88.1823 93.7476 90.2181 91.9696 91.2231L53.4703 113.436C50.9965 114.879 49.0638 113.745 49.0638 110.937C49.038 98.0519 49.038 102.381 48.9092 57.7231L58.1346 52.4919C59.2426 51.8735 60.1446 50.3273 60.1703 49.0389L60.2992 34.84C60.2992 34.1958 60.093 33.7062 59.6807 33.4485C59.6549 33.4227 59.5003 33.3454 56.4338 31.5416C56.1246 31.3612 55.6092 31.2323 54.8361 31.6704L49.2184 34.8658C49.8884 32.5981 51.5376 30.2273 53.5219 29.1193L91.9953 6.88041C94.5465 5.43733 96.4019 6.62272 96.4276 9.40579L96.4792 29.7377C96.4792 29.8923 96.608 29.9954 96.7369 29.9954C96.8657 29.9954 96.9946 29.8923 96.9946 29.7377L96.943 9.40579C96.943 7.83387 96.4019 6.67425 95.3969 6.10733C95.1392 5.97849 93.2065 4.81887 87.4857 1.49464C86.5065 0.927716 85.218 1.03079 83.8265 1.85541L80.2188 3.94272C80.0899 4.02002 80.0642 4.17464 80.1157 4.30349C80.193 4.43233 80.3476 4.4581 80.4765 4.40656L84.0842 2.31925C85.2953 1.62349 86.4292 1.49464 87.228 1.95849L93.7992 5.74656C93.1807 5.7981 92.5622 5.97849 91.7892 6.41656L91.7634 6.44233L87.8465 8.71002L53.2642 28.6812C51.0738 29.9439 49.2442 32.6496 48.5999 35.2523L40.9722 39.5558L40.9465 32.5466C40.9465 29.5831 43.0338 25.9754 45.6107 24.4808L73.7765 8.22041C73.9053 8.1431 73.9569 7.98849 73.8796 7.85964C73.8022 7.73079 73.6476 7.70502 73.5188 7.75656L45.353 24.0427C42.6472 25.6146 40.4311 29.4285 40.4311 32.5466L40.4569 39.865L37.7253 41.4112C37.5965 41.4885 37.5449 41.6431 37.6222 41.7719C37.6996 41.9008 37.8542 41.9266 37.983 41.875C41.8999 39.6589 51.2284 34.3762 55.1453 32.1343C55.4546 31.9539 55.8926 31.7993 56.2276 32.0054L58.5211 33.3454C58.4438 33.3712 58.2634 33.4485 58.0573 33.5516C57.8769 33.6546 22.1092 53.935 16.9553 56.8469C15.8472 57.4912 14.9196 58.9858 14.9196 60.3L14.7907 74.4989C14.7907 74.6535 14.8165 74.8339 14.8422 74.9627L12.5746 73.6227C12.2911 73.4681 12.1365 73.1073 12.1622 72.6435L12.2911 58.4446C12.2911 57.3366 13.0899 55.9708 14.0692 55.4296L32.3396 45.0446C32.4684 44.9673 32.4942 44.8127 32.4426 44.6839C32.3653 44.555 32.2107 44.5035 32.0819 44.5808L13.8115 54.9658C12.6776 55.61 11.7757 57.1304 11.7499 58.4189L11.6211 72.6177C11.6211 73.2877 11.853 73.8031 12.2911 74.0608L15.4607 75.9162C15.9761 76.1996 16.543 76.0708 17.0584 75.8131L40.5084 62.5162L40.6372 106.298C40.6372 107.844 41.1784 109.03 42.1576 109.597C50.5584 114.467 50.0946 114.209 50.1203 114.209C51.2542 114.853 52.6199 114.518 53.7538 113.848L92.253 91.6612C94.263 90.5016 95.9896 88.105 96.7369 85.6827L132.221 65.5569C133.329 64.9385 134.231 63.3923 134.257 62.1039L134.386 47.905C134.386 47.2608 134.18 46.7712 133.793 46.4877ZM40.5084 61.9235L16.8007 75.375C15.9246 75.8646 15.2803 75.4781 15.3061 74.4989L15.4349 60.3C15.4349 59.1662 16.2596 57.8262 17.213 57.285C34.9422 47.235 40.9722 43.8077 58.3149 33.9896C59.1396 33.5258 59.8096 33.8093 59.8096 34.8658L59.6807 49.0646C59.6807 50.1727 58.8561 51.5643 57.9026 52.0796L48.9349 57.1562L48.4196 57.4396L41.0238 61.64L40.5084 61.9235ZM42.4411 109.158C41.6165 108.669 41.1526 107.664 41.1526 106.298L41.0238 62.2069L48.4196 58.0066C48.5484 100.835 48.5484 99.83 48.5742 110.911C48.5742 111.555 48.6772 112.096 48.8061 112.483C48.8576 112.689 48.9865 112.947 49.0122 112.972L42.4411 109.158ZM133.741 62.0781C133.741 63.1862 132.917 64.5519 131.963 65.0931C129.206 66.665 93.1292 87.1258 90.8615 88.4143C90.0369 88.8781 89.3669 88.6204 89.3669 87.5381L89.4957 73.3393C89.4957 72.257 90.2688 70.8912 91.2738 70.3242C102.303 64.0623 113.77 57.5685 132.376 47.0289C133.2 46.565 133.87 46.8485 133.87 47.905L133.741 62.0781Z" fill="#325FEC"/>
<path d="M23.9889 56.2285C25.1227 55.5843 26.0504 56.0997 26.0504 57.3881C26.0504 58.7024 25.1485 60.2743 24.0147 60.9185C22.8808 61.5628 21.9531 61.0474 21.9531 59.7589C21.9531 58.4704 22.855 56.8728 23.9889 56.2285Z" fill="#7FFEF0"/>
<path d="M23.0869 61.4852C22.8549 61.4852 22.623 61.4336 22.4169 61.3048C21.953 61.0471 21.6953 60.4802 21.6953 59.7586C21.6953 58.3671 22.6488 56.6921 23.8599 55.9963C24.5042 55.6356 25.0969 55.584 25.5607 55.8417C26.0245 56.0994 26.2822 56.6663 26.2822 57.3879C26.2822 58.8052 25.3288 60.4544 24.1176 61.1502C23.7569 61.3821 23.3961 61.4852 23.0869 61.4852ZM24.9165 56.2025C24.6845 56.2025 24.4011 56.2798 24.1176 56.4602C23.0611 57.0786 22.2107 58.5475 22.2107 59.7844C22.2107 60.3256 22.3911 60.7121 22.6745 60.8667C22.9838 61.0471 23.3961 60.9956 23.8599 60.7121C24.9165 60.0936 25.7669 58.6248 25.7669 57.3879C25.7669 56.8467 25.5865 56.4602 25.303 56.3056C25.1999 56.2283 25.0453 56.2025 24.9165 56.2025Z" fill="#010131"/>
<path d="M24.0196 62.4647C26.6739 60.9443 28.8127 62.1555 28.8127 65.1962V65.2478L19.2266 70.7882V70.7366C19.2266 67.6701 21.3654 63.9851 24.0196 62.4647Z" fill="#7FFEF0"/>
<path d="M19.2264 71.0201C19.1749 71.0201 19.1491 71.0201 19.0976 70.9943C19.0203 70.9428 18.9688 70.8655 18.9688 70.7624V70.7109C18.9688 67.5928 21.1591 63.7789 23.8649 62.207C25.2307 61.4082 26.5191 61.3051 27.5241 61.872C28.5034 62.4389 29.0445 63.5985 29.0703 65.1705V65.222C29.0703 65.3251 29.0188 65.4024 28.9414 65.4539L19.3553 70.9943C19.3295 71.0201 19.278 71.0201 19.2264 71.0201ZM24.1484 62.6709C21.7003 64.0882 19.6903 67.4382 19.5099 70.3243L28.5549 65.0932C28.5291 63.7789 28.0911 62.7997 27.2922 62.3359C26.4418 61.872 25.3337 61.9751 24.1484 62.6709Z" fill="#010131"/>
<path d="M33.8584 52.5952L34.8119 55.301L37.7238 53.5744L35.3788 56.9502L36.3322 59.6302L33.9357 59.0375L31.5649 62.4133L32.4411 58.6768L30.0703 58.0841L32.9822 56.3575L33.8584 52.5952Z" fill="#7FFEF0"/>
<path d="M31.5648 62.6709C31.539 62.6709 31.4875 62.6709 31.4617 62.6451C31.3587 62.5936 31.2813 62.4647 31.3071 62.3616L32.1317 58.857L29.9929 58.3159C29.8898 58.2901 29.8125 58.2128 29.8125 58.1097C29.8125 58.0066 29.8383 57.9036 29.9413 57.852L32.776 56.2028L33.6263 52.5436C33.6521 52.4405 33.7552 52.3632 33.8583 52.3374C33.9871 52.3374 34.0902 52.4147 34.116 52.5178L34.9406 54.9143L37.5948 53.3682C37.6979 53.3166 37.8267 53.3166 37.904 53.4197C37.9813 53.497 38.0071 53.6516 37.9298 53.7547L35.6621 57.0016L36.564 59.5786C36.5898 59.6559 36.564 59.7589 36.5125 59.8362C36.461 59.9136 36.3579 59.9393 36.2548 59.9136L34.0387 59.3466L31.7967 62.5936C31.7452 62.6451 31.6421 62.6709 31.5648 62.6709ZM30.7402 57.9809L32.5183 58.4189C32.6471 58.4447 32.7502 58.5993 32.6987 58.7282L32.1317 61.1762L33.7294 58.8828C33.781 58.8055 33.9098 58.7539 34.0129 58.7797L35.9456 59.2693L35.1725 57.0274C35.1467 56.9501 35.1467 56.8728 35.1983 56.7955L36.8733 54.3989L34.9663 55.507C34.889 55.5586 34.8117 55.5586 34.7344 55.5328C34.6571 55.507 34.6056 55.4555 34.5798 55.3782L33.9356 53.5228L33.2656 56.4089C33.2398 56.4862 33.214 56.5378 33.1367 56.5636L30.7402 57.9809Z" fill="#010131"/>
<path d="M42.9545 47.3379L43.8822 50.0179L46.7941 48.3171L44.4491 51.6671L45.4025 54.3729L43.006 53.7544L40.6352 57.156L41.5372 53.3937L39.1406 52.801L42.0525 51.0744L42.9545 47.3379Z" fill="#7FFEF0"/>
<path d="M40.6378 57.414C40.612 57.414 40.5605 57.414 40.5347 57.3883C40.4316 57.3367 40.3543 57.2079 40.3801 57.1048L41.2047 53.6002L39.0659 53.059C38.9628 53.0333 38.8855 52.956 38.8855 52.8529C38.8597 52.7498 38.9112 52.6467 39.0143 52.5952L41.8489 50.946L42.6993 47.2867C42.7251 47.1836 42.8282 47.1063 42.9312 47.0806C43.0601 47.0806 43.1632 47.1321 43.1889 47.261L44.0136 49.6575L46.6678 48.1113C46.7709 48.0598 46.8997 48.0598 46.977 48.1629C47.0543 48.2402 47.0801 48.3948 47.0028 48.4979L44.7351 51.7448L45.637 54.3217C45.6628 54.399 45.637 54.5021 45.5855 54.5794C45.5339 54.6567 45.4309 54.6825 45.3278 54.6567L43.1116 54.0898L40.8697 57.3367C40.8182 57.3625 40.7409 57.414 40.6378 57.414ZM39.8132 52.6983L41.5912 53.1363C41.7201 53.1621 41.8232 53.3167 41.7716 53.4456L41.2047 55.8936L42.8024 53.6002C42.8539 53.5229 42.9828 53.4713 43.0859 53.4971L45.0186 53.9867L44.2455 51.7448C44.2197 51.6675 44.2197 51.5902 44.2712 51.5129L45.9462 49.1163L44.0393 50.2244C43.962 50.276 43.8847 50.276 43.8074 50.2502C43.7301 50.2244 43.6786 50.1729 43.6528 50.0956L43.0086 48.2402L42.3386 51.1263C42.3128 51.2036 42.287 51.2552 42.2097 51.281L39.8132 52.6983Z" fill="#010131"/>
<path d="M52.0287 42.0552L52.9564 44.7352L55.8683 43.0344L53.5233 46.3844L54.4768 49.0902L52.0802 48.4717L49.7352 51.8733L50.6114 48.1109L48.2148 47.5183L51.1525 45.7917L52.0287 42.0552Z" fill="#7FFEF0"/>
<path d="M49.7354 52.1313C49.7097 52.1313 49.6581 52.1313 49.6324 52.1055C49.5293 52.054 49.452 51.9252 49.4777 51.8221L50.3024 48.3175L48.1635 47.7763C48.0604 47.7505 47.9831 47.6732 47.9831 47.5702C47.9574 47.4671 48.0089 47.364 48.112 47.3125L50.9466 45.6632L51.797 42.004C51.8227 41.9009 51.9258 41.8236 52.0289 41.7979C52.1577 41.7979 52.2608 41.8752 52.2866 41.9782L53.1112 44.3748L55.7654 42.8286C55.8685 42.7771 55.9974 42.7771 56.0747 42.8802C56.152 42.9575 56.1777 43.1121 56.1004 43.2152L53.8327 46.4621L54.7347 49.039C54.7604 49.1163 54.7347 49.2194 54.6831 49.2967C54.6316 49.374 54.5285 49.3998 54.4254 49.374L52.2093 48.8071L49.9674 52.054C49.8901 52.0798 49.8127 52.1313 49.7354 52.1313ZM48.8851 47.4155L50.6631 47.8536C50.792 47.8794 50.8951 48.034 50.8435 48.1629L50.2766 50.6109L51.8743 48.3175C51.9258 48.2402 52.0547 48.1886 52.1577 48.2144L54.0904 48.704L53.3174 46.4621C53.2916 46.3848 53.2916 46.3075 53.3431 46.2302L55.0181 43.8336L53.1112 44.9417C53.0339 44.9932 52.9566 44.9932 52.8793 44.9675C52.802 44.9417 52.7504 44.8902 52.7247 44.8129L52.0804 42.9575L51.4104 45.8436C51.3847 45.9209 51.3589 45.9725 51.2816 45.9982L48.8851 47.4155Z" fill="#010131"/>
</g>
<defs>
<clipPath id="clip0_114_225">
<rect width="134" height="134" fill="white"/>
</clipPath>
</defs>
</svg>
