<svg width="134" height="135" viewBox="0 0 134 135" fill="none" xmlns="http://www.w3.org/2000/svg">
<g clip-path="url(#clip0_146_1164)">
<path d="M65.9933 133.366C65.1686 133.366 64.3183 133.186 63.674 132.799L0.616707 96.4132C-0.0532932 96.0267 -0.414062 95.5113 -0.414062 94.9702C-0.414062 94.429 -0.0532932 93.9136 0.590938 93.5271L63.2359 57.1152C64.5244 56.3679 66.5344 56.3679 67.8486 57.1152L130.906 93.5271C131.55 93.9136 131.911 94.429 131.911 94.9702C131.911 95.5113 131.55 96.0267 130.906 96.4132L68.2867 132.825C67.6425 133.186 66.8179 133.366 65.9933 133.366ZM65.5552 56.9606C64.7821 56.9606 64.0348 57.1152 63.4421 57.4502L0.797091 93.8621C0.281707 94.1713 -0.00175476 94.5579 -0.00175476 94.9702C-0.00175476 95.3825 0.281707 95.769 0.822861 96.0782L63.8802 132.464C65.0398 133.134 66.9209 133.134 68.1063 132.464L130.751 96.0525C131.267 95.7432 131.55 95.3567 131.55 94.9444C131.55 94.5321 131.267 94.1456 130.726 93.8363L67.6683 57.4502C67.0756 57.1152 66.3283 56.9606 65.5552 56.9606Z" fill="#7FFEF0"/>
<path d="M83.9039 123.729C83.8781 123.729 83.8266 123.729 83.8008 123.703L79.8581 121.435C79.755 121.384 79.7293 121.255 79.7808 121.177C79.8323 121.074 79.9612 121.049 80.0385 121.1L83.9812 123.368C84.0843 123.419 84.11 123.548 84.0585 123.625C84.0327 123.677 83.9812 123.729 83.9039 123.729ZM94.4177 117.595C94.3919 117.595 94.3404 117.595 94.3146 117.57L90.372 115.302C90.2689 115.25 90.2431 115.122 90.2946 115.044C90.3462 114.941 90.475 114.915 90.5523 114.967L94.495 117.235C94.5981 117.286 94.6239 117.415 94.5723 117.492C94.5466 117.57 94.495 117.595 94.4177 117.595ZM104.932 111.488C104.906 111.488 104.854 111.488 104.828 111.462L102.69 110.225C102.587 110.174 102.561 110.045 102.612 109.968C102.664 109.865 102.793 109.839 102.87 109.89L105.009 111.127C105.112 111.179 105.138 111.308 105.086 111.385C105.06 111.462 105.009 111.488 104.932 111.488ZM115.445 105.381C115.42 105.381 115.368 105.381 115.342 105.355L113.203 104.118C113.1 104.067 113.075 103.938 113.126 103.86C113.178 103.757 113.307 103.732 113.384 103.783L115.523 105.02C115.626 105.072 115.652 105.2 115.6 105.278C115.574 105.355 115.523 105.381 115.445 105.381ZM125.959 99.2736C125.933 99.2736 125.882 99.2736 125.856 99.2478L123.717 98.0109C123.614 97.9593 123.588 97.8305 123.64 97.7532C123.692 97.6501 123.82 97.6243 123.898 97.6759L126.037 98.9128C126.14 98.9643 126.165 99.0932 126.114 99.1705C126.088 99.2478 126.037 99.2736 125.959 99.2736ZM57.8769 129.424C57.7996 129.424 57.7481 129.398 57.6966 129.32C57.645 129.217 57.6708 129.114 57.7739 129.063L59.7066 127.955C59.8096 127.903 59.9127 127.929 59.9643 128.032C60.0158 128.135 59.99 128.238 59.8869 128.29L57.9543 129.398C57.9543 129.424 57.9285 129.424 57.8769 129.424ZM47.3631 123.316C47.2858 123.316 47.2343 123.29 47.1827 123.213C47.1312 123.11 47.1569 123.007 47.26 122.955L49.0123 121.95C49.1154 121.899 49.2185 121.925 49.27 122.028C49.3216 122.131 49.2958 122.234 49.1927 122.285L47.4404 123.29C47.4404 123.316 47.4146 123.316 47.3631 123.316ZM36.8493 117.209C36.7719 117.209 36.7204 117.183 36.6689 117.106C36.6173 117.003 36.6431 116.9 36.7462 116.848L40.6889 114.58C40.7919 114.529 40.895 114.555 40.9466 114.658C40.9981 114.761 40.9723 114.864 40.8693 114.915L36.9266 117.183C36.9266 117.183 36.875 117.209 36.8493 117.209ZM26.3354 111.076C26.2581 111.076 26.2066 111.05 26.155 110.973C26.1035 110.87 26.1293 110.767 26.2323 110.715L28.3712 109.478C28.4743 109.427 28.5773 109.452 28.6289 109.555C28.6804 109.659 28.6546 109.762 28.5516 109.813L26.4127 111.05C26.4127 111.076 26.3612 111.076 26.3354 111.076ZM15.8216 104.969C15.7443 104.969 15.6927 104.943 15.6412 104.865C15.5896 104.762 15.6154 104.659 15.7185 104.608L20.9496 101.644C21.0527 101.593 21.1558 101.619 21.2073 101.722C21.2589 101.825 21.2331 101.928 21.13 101.979L15.8989 104.943C15.8989 104.969 15.8473 104.969 15.8216 104.969ZM5.30772 98.8613C5.23041 98.8613 5.17887 98.8355 5.12733 98.7582C5.07579 98.6551 5.10156 98.552 5.20464 98.5005L7.34349 97.2636C7.44656 97.212 7.54964 97.2378 7.60118 97.3409C7.65272 97.4439 7.62695 97.547 7.52387 97.5986L5.38502 98.8355C5.38502 98.8613 5.33349 98.8613 5.30772 98.8613Z" fill="#7FFEF0"/>
<path opacity="0.4" d="M108.203 84.8686C109.517 85.6417 109.543 86.8786 108.229 87.6259L60.5043 115.302C59.1901 116.075 57.0512 116.075 55.7112 115.302L49.2174 111.359C47.9032 110.586 47.8774 109.349 49.1916 108.576L96.8905 80.9001C98.2047 80.127 100.344 80.127 101.684 80.9001L108.203 84.8686Z" fill="#7FFEF0"/>
<path d="M96.7877 40.4165L96.9165 83.683C96.9165 86.7238 94.7777 90.4345 92.1492 91.9549L53.65 114.168C50.9958 115.688 48.8569 114.477 48.8312 111.436L48.625 37.6592C48.625 34.6184 50.7638 30.9076 53.3923 29.3872L91.8915 7.17416C94.5458 5.65378 96.6846 6.86493 96.7104 9.9057L96.7619 30.2376" fill="#7FFEF0"/>
<path d="M52.7734 39.6179C52.7734 38.0459 54.1134 35.7267 55.4792 34.9279L89.0307 15.5494C90.6027 14.6475 92.5611 15.7813 92.5611 17.5852L92.7415 78.1944C92.7415 79.7663 91.4015 82.0855 90.0357 82.8586L56.4842 102.237C54.9123 103.139 52.9538 102.005 52.9538 100.201L52.7734 39.6179Z" fill="white"/>
<path d="M56.3842 102.031C55.7142 102.417 54.9411 102.417 54.2711 102.031C53.6011 101.644 53.2145 100.974 53.2145 100.201L53.0857 55.646H52.5703L52.6992 100.227C52.6992 101.18 53.1888 102.031 54.0134 102.494C54.4257 102.726 54.8638 102.855 55.3276 102.855C55.7657 102.855 56.2295 102.726 56.6419 102.494L85.8899 85.6156V85.0229L56.3842 102.031ZM92.8476 17.5848C92.8476 15.5748 90.6572 14.3121 88.9307 15.3171L58.0849 33.1237C58.2138 33.2525 58.3169 33.3814 58.4199 33.5102L89.1626 15.781C90.5542 14.9821 92.3065 15.9871 92.3065 17.5848L92.4611 66.134C92.6157 66.031 92.7961 65.9279 92.9765 65.8506L92.8476 17.5848Z" fill="#040404"/>
<path d="M80.3503 4.6486L83.9579 2.56129C85.2979 1.78822 86.5091 1.71091 87.3595 2.20053L95.2964 6.81322C94.446 6.29783 93.2349 6.40091 91.8949 7.14822L53.4214 29.3871C50.7672 30.9074 48.6283 34.6182 48.6283 37.659V40.3132L48.8087 106.514L48.8345 111.411C48.8345 112.931 49.3499 113.962 50.226 114.477L42.2891 109.864C41.4387 109.349 40.8976 108.292 40.8976 106.772L40.6914 32.9948C40.6914 29.954 42.8303 26.2432 45.4845 24.7228L73.676 8.46245M72.7483 95.8459C73.8822 95.2017 74.7841 95.6913 74.7841 97.0055C74.7841 98.294 73.8822 99.8917 72.7483 100.536C71.6145 101.18 70.7126 100.639 70.7126 99.3505C70.7383 98.0363 71.6403 96.4901 72.7483 95.8459Z" fill="white"/>
<path d="M71.8697 101.051C71.6377 101.051 71.4058 101 71.2254 100.871C70.7616 100.613 70.5039 100.046 70.5039 99.3248C70.5039 97.9332 71.4316 96.3098 72.6427 95.614C73.287 95.2532 73.8797 95.2017 74.3435 95.4594C74.8074 95.7171 75.0651 96.2582 75.0651 96.9798C75.0651 98.3713 74.1116 100.046 72.9004 100.742C72.5397 100.948 72.1789 101.051 71.8697 101.051ZM73.6735 95.8202C73.4416 95.8202 73.1581 95.8975 72.8747 96.0779C71.8181 96.6705 70.9935 98.1394 70.9935 99.3506C70.9935 99.8917 71.1739 100.278 71.4574 100.459C71.7666 100.639 72.1789 100.587 72.617 100.33C73.6735 99.7113 74.5239 98.2425 74.5239 97.0313C74.5239 96.5159 74.3693 96.1294 74.0601 95.949C73.957 95.8459 73.8281 95.8202 73.6735 95.8202Z" fill="#040404"/>
<path d="M76.4058 20.0073L69.1131 24.2335L76.4058 20.0073Z" fill="white"/>
<path d="M69.112 24.491C69.0347 24.491 68.9316 24.4394 68.8801 24.3621C68.8028 24.2333 68.8543 24.0787 68.9832 24.0014L76.2758 19.801C76.4047 19.7237 76.5593 19.7752 76.6366 19.904C76.7139 20.0329 76.6624 20.1875 76.5335 20.2648L69.2408 24.4652C69.2151 24.491 69.1635 24.491 69.112 24.491Z" fill="#040404"/>
<path d="M56.332 40.4167C56.3836 39.9786 56.9247 39.0509 57.2855 38.7932L87.3324 21.4505C88.0797 21.0125 89.0332 21.5536 89.0332 22.4298L89.2136 62.3979C89.162 62.8359 88.6209 63.7636 88.2601 64.0213L58.2132 81.364C57.4659 81.8021 56.5124 81.2609 56.5124 80.3848L56.332 40.4167Z" fill="#7FFEF0"/>
<path d="M89.2931 22.4039C89.2931 21.9143 89.0355 21.4505 88.5974 21.1928C88.1593 20.9351 87.6439 20.9351 87.2058 21.1928L59.9678 36.912C60.0193 37.0924 60.0708 37.247 60.0966 37.4274L87.4635 21.6309C87.747 21.4762 88.0562 21.4762 88.3397 21.6309C88.6231 21.7855 88.7778 22.0689 88.7778 22.3782L88.9582 62.3205C88.9066 62.707 88.417 63.5059 88.1335 63.7378L58.1124 81.0805C57.8289 81.2351 57.5197 81.2351 57.2362 81.0805C56.9528 80.9259 56.7981 80.6424 56.7981 80.3332L56.6951 53.7136H56.1797L56.2828 80.3332C56.2828 80.8228 56.5405 81.2866 56.9785 81.5443C57.1847 81.6732 57.4424 81.7247 57.6743 81.7247C57.9062 81.7247 58.1639 81.6732 58.3701 81.5443L88.3912 64.2274C88.3912 64.2274 88.417 64.2274 88.417 64.2016C88.8293 63.8924 89.3962 62.9132 89.4735 62.3978V62.372L89.2931 22.4039Z" fill="#040404"/>
<path d="M72.7438 76.9058C75.5526 75.2823 77.8203 76.545 77.8203 79.7662C77.8203 82.9873 75.5784 86.93 72.7695 88.5535C69.9607 90.177 67.7188 88.837 67.7188 85.6158C67.7188 82.3689 69.9349 78.5035 72.7438 76.9058Z" fill="white"/>
<path d="M70.5275 89.481C70.0121 89.481 69.5225 89.3522 69.0844 89.1203C68.0279 88.5276 67.4609 87.2649 67.4609 85.5899C67.4609 82.2657 69.7029 78.3487 72.6148 76.6737C74.0579 75.8233 75.4494 75.6945 76.4802 76.313C77.5109 76.9057 78.0779 78.1426 78.0779 79.766C78.0779 83.0645 75.7586 87.1103 72.8982 88.7595C72.0736 89.2491 71.249 89.481 70.5275 89.481ZM72.8725 77.1118C70.1667 78.6837 67.9763 82.4718 67.9763 85.5899C67.9763 87.0587 68.4659 88.1668 69.3421 88.6564C70.2183 89.146 71.3779 89.043 72.6406 88.2957C75.3721 86.7237 77.5625 82.8841 77.5625 79.7403C77.5625 78.2972 77.0729 77.2149 76.2225 76.7253C75.3463 76.2357 74.1609 76.3645 72.8725 77.1118Z" fill="#040404"/>
<path d="M72.7461 79.7402L72.7719 85.6672L72.7461 79.7402Z" fill="white"/>
<path d="M72.7717 85.9251C72.6171 85.9251 72.5141 85.822 72.5141 85.6674L72.4883 79.7147C72.4883 79.5601 72.5914 79.457 72.746 79.457C72.9006 79.457 73.0037 79.5601 73.0037 79.7147L73.0294 85.6674C73.0294 85.822 72.9264 85.9251 72.7717 85.9251Z" fill="#040404"/>
<path d="M70.0156 84.3013L75.5302 81.106L70.0156 84.3013Z" fill="white"/>
<path d="M70.0143 84.5592C69.937 84.5592 69.834 84.5077 69.7824 84.4304C69.7051 84.3015 69.7567 84.1469 69.8855 84.0696L75.4259 80.8742C75.5547 80.7969 75.7093 80.8484 75.7867 80.9773C75.864 81.1061 75.8124 81.2608 75.6836 81.3381L70.1432 84.5334C70.0917 84.5592 70.0401 84.5592 70.0143 84.5592Z" fill="#040404"/>
<path d="M111.915 55.1825L129.077 45.4417C129.618 45.1583 130.082 45.1067 130.417 45.3129L133.587 47.1683C133.252 46.9621 132.762 46.9879 132.247 47.2971L91.1448 70.5925C90.1141 71.1852 89.2637 72.6541 89.2379 73.8394L89.1091 88.0383C89.1091 88.631 89.2895 89.0433 89.6502 89.2494L86.4806 87.3941C86.1456 87.1879 85.9137 86.7756 85.9395 86.1829L86.0683 71.984C86.0683 70.7729 86.9187 69.3298 87.9752 68.7371L106.246 58.3521" fill="#7FFEF0"/>
<path d="M134.128 48.3792L133.999 62.5781C133.999 63.7635 133.149 65.2323 132.092 65.825L90.9905 89.1462C89.934 89.7388 89.1094 89.2492 89.1094 88.0381L89.2382 73.8392C89.2382 72.6539 90.0886 71.185 91.1452 70.5923L132.247 47.2969C133.278 46.7042 134.128 47.1939 134.128 48.3792Z" fill="white"/>
<path d="M98.0514 69.7676C99.1852 69.1234 100.113 69.6387 100.113 70.9272C100.113 72.2414 99.211 73.8134 98.0772 74.4576C96.9433 75.1018 96.0156 74.5864 96.0156 73.298C96.0156 72.0095 96.9175 70.4376 98.0514 69.7676Z" fill="#7FFEF0"/>
<path d="M95.7578 73.3237C95.7578 71.9322 96.7113 70.2572 97.9224 69.5614C99.2367 68.8141 100.371 69.4583 100.371 70.953C100.371 72.3703 99.417 74.0195 98.2059 74.7153C96.8917 75.4626 95.7578 74.8183 95.7578 73.3237ZM98.1801 69.9995C97.1236 70.618 96.2732 72.0868 96.2732 73.3237C96.2732 74.4318 96.969 74.8183 97.9482 74.2772C99.0047 73.6587 99.8551 72.1899 99.8551 70.953C99.8551 69.8449 99.1336 69.4583 98.1801 69.9995Z" fill="#040404"/>
<path d="M98.0782 76.0038C100.732 74.4834 102.871 75.6945 102.871 78.7353V78.7868L93.2852 84.3272V84.2757C93.2852 81.2349 95.424 77.5241 98.0782 76.0038Z" fill="#7FFEF0"/>
<path d="M93.0508 84.3274V84.2759C93.0508 81.1578 95.2412 77.344 97.9469 75.7721C100.756 74.1486 103.127 75.4886 103.127 78.7355V78.787C103.127 78.8901 103.075 78.9674 102.998 79.019L93.4115 84.5594C93.2569 84.6367 93.0508 84.5336 93.0508 84.3274ZM98.2046 76.2359C95.7566 77.6532 93.7466 81.0032 93.5662 83.8894L102.611 78.6582C102.56 75.8494 100.627 74.8186 98.2046 76.2359Z" fill="#040404"/>
<path d="M107.947 66.1602L108.874 68.8402L111.786 67.1394L109.441 70.4894L110.395 73.1952L107.998 72.5767L105.653 75.9782L106.529 72.2159L104.133 71.6232L107.071 69.9225L107.947 66.1602Z" fill="#7FFEF0"/>
<path d="M105.653 76.2358C105.628 76.2358 105.576 76.2358 105.55 76.21C105.447 76.1585 105.37 76.0297 105.396 75.9266L106.22 72.422L104.081 71.8808C103.978 71.855 103.901 71.7777 103.901 71.6747C103.875 71.5716 103.927 71.4685 104.03 71.417L106.865 69.7677L107.715 66.1085C107.741 66.0054 107.844 65.9281 107.947 65.9023C108.076 65.9023 108.179 65.9797 108.205 66.0827L109.029 68.4793L111.683 66.9331C111.786 66.8816 111.915 66.8816 111.993 66.9847C112.07 67.062 112.096 67.2166 112.018 67.3196L109.751 70.5666L110.653 73.1435C110.678 73.2208 110.653 73.3239 110.601 73.4012C110.55 73.4785 110.446 73.5043 110.343 73.4785L108.127 72.9116L105.885 76.1585C105.808 76.1843 105.731 76.2358 105.653 76.2358ZM104.803 71.52L106.581 71.9581C106.71 71.9839 106.813 72.1385 106.761 72.2673L106.195 74.7154L107.792 72.422C107.844 72.3447 107.973 72.2931 108.076 72.3189L110.008 72.8085L109.235 70.5666C109.21 70.4893 109.21 70.412 109.261 70.3347L110.936 67.9381L109.029 69.0462C108.952 69.0977 108.875 69.0977 108.797 69.072C108.72 69.0462 108.668 68.9947 108.643 68.9173L107.998 67.062L107.328 69.9481C107.303 70.0254 107.277 70.077 107.2 70.1027L104.803 71.52Z" fill="#040404"/>
<path d="M117.017 60.8774L117.945 63.5574L120.882 61.8567L118.537 65.2324L119.465 67.9124L117.069 67.294L114.724 70.6955L115.6 66.9332L113.203 66.3405L116.141 64.6397L117.017 60.8774Z" fill="#7FFEF0"/>
<path d="M114.724 70.9531C114.698 70.9531 114.646 70.9531 114.621 70.9273C114.518 70.8758 114.44 70.7469 114.466 70.6439L115.291 67.1392L113.152 66.5981C113.049 66.5723 112.971 66.495 112.971 66.3919C112.946 66.2889 112.997 66.1858 113.1 66.1342L115.935 64.485L116.785 60.8258C116.811 60.7227 116.914 60.6454 117.017 60.6196C117.146 60.6196 117.249 60.6712 117.275 60.8L118.099 63.1966L120.754 61.6504C120.857 61.5989 120.986 61.5989 121.063 61.7019C121.14 61.7792 121.166 61.9339 121.089 62.0369L118.821 65.2839L119.723 67.8608C119.749 67.9381 119.723 68.0412 119.671 68.1185C119.62 68.1958 119.517 68.2216 119.414 68.1958L117.198 67.6289L114.93 70.85C114.878 70.9016 114.801 70.9531 114.724 70.9531ZM113.899 66.2373L115.677 66.6754C115.806 66.7012 115.909 66.8558 115.858 66.9846L115.291 69.4327L116.888 67.1392C116.94 67.0619 117.069 67.0104 117.172 67.0362L119.104 67.5258L118.331 65.2839C118.306 65.2065 118.306 65.1292 118.357 65.0519L120.032 62.6554L118.125 63.7635C118.048 63.815 117.971 63.815 117.893 63.7892C117.816 63.7635 117.764 63.7119 117.739 63.6346L117.094 61.7792L116.424 64.6654C116.399 64.7427 116.373 64.7942 116.296 64.82L113.899 66.2373Z" fill="#040404"/>
<path d="M126.089 55.5947L127.042 58.2747L129.954 56.574L127.609 59.9497L128.537 62.6297L126.14 62.0113L123.795 65.4128L124.672 61.6505L122.301 61.0578L125.213 59.357L126.089 55.5947Z" fill="#7FFEF0"/>
<path d="M123.798 65.6704C123.772 65.6704 123.721 65.6704 123.695 65.6446C123.592 65.5931 123.514 65.4642 123.54 65.3611L124.365 61.8565L122.226 61.3154C122.123 61.2896 122.046 61.2123 122.046 61.1092C122.02 61.0061 122.071 60.9031 122.174 60.8515L125.009 59.2023L125.859 55.5431C125.885 55.44 125.988 55.3627 126.091 55.3369C126.22 55.3369 126.323 55.4142 126.349 55.5173L127.174 57.9138L129.828 56.3677C129.931 56.3161 130.06 56.3161 130.137 56.4192C130.214 56.4965 130.24 56.6511 130.163 56.7542L127.895 60.0011L128.797 62.5781C128.823 62.6554 128.797 62.7585 128.746 62.8358C128.694 62.9131 128.591 62.9388 128.488 62.9131L126.272 62.3461L124.03 65.5931C123.953 65.6188 123.875 65.6704 123.798 65.6704ZM122.973 60.9546L124.751 61.3927C124.88 61.4185 124.983 61.5731 124.932 61.7019L124.365 64.15L125.963 61.8565C126.014 61.7792 126.143 61.7277 126.246 61.7535L128.179 62.2431L127.406 60.0011C127.38 59.9238 127.38 59.8465 127.431 59.7692L129.106 57.3727L127.199 58.4808C127.122 58.5323 127.045 58.5323 126.968 58.5065C126.89 58.4808 126.839 58.4292 126.813 58.3519L126.169 56.4965L125.499 59.3827C125.473 59.46 125.447 59.5115 125.37 59.5373L122.973 60.9546Z" fill="#040404"/>
<path d="M37.8523 42.1171L55.0146 32.3763C55.5558 32.0928 56.0196 32.0413 56.3546 32.2475L59.5243 34.1028C59.1893 33.8967 58.6996 33.9225 58.1843 34.2317L17.0823 57.5528C16.0516 58.1455 15.2012 59.6144 15.1754 60.7998L15.0466 74.9986C15.0466 75.5913 15.227 76.0036 15.5877 76.2098L12.4181 74.3544C12.0831 74.1482 11.8512 73.7359 11.877 73.1432L12.0058 58.9444C12.0058 57.7332 12.8562 56.2902 13.9127 55.6975L32.1831 45.3125" fill="#7FFEF0"/>
<path d="M60.0657 35.3402L59.9369 49.539C59.9369 50.7244 59.0865 52.1933 58.0299 52.7859L16.928 76.1071C15.8715 76.6998 15.0469 76.2102 15.0469 74.999L15.1757 60.8002C15.1757 59.6148 16.0261 58.1459 17.0826 57.5533L58.1846 34.2579C59.2153 33.6652 60.0657 34.1548 60.0657 35.3402Z" fill="white"/>
<path d="M133.793 46.9877C133.767 46.9362 133.587 46.8589 130.546 45.0808C130.237 44.9004 129.721 44.7716 128.948 45.2096L111.786 54.9504C111.657 55.0277 111.631 55.1823 111.683 55.3112C111.76 55.44 111.915 55.4658 112.044 55.4143L129.206 45.6735C129.515 45.5189 129.953 45.3385 130.288 45.5446L132.582 46.8846C132.453 46.9362 132.273 47.0135 132.144 47.0908C116.656 55.8781 125.573 50.8273 91.0419 70.3862C89.8822 71.0304 89.0061 72.6023 89.0061 73.8393L88.8772 88.0381C88.8772 88.1927 88.903 88.3731 88.9288 88.5019L86.6611 87.1619C86.3776 87.0073 86.223 86.6466 86.2488 86.1569L86.3776 71.9581C86.3776 70.85 87.1765 69.4843 88.1557 68.9431C107.534 57.9654 94.2372 65.49 106.426 58.5581C106.555 58.4808 106.606 58.3262 106.529 58.1973C106.452 58.0685 106.297 58.0427 106.168 58.0943L97.1492 63.2223L97.0719 40.3393C97.0719 40.1846 96.9688 40.0816 96.8142 40.0816C96.6596 40.0816 96.5565 40.1846 96.5565 40.3393C96.5565 43.8439 96.608 60.1043 96.6338 63.5058L87.8465 68.5308C86.7126 69.175 85.8107 70.6954 85.7849 71.9839L85.6561 86.1827C85.6561 86.8527 85.888 87.3681 86.3261 87.6258C89.908 89.7389 89.5215 89.4812 89.5472 89.5069C90.0111 89.7646 90.6296 89.6358 91.0934 89.3781L96.0669 86.5693C95.268 88.6823 93.7476 90.7181 91.9696 91.7231L53.4703 113.936C50.9965 115.379 49.0638 114.245 49.0638 111.437C49.038 98.5519 49.038 102.881 48.9092 58.2231L58.1346 52.9919C59.2426 52.3735 60.1446 50.8273 60.1703 49.5389L60.2992 35.34C60.2992 34.6958 60.093 34.2062 59.6807 33.9485C59.6549 33.9227 59.5003 33.8454 56.4338 32.0416C56.1246 31.8612 55.6092 31.7323 54.8361 32.1704L49.2184 35.3658C49.8884 33.0981 51.5376 30.7273 53.5219 29.6193L91.9953 7.38041C94.5465 5.93733 96.4019 7.12272 96.4276 9.90579L96.4792 30.2377C96.4792 30.3923 96.608 30.4954 96.7369 30.4954C96.8657 30.4954 96.9946 30.3923 96.9946 30.2377L96.943 9.90579C96.943 8.33387 96.4019 7.17425 95.3969 6.60733C95.1392 6.47849 93.2065 5.31887 87.4857 1.99464C86.5065 1.42772 85.218 1.53079 83.8265 2.35541L80.2188 4.44272C80.0899 4.52002 80.0642 4.67464 80.1157 4.80349C80.193 4.93233 80.3476 4.9581 80.4765 4.90656L84.0842 2.81925C85.2953 2.12349 86.4292 1.99464 87.228 2.45849L93.7992 6.24656C93.1807 6.2981 92.5622 6.47849 91.7892 6.91656L91.7634 6.94233L87.8465 9.21002L53.2642 29.1812C51.0738 30.4439 49.2442 33.1496 48.5999 35.7523L40.9722 40.0558L40.9465 33.0466C40.9465 30.0831 43.0338 26.4754 45.6107 24.9808L73.7765 8.72041C73.9053 8.6431 73.9569 8.48849 73.8796 8.35964C73.8022 8.23079 73.6476 8.20502 73.5188 8.25656L45.353 24.5427C42.6472 26.1146 40.4311 29.9285 40.4311 33.0466L40.4569 40.365L37.7253 41.9112C37.5965 41.9885 37.5449 42.1431 37.6222 42.2719C37.6996 42.4008 37.8542 42.4266 37.983 42.375C41.8999 40.1589 51.2284 34.8762 55.1453 32.6343C55.4546 32.4539 55.8926 32.2993 56.2276 32.5054L58.5211 33.8454C58.4438 33.8712 58.2634 33.9485 58.0573 34.0516C57.8769 34.1546 22.1092 54.435 16.9553 57.3469C15.8472 57.9912 14.9196 59.4858 14.9196 60.8L14.7907 74.9989C14.7907 75.1535 14.8165 75.3339 14.8422 75.4627L12.5746 74.1227C12.2911 73.9681 12.1365 73.6073 12.1622 73.1435L12.2911 58.9446C12.2911 57.8366 13.0899 56.4708 14.0692 55.9296L32.3396 45.5446C32.4684 45.4673 32.4942 45.3127 32.4426 45.1839C32.3653 45.055 32.2107 45.0035 32.0819 45.0808L13.8115 55.4658C12.6776 56.11 11.7757 57.6304 11.7499 58.9189L11.6211 73.1177C11.6211 73.7877 11.853 74.3031 12.2911 74.5608L15.4607 76.4162C15.9761 76.6996 16.543 76.5708 17.0584 76.3131L40.5084 63.0162L40.6372 106.798C40.6372 108.344 41.1784 109.53 42.1576 110.097C50.5584 114.967 50.0946 114.709 50.1203 114.709C51.2542 115.353 52.6199 115.018 53.7538 114.348L92.253 92.1612C94.263 91.0016 95.9896 88.605 96.7369 86.1827L132.221 66.0569C133.329 65.4385 134.231 63.8923 134.257 62.6039L134.386 48.405C134.386 47.7608 134.18 47.2712 133.793 46.9877ZM40.5084 62.4235L16.8007 75.875C15.9246 76.3646 15.2803 75.9781 15.3061 74.9989L15.4349 60.8C15.4349 59.6662 16.2596 58.3262 17.213 57.785C34.9422 47.735 40.9722 44.3077 58.3149 34.4896C59.1396 34.0258 59.8096 34.3093 59.8096 35.3658L59.6807 49.5646C59.6807 50.6727 58.8561 52.0643 57.9026 52.5796L48.9349 57.6562L48.4196 57.9396L41.0238 62.14L40.5084 62.4235ZM42.4411 109.658C41.6165 109.169 41.1526 108.164 41.1526 106.798L41.0238 62.7069L48.4196 58.5066C48.5484 101.335 48.5484 100.33 48.5742 111.411C48.5742 112.055 48.6772 112.596 48.8061 112.983C48.8576 113.189 48.9865 113.447 49.0122 113.472L42.4411 109.658ZM133.741 62.5781C133.741 63.6862 132.917 65.0519 131.963 65.5931C129.206 67.165 93.1292 87.6258 90.8615 88.9143C90.0369 89.3781 89.3669 89.1204 89.3669 88.0381L89.4957 73.8393C89.4957 72.757 90.2688 71.3912 91.2738 70.8242C102.303 64.5623 113.77 58.0685 132.376 47.5289C133.2 47.065 133.87 47.3485 133.87 48.405L133.741 62.5781Z" fill="#325FEC"/>
<path d="M23.9889 56.7285C25.1227 56.0843 26.0504 56.5997 26.0504 57.8881C26.0504 59.2024 25.1485 60.7743 24.0147 61.4185C22.8808 62.0628 21.9531 61.5474 21.9531 60.2589C21.9531 58.9704 22.855 57.3728 23.9889 56.7285Z" fill="#7FFEF0"/>
<path d="M23.0869 61.9852C22.8549 61.9852 22.623 61.9336 22.4169 61.8048C21.953 61.5471 21.6953 60.9802 21.6953 60.2586C21.6953 58.8671 22.6488 57.1921 23.8599 56.4963C24.5042 56.1356 25.0969 56.084 25.5607 56.3417C26.0245 56.5994 26.2822 57.1663 26.2822 57.8879C26.2822 59.3052 25.3288 60.9544 24.1176 61.6502C23.7569 61.8821 23.3961 61.9852 23.0869 61.9852ZM24.9165 56.7025C24.6845 56.7025 24.4011 56.7798 24.1176 56.9602C23.0611 57.5786 22.2107 59.0475 22.2107 60.2844C22.2107 60.8256 22.3911 61.2121 22.6745 61.3667C22.9838 61.5471 23.3961 61.4956 23.8599 61.2121C24.9165 60.5936 25.7669 59.1248 25.7669 57.8879C25.7669 57.3467 25.5865 56.9602 25.303 56.8056C25.1999 56.7283 25.0453 56.7025 24.9165 56.7025Z" fill="#040404"/>
<path d="M24.0196 62.9647C26.6739 61.4443 28.8127 62.6555 28.8127 65.6962V65.7478L19.2266 71.2882V71.2366C19.2266 68.1701 21.3654 64.4851 24.0196 62.9647Z" fill="#7FFEF0"/>
<path d="M19.2264 71.5201C19.1749 71.5201 19.1491 71.5201 19.0976 71.4943C19.0203 71.4428 18.9688 71.3655 18.9688 71.2624V71.2109C18.9688 68.0928 21.1591 64.2789 23.8649 62.707C25.2307 61.9082 26.5191 61.8051 27.5241 62.372C28.5034 62.9389 29.0445 64.0985 29.0703 65.6705V65.722C29.0703 65.8251 29.0188 65.9024 28.9414 65.9539L19.3553 71.4943C19.3295 71.5201 19.278 71.5201 19.2264 71.5201ZM24.1484 63.1709C21.7003 64.5882 19.6903 67.9382 19.5099 70.8243L28.5549 65.5932C28.5291 64.2789 28.0911 63.2997 27.2922 62.8359C26.4418 62.372 25.3337 62.4751 24.1484 63.1709Z" fill="#040404"/>
<path d="M33.8584 53.0952L34.8119 55.801L37.7238 54.0744L35.3788 57.4502L36.3322 60.1302L33.9357 59.5375L31.5649 62.9133L32.4411 59.1768L30.0703 58.5841L32.9822 56.8575L33.8584 53.0952Z" fill="#7FFEF0"/>
<path d="M31.5648 63.1709C31.539 63.1709 31.4875 63.1709 31.4617 63.1451C31.3587 63.0936 31.2813 62.9647 31.3071 62.8616L32.1317 59.357L29.9929 58.8159C29.8898 58.7901 29.8125 58.7128 29.8125 58.6097C29.8125 58.5066 29.8383 58.4036 29.9413 58.352L32.776 56.7028L33.6263 53.0436C33.6521 52.9405 33.7552 52.8632 33.8583 52.8374C33.9871 52.8374 34.0902 52.9147 34.116 53.0178L34.9406 55.4143L37.5948 53.8682C37.6979 53.8166 37.8267 53.8166 37.904 53.9197C37.9813 53.997 38.0071 54.1516 37.9298 54.2547L35.6621 57.5016L36.564 60.0786C36.5898 60.1559 36.564 60.2589 36.5125 60.3362C36.461 60.4136 36.3579 60.4393 36.2548 60.4136L34.0387 59.8466L31.7967 63.0936C31.7452 63.1451 31.6421 63.1709 31.5648 63.1709ZM30.7402 58.4809L32.5183 58.9189C32.6471 58.9447 32.7502 59.0993 32.6987 59.2282L32.1317 61.6762L33.7294 59.3828C33.781 59.3055 33.9098 59.2539 34.0129 59.2797L35.9456 59.7693L35.1725 57.5274C35.1467 57.4501 35.1467 57.3728 35.1983 57.2955L36.8733 54.8989L34.9663 56.007C34.889 56.0586 34.8117 56.0586 34.7344 56.0328C34.6571 56.007 34.6056 55.9555 34.5798 55.8782L33.9356 54.0228L33.2656 56.9089C33.2398 56.9862 33.214 57.0378 33.1367 57.0636L30.7402 58.4809Z" fill="#040404"/>
<path d="M42.9545 47.8379L43.8822 50.5179L46.7941 48.8171L44.4491 52.1671L45.4025 54.8729L43.006 54.2544L40.6352 57.656L41.5372 53.8937L39.1406 53.301L42.0525 51.5744L42.9545 47.8379Z" fill="#7FFEF0"/>
<path d="M40.6378 57.914C40.612 57.914 40.5605 57.914 40.5347 57.8883C40.4316 57.8367 40.3543 57.7079 40.3801 57.6048L41.2047 54.1002L39.0659 53.559C38.9628 53.5333 38.8855 53.456 38.8855 53.3529C38.8597 53.2498 38.9112 53.1467 39.0143 53.0952L41.8489 51.446L42.6993 47.7867C42.7251 47.6836 42.8282 47.6063 42.9312 47.5806C43.0601 47.5806 43.1632 47.6321 43.1889 47.761L44.0136 50.1575L46.6678 48.6113C46.7709 48.5598 46.8997 48.5598 46.977 48.6629C47.0543 48.7402 47.0801 48.8948 47.0028 48.9979L44.7351 52.2448L45.637 54.8217C45.6628 54.899 45.637 55.0021 45.5855 55.0794C45.5339 55.1567 45.4309 55.1825 45.3278 55.1567L43.1116 54.5898L40.8697 57.8367C40.8182 57.8625 40.7409 57.914 40.6378 57.914ZM39.8132 53.1983L41.5912 53.6363C41.7201 53.6621 41.8232 53.8167 41.7716 53.9456L41.2047 56.3936L42.8024 54.1002C42.8539 54.0229 42.9828 53.9713 43.0859 53.9971L45.0186 54.4867L44.2455 52.2448C44.2197 52.1675 44.2197 52.0902 44.2712 52.0129L45.9462 49.6163L44.0393 50.7244C43.962 50.776 43.8847 50.776 43.8074 50.7502C43.7301 50.7244 43.6786 50.6729 43.6528 50.5956L43.0086 48.7402L42.3386 51.6263C42.3128 51.7036 42.287 51.7552 42.2097 51.781L39.8132 53.1983Z" fill="#040404"/>
<path d="M52.0287 42.5552L52.9564 45.2352L55.8683 43.5344L53.5233 46.8844L54.4768 49.5902L52.0802 48.9717L49.7352 52.3733L50.6114 48.6109L48.2148 48.0183L51.1525 46.2917L52.0287 42.5552Z" fill="#7FFEF0"/>
<path d="M49.7354 52.6313C49.7097 52.6313 49.6581 52.6313 49.6324 52.6055C49.5293 52.554 49.452 52.4252 49.4777 52.3221L50.3024 48.8175L48.1635 48.2763C48.0604 48.2505 47.9831 48.1732 47.9831 48.0702C47.9574 47.9671 48.0089 47.864 48.112 47.8125L50.9466 46.1632L51.797 42.504C51.8227 42.4009 51.9258 42.3236 52.0289 42.2979C52.1577 42.2979 52.2608 42.3752 52.2866 42.4782L53.1112 44.8748L55.7654 43.3286C55.8685 43.2771 55.9974 43.2771 56.0747 43.3802C56.152 43.4575 56.1777 43.6121 56.1004 43.7152L53.8327 46.9621L54.7347 49.539C54.7604 49.6163 54.7347 49.7194 54.6831 49.7967C54.6316 49.874 54.5285 49.8998 54.4254 49.874L52.2093 49.3071L49.9674 52.554C49.8901 52.5798 49.8127 52.6313 49.7354 52.6313ZM48.8851 47.9155L50.6631 48.3536C50.792 48.3794 50.8951 48.534 50.8435 48.6629L50.2766 51.1109L51.8743 48.8175C51.9258 48.7402 52.0547 48.6886 52.1577 48.7144L54.0904 49.204L53.3174 46.9621C53.2916 46.8848 53.2916 46.8075 53.3431 46.7302L55.0181 44.3336L53.1112 45.4417C53.0339 45.4932 52.9566 45.4932 52.8793 45.4675C52.802 45.4417 52.7504 45.3902 52.7247 45.3129L52.0804 43.4575L51.4104 46.3436C51.3847 46.4209 51.3589 46.4725 51.2816 46.4982L48.8851 47.9155Z" fill="#040404"/>
</g>
<defs>
<clipPath id="clip0_146_1164">
<rect width="134" height="134" fill="white" transform="translate(0 0.5)"/>
</clipPath>
</defs>
</svg>
