<svg width="118" height="118" viewBox="0 0 118 118" fill="none" xmlns="http://www.w3.org/2000/svg">
<g clip-path="url(#clip0_184_506)">
<path d="M118 0H0V118H118V0Z" fill="white"/>
<path d="M11.5122 43.1707H14.3903V46.0488H11.5122V43.1707ZM11.5122 54.6829H14.3903V57.561H11.5122V54.6829ZM11.5122 63.3171H14.3903V66.1951H11.5122V63.3171ZM11.5122 69.0732H14.3903V71.9512V74.8293H11.5122V71.9512V69.0732ZM11.5122 80.5854H14.3903H17.2683H20.1464V77.7073H17.2683V74.8293V71.9512V69.0732H14.3903V66.1951H17.2683V63.3171V60.439H20.1464V63.3171H23.0244H25.9025V66.1951H23.0244H20.1464V69.0732H23.0244V71.9512H20.1464V74.8293H23.0244V71.9512H25.9025V74.8293H28.7805H31.6585H34.5366V77.7073H31.6585H28.7805H25.9025V80.5854V83.4634H23.0244H20.1464H17.2683H14.3903H11.5122V80.5854ZM14.3903 40.2927H17.2683H20.1464V37.4146H23.0244V40.2927H25.9025V37.4146H23.0244V34.5366H25.9025H28.7805H31.6585H34.5366V37.4146H37.4146V34.5366H34.5366V31.6585V28.7805V25.9025H37.4146V23.0244H40.2927V20.1464V17.2683V14.3903V11.5122H43.1707V14.3903H46.0488V17.2683H43.1707V20.1464H46.0488V23.0244V25.9025H48.9268H51.8049V28.7805H48.9268V31.6585V34.5366H46.0488V31.6585V28.7805H43.1707V31.6585H40.2927V28.7805H37.4146V31.6585H40.2927V34.5366V37.4146H43.1707H46.0488H48.9268V40.2927H51.8049H54.6829H57.561V43.1707H60.439H63.3171H66.1951H69.0732V40.2927H66.1951V37.4146H63.3171V34.5366H60.439V37.4146H63.3171V40.2927H60.439H57.561V37.4146V34.5366V31.6585V28.7805H60.439V31.6585H63.3171V28.7805H66.1951V31.6585H69.0732V34.5366H71.9512V31.6585H74.8293V28.7805H77.7073V31.6585V34.5366H74.8293V37.4146H71.9512V40.2927H74.8293V37.4146H77.7073V34.5366H80.5854V37.4146V40.2927H83.4634H86.3415H89.2195V37.4146H86.3415V34.5366H89.2195H92.0976V37.4146V40.2927H94.9756H97.8537V43.1707H94.9756V46.0488H92.0976V43.1707H89.2195V46.0488H92.0976V48.9268H89.2195H86.3415V46.0488V43.1707H83.4634V46.0488V48.9268H86.3415V51.8049H83.4634V54.6829H80.5854V57.561V60.439H83.4634V63.3171H86.3415H89.2195V66.1951H92.0976V63.3171H94.9756H97.8537V66.1951H94.9756V69.0732H97.8537V71.9512H94.9756H92.0976V69.0732H89.2195H86.3415V66.1951H83.4634H80.5854H77.7073H74.8293V63.3171H77.7073V60.439V57.561V54.6829V51.8049H74.8293H71.9512V48.9268H74.8293H77.7073V46.0488H80.5854V43.1707H77.7073H74.8293V46.0488H71.9512V48.9268H69.0732V46.0488H66.1951V48.9268H63.3171H60.439V46.0488H57.561H54.6829V43.1707H51.8049H48.9268V46.0488H46.0488H43.1707V48.9268V51.8049V54.6829H40.2927V51.8049H37.4146V48.9268H40.2927V46.0488V43.1707H43.1707H46.0488V40.2927H43.1707H40.2927H37.4146H34.5366H31.6585V37.4146H28.7805V40.2927H31.6585V43.1707H28.7805V46.0488H31.6585V48.9268H28.7805H25.9025V46.0488V43.1707H23.0244H20.1464V46.0488H17.2683V43.1707H14.3903V40.2927ZM14.3903 46.0488H17.2683V48.9268V51.8049V54.6829H14.3903V51.8049V48.9268V46.0488ZM20.1464 48.9268H23.0244V51.8049H25.9025V54.6829H23.0244V57.561H25.9025V60.439H23.0244H20.1464V57.561V54.6829V51.8049V48.9268ZM25.9025 54.6829H28.7805V57.561H25.9025V54.6829ZM25.9025 66.1951H28.7805V69.0732H31.6585V66.1951H28.7805V63.3171H31.6585H34.5366H37.4146V66.1951H40.2927V69.0732H37.4146H34.5366V71.9512H31.6585H28.7805H25.9025V69.0732V66.1951ZM28.7805 51.8049H31.6585V54.6829H28.7805V51.8049ZM28.7805 57.561H31.6585V60.439H28.7805V57.561ZM28.7805 80.5854H31.6585H34.5366V77.7073H37.4146V80.5854V83.4634H40.2927V86.3415V89.2195H37.4146V92.0976H40.2927V94.9756H43.1707V92.0976V89.2195V86.3415V83.4634H40.2927V80.5854V77.7073H37.4146V74.8293H40.2927H43.1707V77.7073H46.0488H48.9268V80.5854V83.4634H51.8049V86.3415H48.9268H46.0488V89.2195H48.9268V92.0976V94.9756H46.0488V97.8537V100.732V103.61H43.1707H40.2927V100.732V97.8537H37.4146V94.9756H34.5366V92.0976V89.2195V86.3415V83.4634H31.6585H28.7805V80.5854ZM31.6585 54.6829H34.5366V57.561H31.6585V54.6829ZM34.5366 14.3903H37.4146V17.2683H34.5366V14.3903ZM34.5366 46.0488H37.4146V48.9268H34.5366V46.0488ZM34.5366 57.561H37.4146V60.439H34.5366V57.561ZM34.5366 71.9512H37.4146V74.8293H34.5366V71.9512ZM37.4146 60.439H40.2927V63.3171H37.4146V60.439ZM40.2927 57.561H43.1707V60.439H40.2927V57.561ZM40.2927 69.0732H43.1707V71.9512H40.2927V69.0732ZM43.1707 60.439H46.0488V57.561H48.9268H51.8049V60.439V63.3171H48.9268V66.1951H46.0488V63.3171H43.1707V60.439ZM43.1707 66.1951H46.0488V69.0732H43.1707V66.1951ZM43.1707 71.9512H46.0488V69.0732H48.9268H51.8049V66.1951V63.3171H54.6829H57.561V66.1951V69.0732H54.6829V71.9512H57.561V74.8293H54.6829V77.7073H51.8049H48.9268V74.8293H46.0488H43.1707V71.9512ZM46.0488 51.8049H48.9268V54.6829H46.0488V51.8049ZM46.0488 103.61H48.9268H51.8049V106.488H48.9268H46.0488V103.61ZM48.9268 20.1464H51.8049V23.0244H48.9268V20.1464ZM48.9268 34.5366H51.8049H54.6829V37.4146H51.8049H48.9268V34.5366ZM48.9268 46.0488H51.8049H54.6829V48.9268H57.561H60.439V51.8049H63.3171V54.6829H60.439H57.561H54.6829V57.561H51.8049V54.6829V51.8049H48.9268V48.9268V46.0488ZM48.9268 94.9756H51.8049V97.8537V100.732H48.9268V97.8537V94.9756ZM51.8049 14.3903H54.6829V11.5122H57.561V14.3903H60.439V11.5122H63.3171V14.3903V17.2683H60.439H57.561V20.1464H54.6829H51.8049V17.2683V14.3903ZM51.8049 28.7805H54.6829V31.6585H51.8049V28.7805ZM51.8049 80.5854H54.6829H57.561V83.4634H54.6829H51.8049V80.5854ZM51.8049 86.3415H54.6829H57.561V89.2195V92.0976V94.9756H54.6829H51.8049V92.0976H54.6829V89.2195H51.8049V86.3415ZM54.6829 25.9025H57.561V28.7805H54.6829V25.9025ZM54.6829 57.561H57.561V60.439H54.6829V57.561ZM54.6829 97.8537H57.561V100.732H60.439V103.61V106.488H57.561V103.61H54.6829V100.732V97.8537ZM57.561 20.1464H60.439V23.0244H57.561V20.1464ZM57.561 74.8293H60.439V77.7073V80.5854H57.561V77.7073V74.8293ZM57.561 94.9756H60.439V97.8537H57.561V94.9756ZM60.439 23.0244H63.3171V25.9025V28.7805H60.439V25.9025V23.0244ZM60.439 57.561H63.3171V60.439H66.1951V57.561H69.0732V60.439V63.3171H71.9512V66.1951H69.0732H66.1951V63.3171H63.3171V66.1951V69.0732V71.9512H60.439V69.0732V66.1951V63.3171V60.439V57.561ZM60.439 89.2195H63.3171H66.1951V92.0976V94.9756H63.3171V92.0976H60.439V89.2195ZM60.439 97.8537H63.3171H66.1951V94.9756H69.0732V97.8537V100.732H66.1951H63.3171H60.439V97.8537ZM63.3171 17.2683H66.1951V20.1464V23.0244H63.3171V20.1464V17.2683ZM63.3171 71.9512H66.1951V74.8293V77.7073H69.0732H71.9512V74.8293V71.9512H74.8293V74.8293V77.7073V80.5854H77.7073V83.4634H80.5854V80.5854H83.4634H86.3415H89.2195H92.0976V77.7073H89.2195V74.8293H92.0976H94.9756V77.7073V80.5854H97.8537V83.4634H94.9756V86.3415V89.2195V92.0976H97.8537V94.9756V97.8537H100.732V100.732V103.61V106.488H97.8537V103.61V100.732H94.9756V103.61H92.0976V106.488H89.2195H86.3415H83.4634H80.5854H77.7073H74.8293H71.9512V103.61H69.0732V100.732H71.9512H74.8293V103.61H77.7073H80.5854V100.732H83.4634V97.8537H86.3415V94.9756H83.4634V97.8537H80.5854V94.9756V92.0976H77.7073V94.9756H74.8293V92.0976V89.2195H77.7073H80.5854V86.3415H77.7073H74.8293H71.9512V89.2195V92.0976H69.0732V89.2195H66.1951V86.3415H69.0732V83.4634H71.9512V80.5854H69.0732H66.1951H63.3171V77.7073V74.8293V71.9512ZM66.1951 11.5122H69.0732H71.9512H74.8293V14.3903H77.7073V17.2683H74.8293V20.1464H71.9512V17.2683H69.0732V14.3903H66.1951V11.5122ZM66.1951 23.0244H69.0732V20.1464H71.9512V23.0244V25.9025H74.8293V28.7805H71.9512V31.6585H69.0732V28.7805V25.9025H66.1951V23.0244ZM66.1951 48.9268H69.0732V51.8049H66.1951V48.9268ZM66.1951 103.61H69.0732V106.488H66.1951V103.61ZM69.0732 51.8049H71.9512V54.6829H74.8293V57.561V60.439H71.9512V57.561H69.0732V54.6829V51.8049ZM71.9512 66.1951H74.8293V69.0732H71.9512V66.1951ZM71.9512 94.9756H74.8293V97.8537H71.9512V94.9756ZM74.8293 20.1464H77.7073V23.0244V25.9025H74.8293V23.0244V20.1464ZM74.8293 69.0732H77.7073V71.9512H74.8293V69.0732ZM77.7073 11.5122H80.5854H83.4634V14.3903V17.2683H80.5854V14.3903H77.7073V11.5122ZM77.7073 25.9025H80.5854H83.4634V28.7805V31.6585V34.5366H80.5854V31.6585V28.7805H77.7073V25.9025ZM77.7073 74.8293H80.5854V71.9512H83.4634H86.3415H89.2195V74.8293H86.3415H83.4634V77.7073H80.5854V80.5854H77.7073V77.7073V74.8293ZM83.4634 83.4634V86.3415V89.2195V92.0976H86.3415H89.2195H92.0976V89.2195V86.3415V83.4634H89.2195H86.3415H83.4634ZM83.4634 54.6829H86.3415V57.561H89.2195V54.6829H92.0976V51.8049H94.9756H97.8537V48.9268H100.732V46.0488H103.61V43.1707H106.488V46.0488V48.9268H103.61V51.8049V54.6829H106.488V57.561H103.61V60.439H100.732H97.8537V57.561H100.732V54.6829H97.8537V57.561H94.9756V60.439H92.0976H89.2195H86.3415H83.4634V57.561V54.6829ZM86.3415 51.8049H89.2195V54.6829H86.3415V51.8049ZM86.3415 86.3415H89.2195V89.2195H86.3415V86.3415ZM89.2195 97.8537V100.732H92.0976V97.8537H89.2195ZM97.8537 83.4634H100.732H103.61V86.3415V89.2195H106.488V92.0976H103.61H100.732V89.2195H97.8537V86.3415V83.4634ZM100.732 34.5366H103.61V37.4146V40.2927V43.1707H100.732V40.2927V37.4146V34.5366ZM100.732 63.3171H103.61V66.1951V69.0732H106.488V71.9512V74.8293H103.61V71.9512H100.732V69.0732V66.1951V63.3171ZM100.732 74.8293H103.61V77.7073H100.732V74.8293ZM103.61 80.5854H106.488V83.4634H103.61V80.5854ZM103.61 94.9756H106.488V97.8537H103.61V94.9756ZM103.61 103.61H106.488V106.488H103.61V103.61Z" fill="black"/>
<path d="M11.5122 11.5122H14.3903H17.2683H20.1464H23.0244H25.9025H28.7805H31.6585V14.3903V17.2683V20.1464V23.0244V25.9025V28.7805V31.6585H28.7805H25.9025H23.0244H20.1464H17.2683H14.3903H11.5122V28.7805V25.9025V23.0244V20.1464V17.2683V14.3903V11.5122ZM14.3903 14.3903V17.2683V20.1464V23.0244V25.9025V28.7805H17.2683H20.1464H23.0244H25.9025H28.7805V25.9025V23.0244V20.1464V17.2683V14.3903H25.9025H23.0244H20.1464H17.2683H14.3903Z" fill="black"/>
<path d="M17.2683 17.2683H20.1464H23.0244H25.9025V20.1464V23.0244V25.9025H23.0244H20.1464H17.2683V23.0244V20.1464V17.2683Z" fill="black"/>
<path d="M86.3414 11.5122H89.2195H92.0975H94.9756H97.8536H100.732H103.61H106.488V14.3903V17.2683V20.1464V23.0244V25.9025V28.7805V31.6585H103.61H100.732H97.8536H94.9756H92.0975H89.2195H86.3414V28.7805V25.9025V23.0244V20.1464V17.2683V14.3903V11.5122ZM89.2195 14.3903V17.2683V20.1464V23.0244V25.9025V28.7805H92.0975H94.9756H97.8536H100.732H103.61V25.9025V23.0244V20.1464V17.2683V14.3903H100.732H97.8536H94.9756H92.0975H89.2195Z" fill="black"/>
<path d="M92.0975 17.2683H94.9756H97.8536H100.732V20.1464V23.0244V25.9025H97.8536H94.9756H92.0975V23.0244V20.1464V17.2683Z" fill="black"/>
<path d="M11.5122 86.3414H14.3903H17.2683H20.1464H23.0244H25.9025H28.7805H31.6585V89.2195V92.0975V94.9756V97.8536V100.732V103.61V106.488H28.7805H25.9025H23.0244H20.1464H17.2683H14.3903H11.5122V103.61V100.732V97.8536V94.9756V92.0975V89.2195V86.3414ZM14.3903 89.2195V92.0975V94.9756V97.8536V100.732V103.61H17.2683H20.1464H23.0244H25.9025H28.7805V100.732V97.8536V94.9756V92.0975V89.2195H25.9025H23.0244H20.1464H17.2683H14.3903Z" fill="black"/>
<path d="M17.2683 92.0975H20.1464H23.0244H25.9025V94.9756V97.8536V100.732H23.0244H20.1464H17.2683V97.8536V94.9756V92.0975Z" fill="black"/>
</g>
<defs>
<clipPath id="clip0_184_506">
<rect width="118" height="118" fill="white"/>
</clipPath>
</defs>
</svg>
