<svg width="9" height="15" viewBox="0 0 9 15" fill="none" xmlns="http://www.w3.org/2000/svg">
<path d="M3.69141 9.46484C3.69141 7.61035 4.46484 7.18848 5.73926 6.35352C6.68848 5.70312 7.04004 4.99121 7.04004 4.26172C7.04004 3.12793 6.20508 2.41602 4.87793 2.41602C3.41016 2.41602 2.54004 3.32129 2.54004 4.8418H0.5625C0.5625 2.37207 2.29395 0.702148 4.88672 0.702148C7.3125 0.702148 9.00879 2.12598 9.00879 4.15625C9.00879 5.44824 8.37598 6.53809 7.18066 7.35547C6.03809 8.1377 5.57227 8.51562 5.57227 9.61426V10.335H3.69141V9.46484ZM4.64062 14.1494C3.9375 14.1494 3.36621 13.5869 3.36621 12.8838C3.36621 12.1719 3.9375 11.6094 4.64062 11.6094C5.35254 11.6094 5.91504 12.1719 5.91504 12.8838C5.91504 13.5869 5.35254 14.1494 4.64062 14.1494Z" fill="black"/>
</svg>
