<svg width="32" height="32" viewBox="0 0 32 32" fill="none" xmlns="http://www.w3.org/2000/svg">
<path fill-rule="evenodd" clip-rule="evenodd" d="M19.9974 8.66675C15.9473 8.66675 12.6641 11.95 12.6641 16.0001C12.6641 20.0502 15.9473 23.3334 19.9974 23.3334C24.0475 23.3334 27.3307 20.0502 27.3307 16.0001C27.3307 11.95 24.0475 8.66675 19.9974 8.66675ZM10.6641 16.0001C10.6641 10.8454 14.8427 6.66675 19.9974 6.66675C25.1521 6.66675 29.3307 10.8454 29.3307 16.0001C29.3307 18.2172 28.5577 20.2537 27.2664 21.8549L31.0783 25.6667L29.6641 27.081L25.8522 23.2691C24.2511 24.5604 22.2145 25.3334 19.9974 25.3334C14.8427 25.3334 10.6641 21.1548 10.6641 16.0001ZM2.66406 8.00008H9.33073V10.0001H2.66406V8.00008ZM2.66406 15.0001H7.9974V17.0001H2.66406V15.0001ZM2.66406 22.0001H9.33073V24.0001H2.66406V22.0001Z" fill="#D7FC51"/>
</svg>
