<svg width="32" height="32" viewBox="0 0 32 32" fill="none" xmlns="http://www.w3.org/2000/svg">
<path fill-rule="evenodd" clip-rule="evenodd" d="M16 2.61255L28 6.61255V15.883C28 19.5329 26.422 22.2267 24.1883 24.3462C21.9923 26.4299 19.1206 27.9966 16.4748 29.4239L16 29.6801L15.5252 29.4239C12.8794 27.9966 10.0077 26.4299 7.81168 24.3462C5.57801 22.2267 4 19.5329 4 15.883V6.61255L16 2.61255ZM6 8.05407V15.883C6 18.8632 7.25532 21.0612 9.18832 22.8953C11.0427 24.6549 13.4795 26.0415 16 27.4071C18.5205 26.0415 20.9573 24.6549 22.8117 22.8953C24.7447 21.0612 26 18.8632 26 15.883V8.05407L16 4.72073L6 8.05407ZM21.0809 12.6666L14.6667 19.0809L10.9191 15.3333L12.3333 13.9191L14.6667 16.2524L19.6667 11.2524L21.0809 12.6666Z" fill="#325FEC"/>
</svg>
