<svg width="786" height="428" viewBox="0 0 786 428" fill="none" xmlns="http://www.w3.org/2000/svg">
<path fill-rule="evenodd" clip-rule="evenodd" d="M483.809 -276.358L346.893 -298L1 -99.6169L65.855 47.42L123.504 178.119L177.55 186.38L224.389 193.538L343.29 211.711L516.237 238.144L536.053 241.172L555.87 244.201L595.504 250.259L660.359 212.107L689.183 195.15L908.969 65.8572L945 44.6617L908.969 -34.6916L862.13 -7.78714L844.115 2.5607L689.183 91.5522L645.947 -2.22885L743.229 -60.6617L818.893 -106.109L862.13 -132.08L818.893 -225.861L653.153 -251.109L483.809 -153.84L433.366 -124.866L271.229 -150.114L483.809 -276.358ZM141.519 -74.3682L202.771 -110.438L300.053 -94.2065L354.099 -85.1891L307.26 -52.7264L354.099 47.42L516.237 73.5174L577.489 41.0547L620.725 127.622L555.87 163.692L516.237 157.587L354.099 132.01L307.26 125.402L227.992 113.194L206.735 67.0863L168.126 -16.6567L141.519 -74.3682Z" fill="#010131"/>
<path d="M483.809 -276.358L346.893 -298L1 -99.6169M483.809 -276.358L271.229 -150.114L433.366 -124.866L483.809 -153.84M483.809 -276.358V-153.84M1 -99.6169V84.3383M1 -99.6169L65.855 47.42M123.504 178.119V351.254M123.504 178.119L65.855 47.42M123.504 178.119L177.55 186.38M123.504 351.254L1 84.3383M123.504 351.254L595.504 427M1 84.3383L65.855 47.42M595.504 250.259V427M595.504 250.259L555.87 244.201M595.504 250.259L620.725 307.97L555.87 344.04M595.504 250.259L660.359 212.107M595.504 427L945 225.01M945 225.01V44.6617M945 225.01L908.969 145.657M945 44.6617L908.969 65.8572M945 44.6617L908.969 -34.6916L862.13 -7.78714M177.55 186.38L224.389 293.542M177.55 186.38L224.389 193.538M224.389 293.542L555.87 344.04M224.389 293.542V193.538M555.87 344.04V244.201M555.87 244.201L536.053 241.172M224.389 193.538L343.29 211.711M660.359 212.107L689.183 268.294M660.359 212.107L689.183 195.15M689.183 268.294L908.969 145.657M689.183 268.294V195.15M908.969 145.657V65.8572M908.969 65.8572L689.183 195.15M862.13 -132.08L818.893 -225.861L653.153 -251.109L483.809 -153.84M862.13 -132.08V-7.78714M862.13 -132.08L818.893 -106.109M862.13 -7.78714L844.115 2.5607M818.893 -106.109V-45.5125M818.893 -106.109L743.229 -60.6617M818.893 -45.5125L844.115 2.5607M818.893 -45.5125L743.229 -60.6617M844.115 2.5607L689.183 91.5522L645.947 -2.22885L743.229 -60.6617M516.237 73.5174L577.489 41.0547L620.725 127.622L555.87 163.692L516.237 157.587M516.237 73.5174L354.099 47.42M516.237 73.5174V157.587M354.099 47.42L307.26 -52.7264M354.099 47.42V132.01M307.26 -52.7264L354.099 -85.1891L300.053 -94.2065M307.26 -52.7264V8.59204M300.053 -94.2065L202.771 -110.438L141.519 -74.3682L168.126 -16.6567M300.053 -94.2065L168.126 -16.6567M168.126 -16.6567L206.735 67.0863M307.26 125.402L227.992 113.194L206.735 67.0863M307.26 125.402V84.3383M307.26 125.402L354.099 132.01M206.735 67.0863L307.26 84.3383M307.26 84.3383V33.8408M307.26 33.8408L267.626 30.2338L307.26 8.59204M307.26 33.8408V8.59204M354.099 132.01L516.237 157.587M343.29 211.711L350.165 225.01L516.237 250.259M343.29 211.711L516.237 238.144M516.237 250.259V238.144M516.237 250.259L536.053 241.172M516.237 238.144L536.053 241.172" stroke="white"/>
</svg>
