<svg width="614" height="744" viewBox="0 0 614 744" fill="none" xmlns="http://www.w3.org/2000/svg">
<path fill-rule="evenodd" clip-rule="evenodd" d="M560.015 -69.9851L401.489 -95L1 134.303L76.0916 304.258L142.84 455.328L205.416 464.876L259.649 473.151L397.317 494.156L597.561 524.708L620.506 528.209L643.45 531.71L689.34 538.711L764.431 494.613L797.805 475.014L1052.28 325.569L1094 301.07L1052.28 209.348L998.05 240.446L977.191 252.407L797.805 355.269L747.744 246.871L860.382 179.33L947.989 126.799L998.05 96.7811L947.989 -11.6169L756.088 -40.801L560.015 71.6295L501.611 105.119L313.882 75.9353L560.015 -69.9851ZM163.698 163.488L234.618 121.796L347.256 140.557L409.832 150.98L355.599 188.502L409.832 304.258L597.561 334.423L668.481 296.9L718.542 396.96L643.45 438.652L597.561 431.596L409.832 402.033L355.599 394.395L263.821 380.284L239.208 326.989L194.505 230.194L163.698 163.488Z" fill="#190737"/>
<path d="M560.015 -69.9851L401.489 -95L1 134.303M560.015 -69.9851L313.882 75.9353L501.611 105.119L560.015 71.6295M560.015 -69.9851V71.6295M1 134.303V346.93M1 134.303L76.0916 304.258M142.84 455.328V655.448M142.84 455.328L76.0916 304.258M142.84 455.328L205.416 464.876M142.84 655.448L1 346.93M142.84 655.448L689.34 743M1 346.93L76.0916 304.258M689.34 538.711V743M689.34 538.711L643.45 531.71M689.34 538.711L718.542 605.418L643.45 647.109M689.34 538.711L764.431 494.613M689.34 743L1094 509.527M1094 509.527V301.07M1094 509.527L1052.28 417.806M1094 301.07L1052.28 325.569M1094 301.07L1052.28 209.348L998.05 240.446M205.416 464.876L259.649 588.741M205.416 464.876L259.649 473.151M259.649 588.741L643.45 647.109M259.649 588.741V473.151M643.45 647.109V531.71M643.45 531.71L620.506 528.209M259.649 473.151L397.317 494.156M764.431 494.613L797.805 559.557M764.431 494.613L797.805 475.014M797.805 559.557L1052.28 417.806M797.805 559.557V475.014M1052.28 417.806V325.569M1052.28 325.569L797.805 475.014M998.05 96.7811L947.989 -11.6169L756.088 -40.801L560.015 71.6295M998.05 96.7811V240.446M998.05 96.7811L947.989 126.799M998.05 240.446L977.191 252.407M947.989 126.799V196.841M947.989 126.799L860.382 179.33M947.989 196.841L977.191 252.407M947.989 196.841L860.382 179.33M977.191 252.407L797.805 355.269L747.744 246.871L860.382 179.33M597.561 334.423L668.481 296.9L718.542 396.96L643.45 438.652L597.561 431.596M597.561 334.423L409.832 304.258M597.561 334.423V431.596M409.832 304.258L355.599 188.502M409.832 304.258V402.033M355.599 188.502L409.832 150.98L347.256 140.557M355.599 188.502V259.378M347.256 140.557L234.618 121.796L163.698 163.488L194.505 230.194M347.256 140.557L194.505 230.194M194.505 230.194L239.208 326.989M355.599 394.395L263.821 380.284L239.208 326.989M355.599 394.395V346.93M355.599 394.395L409.832 402.033M239.208 326.989L355.599 346.93M355.599 346.93V288.562M355.599 288.562L309.71 284.393L355.599 259.378M355.599 288.562V259.378M409.832 402.033L597.561 431.596M397.317 494.156L405.277 509.527L597.561 538.711M397.317 494.156L597.561 524.708M597.561 538.711V524.708M597.561 538.711L620.506 528.209M597.561 524.708L620.506 528.209" stroke="#D4D4D4"/>
</svg>
